#VRML V2.0 utf8
Transform {
  translation 0 0 0.255906
  children [
    Shape {
      appearance Appearance { material Material { diffuseColor 0.82 0.86 0.80 transparency 0.35 } }
      geometry Box { size 0.984252 0.787402 0.511811 }
    }
  ]
}
Transform {
  translation 0 0 -0.255906
  rotation 1 0 0 1.570796
  children [
    Shape {
      appearance Appearance { material Material { diffuseColor 0.35 0.95 0.25 transparency 0.45 } }
      geometry Cylinder { radius 0.374016 height 0.511811 }
    }
  ]
}
Transform {
  translation -0.826772 0 0.029528
  children [
    Shape {
      appearance Appearance { material Material { diffuseColor 0.72 0.72 0.74 } }
      geometry Box { size 1.299213 0.196850 0.059055 }
    }
  ]
}
Transform {
  translation 0.826772 0 0.029528
  children [
    Shape {
      appearance Appearance { material Material { diffuseColor 0.72 0.72 0.74 } }
      geometry Box { size 1.299213 0.196850 0.059055 }
    }
  ]
}
