%FSLAX23Y23*%
%MOIN*%
G04 EasyPC Gerber Version 15.0.4 Build 3016 *
%ADD18C,0.01500*%
%ADD78R,0.03150X0.01575*%
%ADD71C,0.02500*%
%ADD70C,0.04800*%
%ADD23C,0.06000*%
%ADD139C,0.08700*%
X0Y0D02*
D02*
D18*
X292Y218D02*
X172D01*
X160Y230*
X339Y265D02*
X352D01*
X357Y270*
X359*
X406Y246D02*
X378Y218D01*
X352*
Y193*
X327Y169*
X319*
X419Y311D02*
X421Y312D01*
D02*
D70*
X160Y230D03*
X164Y117D03*
X210Y274D03*
X268Y495D03*
X272Y413D03*
X319Y169D03*
X406Y246D03*
X470Y228D03*
X485Y491D03*
D02*
D71*
X160Y230D02*
Y481D01*
X248Y570*
X314*
X315Y571*
Y579*
X164Y117D02*
Y104D01*
X205Y63*
X419*
X525Y169*
Y457*
X491Y491*
X485*
X210Y274D02*
Y384D01*
X241Y414*
X279*
X272Y412*
Y413*
X268Y495D02*
X400Y363D01*
Y311*
X359Y270D02*
X400Y311D01*
X419*
X421Y312D02*
X435D01*
X473Y274*
Y228*
X470*
Y188*
X397Y115*
X272*
X219Y168*
X104*
X102Y166*
X101*
D02*
D23*
D03*
X315Y579D03*
X531Y167D03*
D02*
D78*
X292Y218D03*
Y265D03*
X339Y218D03*
Y265D03*
D02*
D139*
X315Y331D03*
X0Y0D02*
M02*
