G04 EasyPC Gerber Version 20.0.2 Build 4112 *
G04 #@! TF.Part,Single*
G04 #@! TF.FileFunction,Legend,Top *
%FSLAX25Y25*%
%MOIN*%
%ADD70C,0.00300*%
%ADD11C,0.00500*%
%ADD71C,0.00600*%
%ADD19C,0.00800*%
X0Y0D02*
D02*
D11*
X10150Y33300D02*
X4850D01*
Y45600*
X10150*
Y33300*
X10250Y20600D02*
X4950D01*
Y32900*
X10250*
Y20600*
X18050Y25700D02*
X12750D01*
Y38000*
X18050*
Y25700*
X18503Y28500D02*
X44503D01*
Y37800*
X18503*
Y28500*
X22650Y20100D02*
Y25400D01*
X34950*
Y20100*
X22650*
X28950Y19200D02*
Y13900D01*
X16650*
Y19200*
X28950*
X31493Y28426D02*
G75*
G03Y37874J4724D01*
G01*
G75*
G03Y28426J-4724*
G01*
D02*
D19*
X15800Y6925D02*
X16113Y6300D01*
X16737Y5987*
X17987*
X18613Y6300*
X18925Y6925*
X18613Y7550*
X17987Y7863*
X16737*
X16113Y8175*
X15800Y8800*
X16113Y9425*
X16737Y9737*
X17987*
X18613Y9425*
X18925Y8800*
X17250Y38500D02*
X11950D01*
Y50800*
X17250*
Y38500*
X23950D02*
X18650D01*
Y50800*
X23950*
Y38500*
X30000Y13537D02*
X32500D01*
X31250Y12287D02*
Y14787D01*
X44050Y43700D02*
Y38400D01*
X31750*
Y43700*
X44050*
X45200Y8937D02*
X47700D01*
X45850Y32800D02*
Y38100D01*
X58150*
Y32800*
X45850*
X48350Y19400D02*
Y14100D01*
X36050*
Y19400*
X48350*
X58150Y31600D02*
Y26300D01*
X45850*
Y31600*
X58150*
X58250Y44100D02*
Y38800D01*
X45950*
Y44100*
X58250*
D02*
D70*
X3619Y36413D02*
X3775Y36256D01*
X3931Y35944*
Y35475*
X3775Y35163*
X3619Y35006*
X3306Y34850*
X2681*
X2369Y35006*
X2213Y35163*
X2056Y35475*
Y35944*
X2213Y36256*
X2369Y36413*
X3775Y37506D02*
X3931Y37819D01*
Y38131*
X3775Y38444*
X3463Y38600*
X3150Y38444*
X2994Y38131*
Y37819*
Y38131D02*
X2837Y38444D01*
X2525Y38600*
X2213Y38444*
X2056Y38131*
Y37819*
X2213Y37506*
X3819Y28113D02*
X3975Y27956D01*
X4131Y27644*
Y27175*
X3975Y26863*
X3819Y26706*
X3506Y26550*
X2881*
X2569Y26706*
X2413Y26863*
X2256Y27175*
Y27644*
X2413Y27956*
X2569Y28113*
X4131Y29363D02*
Y29987D01*
Y29675D02*
X2256D01*
X2569Y29363*
X12463Y23631D02*
X12306Y23475D01*
X11994Y23319*
X11525*
X11213Y23475*
X11056Y23631*
X10900Y23944*
Y24569*
X11056Y24881*
X11213Y25037*
X11525Y25194*
X11994*
X12306Y25037*
X12463Y24881*
X14181Y23319D02*
Y25194D01*
X13400Y23944*
X14650*
X12800Y51919D02*
Y53794D01*
X13894*
X14206Y53637*
X14363Y53325*
X14206Y53013*
X13894Y52856*
X12800*
X13894D02*
X14363Y51919D01*
X15456Y52075D02*
X15769Y51919D01*
X16081*
X16394Y52075*
X16550Y52387*
X16394Y52700*
X16081Y52856*
X15769*
X16081D02*
X16394Y53013D01*
X16550Y53325*
X16394Y53637*
X16081Y53794*
X15769*
X15456Y53637*
X15319Y16313D02*
X15475Y16156D01*
X15631Y15844*
Y15375*
X15475Y15063*
X15319Y14906*
X15006Y14750*
X14381*
X14069Y14906*
X13913Y15063*
X13756Y15375*
Y15844*
X13913Y16156*
X14069Y16313*
X15631Y18500D02*
Y17250D01*
X14537Y18344*
X14225Y18500*
X13913Y18344*
X13756Y18031*
Y17563*
X13913Y17250*
X19200Y35319D02*
Y37194D01*
X20137*
X20450Y37037*
X20606Y36881*
X20763Y36569*
Y35944*
X20606Y35631*
X20450Y35475*
X20137Y35319*
X19200*
X22013D02*
X22637D01*
X22325D02*
Y37194D01*
X22013Y36881*
X19700Y51919D02*
Y53794D01*
X20794*
X21106Y53637*
X21263Y53325*
X21106Y53013*
X20794Y52856*
X19700*
X20794D02*
X21263Y51919D01*
X22981D02*
Y53794D01*
X22200Y52544*
X23450*
X31031Y39050D02*
X29156D01*
Y40144*
X29313Y40456*
X29625Y40613*
X29937Y40456*
X30094Y40144*
Y39050*
Y40144D02*
X31031Y40613D01*
X30875Y41550D02*
X31031Y41863D01*
Y42331*
X30875Y42644*
X30563Y42800*
X30406*
X30094Y42644*
X29937Y42331*
Y41550*
X29156*
Y42800*
X35669Y24750D02*
X37544D01*
Y23813*
X37387Y23500*
X37231Y23344*
X36919Y23187*
X36294*
X35981Y23344*
X35825Y23500*
X35669Y23813*
Y24750*
Y21000D02*
Y22250D01*
X36763Y21156*
X37075Y21000*
X37387Y21156*
X37544Y21469*
Y21937*
X37387Y22250*
X35300Y58294D02*
Y56887D01*
X35456Y56575*
X35769Y56419*
X36394*
X36706Y56575*
X36863Y56887*
Y58294*
X39050Y56419D02*
X37800D01*
X38894Y57513*
X39050Y57825*
X38894Y58137*
X38581Y58294*
X38113*
X37800Y58137*
X41663Y20331D02*
X41506Y20175D01*
X41194Y20019*
X40725*
X40413Y20175*
X40256Y20331*
X40100Y20644*
Y21269*
X40256Y21581*
X40413Y21737*
X40725Y21894*
X41194*
X41506Y21737*
X41663Y21581*
X42600Y20175D02*
X42913Y20019D01*
X43381*
X43694Y20175*
X43850Y20487*
Y20644*
X43694Y20956*
X43381Y21113*
X42600*
Y21894*
X43850*
X50500Y45019D02*
Y46894D01*
X51594*
X51906Y46737*
X52063Y46425*
X51906Y46113*
X51594Y45956*
X50500*
X51594D02*
X52063Y45019D01*
X53000Y45487D02*
X53156Y45800D01*
X53469Y45956*
X53781*
X54094Y45800*
X54250Y45487*
X54094Y45175*
X53781Y45019*
X53469*
X53156Y45175*
X53000Y45487*
Y45956*
X53156Y46425*
X53469Y46737*
X53781Y46894*
X58969Y30850D02*
X60844D01*
Y29756*
X60687Y29444*
X60375Y29287*
X60063Y29444*
X59906Y29756*
Y30850*
Y29756D02*
X58969Y29287D01*
Y27100D02*
Y28350D01*
X60063Y27256*
X60375Y27100*
X60687Y27256*
X60844Y27569*
Y28037*
X60687Y28350*
X58969Y37050D02*
X60844D01*
Y35956*
X60687Y35644*
X60375Y35487*
X60063Y35644*
X59906Y35956*
Y37050*
Y35956D02*
X58969Y35487D01*
Y34237D02*
Y33613D01*
Y33925D02*
X60844D01*
X60531Y34237*
D02*
D71*
X34752Y43048D02*
X39648D01*
X36000Y55252D02*
G75*
G03X38400I1200D01*
G01*
X39648D02*
X34752D01*
X40743Y47820D02*
Y50480D01*
X0Y0D02*
M02*
