G04 EasyPC Gerber Version 20.0.2 Build 4112 *
G04 #@! TF.Part,Single*
G04 #@! TF.FileFunction,Copper,L1,Top *
%FSLAX25Y25*%
%MOIN*%
G04 #@! TA.AperFunction,SMDPad*
%ADD18R,0.05200X0.02200*%
%ADD14R,0.03937X0.04291*%
%ADD12R,0.03940X0.04330*%
%ADD17R,0.04291X0.03937*%
%ADD13R,0.05906X0.03937*%
%ADD15R,0.04330X0.03940*%
%ADD16R,0.05000X0.08000*%
G04 #@! TD.AperFunction*
%ADD23C,0.01500*%
%ADD24C,0.02500*%
G04 #@! TA.AperFunction,ViaPad*
%ADD22C,0.04800*%
G04 #@! TA.AperFunction,WasherPad*
%ADD21C,0.06000*%
%ADD20C,0.08700*%
X0Y0D02*
D02*
D12*
X34400Y41050D03*
X38700Y16750D03*
X41400Y41050D03*
X45700Y16750D03*
X48500Y28950D03*
Y35450D03*
X48600Y41450D03*
X55500Y28950D03*
Y35450D03*
X55600Y41450D03*
D02*
D13*
X21903Y33046D03*
X41103D03*
D02*
D14*
X7500Y35950D03*
Y42950D03*
X7600Y23250D03*
Y30250D03*
X15400Y28350D03*
Y35350D03*
D02*
D15*
X14600Y41150D03*
Y48150D03*
X21300Y41150D03*
Y48150D03*
D02*
D16*
X22600Y7550D03*
X31400Y7450D03*
X40500Y7650D03*
D02*
D17*
X19300Y16550D03*
X25300Y22750D03*
X26300Y16550D03*
X32300Y22750D03*
D02*
D18*
X31801Y45410D03*
Y49150D03*
Y52890D03*
X42599Y45410D03*
Y52890D03*
D02*
D20*
X31500Y33050D03*
D02*
D21*
X10100Y16550D03*
X31500Y57850D03*
X53100Y16650D03*
D02*
D22*
X16000Y22950D03*
X16400Y11750D03*
X21000Y27350D03*
X26800Y49450D03*
X27200Y41350D03*
X31900Y16850D03*
X40600Y24550D03*
X47000Y22750D03*
X48500Y49050D03*
D02*
D23*
X7500Y35950D02*
X7700D01*
X7600Y30250D02*
X8400D01*
X11800Y25050*
Y21250*
X15300Y17750*
X19900*
X19300Y17150*
Y16550*
X7700Y30250D02*
X7600D01*
X15400Y28350D02*
X14100D01*
X11500Y30950*
Y37850*
X8300Y41050*
Y42150*
X7500Y42950*
X16400Y11750D02*
X18400D01*
X22600Y7550*
X18238Y22750D02*
X18038Y22950D01*
X16000*
X19400Y27550D02*
X19600Y27350D01*
X21000*
X21300Y48150D02*
Y47850D01*
X22104Y32946D02*
X21903D01*
Y33046*
X26300Y16550D02*
X31600D01*
X31900Y16850*
X31400Y7450D02*
X32100D01*
Y9350*
X31801Y45410D02*
Y45250D01*
X24500*
X21760Y47990*
X21300*
Y48150*
X31801Y49150D02*
X26800D01*
Y49450*
X31801Y52890D02*
X34760D01*
X38600Y49050*
X48500*
X38700Y16750D02*
X38300D01*
X41103Y33046D02*
Y32850D01*
X41100*
X42599Y53390D02*
Y52890D01*
X43801Y45249D02*
X42599D01*
Y45410*
X48500Y35350D02*
Y35450D01*
D02*
D24*
X7600Y23250D02*
X8300D01*
Y18350*
X10100Y16550*
X7700Y35950D02*
Y30250D01*
X14600Y48150D02*
Y51750D01*
X17300Y54450*
X23700*
X26300Y51850*
Y49450*
X26800*
X15400Y28350D02*
Y27550D01*
X19400*
X15400Y35350D02*
X14600Y36150D01*
Y41150*
X21300Y47850D02*
X14600Y41150D01*
X21903Y33046D02*
Y40547D01*
X21300Y41150*
X25300Y22750D02*
X18238D01*
X31500Y57850D02*
Y57050D01*
X38800*
X42600Y53250*
X42560Y53390*
X42599*
X32100Y9350D02*
X38800Y16050D01*
X38700*
Y16750*
X32300Y22750D02*
X32500D01*
Y22550*
X22104Y32946*
X34400Y41050D02*
X27500D01*
X27200Y41350*
X38300Y16750D02*
X32300Y22750D01*
X40500Y7650D02*
X42700D01*
X45700Y10650*
Y16750*
X41100Y32850D02*
X44204Y35350D01*
X48500*
X41400Y41050D02*
X45000D01*
Y44050*
X43801Y45249*
X45700Y16750D02*
X46400D01*
Y22850*
X46500Y22750*
X47000*
X48500Y28950D02*
X45000D01*
X40600Y24550*
X48600Y41450D02*
Y41050D01*
X41400*
X55500Y28950D02*
Y27250D01*
X50800Y22550*
X47200*
X47000Y22750*
X55500Y35450D02*
Y28950D01*
X55600Y41450D02*
Y44350D01*
X51300Y48650*
X48900*
X48500Y49050*
X0Y0D02*
M02*
