G04 EasyPC Gerber Version 20.0.2 Build 4112 *
G04 #@! TF.Part,Single*
G04 #@! TF.FileFunction,Soldermask,Top *
%FSLAX25Y25*%
%MOIN*%
G04 #@! TA.AperFunction,SMDPad*
%ADD75R,0.06200X0.03200*%
%ADD29R,0.04937X0.05291*%
%ADD27R,0.04940X0.05330*%
%ADD74R,0.05291X0.04937*%
%ADD28R,0.06906X0.04937*%
%ADD72R,0.05330X0.04940*%
%ADD73R,0.06000X0.09000*%
G04 #@! TA.AperFunction,WasherPad*
%ADD26C,0.07000*%
%ADD25C,0.09700*%
X0Y0D02*
D02*
D25*
X31500Y33050D03*
D02*
D26*
X10100Y16550D03*
X31500Y57850D03*
X53100Y16650D03*
D02*
D27*
X34400Y41050D03*
X38700Y16750D03*
X41400Y41050D03*
X45700Y16750D03*
X48500Y28950D03*
Y35450D03*
X48600Y41450D03*
X55500Y28950D03*
Y35450D03*
X55600Y41450D03*
D02*
D28*
X21903Y33046D03*
X41103D03*
D02*
D29*
X7500Y35950D03*
Y42950D03*
X7600Y23250D03*
Y30250D03*
X15400Y28350D03*
Y35350D03*
D02*
D72*
X14600Y41150D03*
Y48150D03*
X21300Y41150D03*
Y48150D03*
D02*
D73*
X22600Y7550D03*
X31400Y7450D03*
X40500Y7650D03*
D02*
D74*
X19300Y16550D03*
X25300Y22750D03*
X26300Y16550D03*
X32300Y22750D03*
D02*
D75*
X31801Y45410D03*
Y49150D03*
Y52890D03*
X42599Y45410D03*
Y52890D03*
X0Y0D02*
M02*
