G04 #@! TF.GenerationSoftware,KiCad,Pcbnew,10.0.5*
G04 #@! TF.CreationDate,2026-09-09T16:58:03-04:00*
G04 #@! TF.ProjectId,PulseSensor-JST-Educational,50756c73-6553-4656-9e73-6f722d4a5354,rev?*
G04 #@! TF.SameCoordinates,Original*
G04 #@! TF.FileFunction,Legend,Bot*
G04 #@! TF.FilePolarity,Positive*
%FSLAX46Y46*%
G04 Gerber Fmt 4.6, Leading zero omitted, Abs format (unit mm)*
G04 Created by KiCad (PCBNEW 10.0.5) date 2026-09-09 16:58:03*
%MOMM*%
%LPD*%
G01*
G04 APERTURE LIST*
G04 Aperture macros list*
%AMRoundRect*
0 Rectangle with rounded corners*
0 $1 Rounding radius*
0 $2 $3 $4 $5 $6 $7 $8 $9 X,Y pos of 4 corners*
0 Add a 4 corners polygon primitive as box body*
4,1,4,$2,$3,$4,$5,$6,$7,$8,$9,$2,$3,0*
0 Add four circle primitives for the rounded corners*
1,1,$1+$1,$2,$3*
1,1,$1+$1,$4,$5*
1,1,$1+$1,$6,$7*
1,1,$1+$1,$8,$9*
0 Add four rect primitives between the rounded corners*
20,1,$1+$1,$2,$3,$4,$5,0*
20,1,$1+$1,$4,$5,$6,$7,0*
20,1,$1+$1,$6,$7,$8,$9,0*
20,1,$1+$1,$8,$9,$2,$3,0*%
G04 Aperture macros list end*
%ADD10C,0.000000*%
%ADD11C,0.150000*%
%ADD12C,2.159000*%
%ADD13RoundRect,0.080000X0.120000X0.120000X-0.120000X0.120000X-0.120000X-0.120000X0.120000X-0.120000X0*%
%ADD14RoundRect,0.050000X0.050000X0.150000X-0.050000X0.150000X-0.050000X-0.150000X0.050000X-0.150000X0*%
G04 APERTURE END LIST*
D10*
G36*
X10987500Y12875700D02*
G01*
X11248500Y12846900D01*
X11507900Y12797200D01*
X11763200Y12726800D01*
X12011900Y12636300D01*
X12251600Y12526600D01*
X12479700Y12398500D01*
X12694100Y12253400D01*
X12892500Y12092600D01*
X13072800Y11917500D01*
X13233100Y11729800D01*
X13371800Y11531000D01*
X13487400Y11322700D01*
X13578600Y11106700D01*
X13644400Y10884500D01*
X13684200Y10657600D01*
X13697500Y10427500D01*
X13684200Y10195400D01*
X13644400Y9962700D01*
X13578600Y9730200D01*
X13487400Y9498900D01*
X13371800Y9269600D01*
X13233100Y9042900D01*
X13072800Y8819200D01*
X12892500Y8598800D01*
X12694100Y8381800D01*
X12479700Y8168500D01*
X12251600Y7958700D01*
X12011900Y7752400D01*
X11763200Y7549400D01*
X11507900Y7349600D01*
X11248500Y7152800D01*
X10987500Y6958800D01*
X10727200Y6767600D01*
X10470100Y6578900D01*
X10218300Y6392800D01*
X9974000Y6209500D01*
X9739100Y6028900D01*
X9515300Y5851500D01*
X9304300Y5677500D01*
X9107200Y5507400D01*
X8925200Y5341800D01*
X8900200Y5317628D01*
X8900200Y7020600D01*
X7305200Y7020600D01*
X7305200Y7264679D01*
X7352968Y7237618D01*
X7407331Y7210254D01*
X7462972Y7185590D01*
X7519756Y7163686D01*
X7577547Y7144594D01*
X7636204Y7128362D01*
X7695588Y7115027D01*
X7755554Y7104622D01*
X7815958Y7097171D01*
X7876656Y7092694D01*
X7937500Y7091200D01*
X7998343Y7092694D01*
X8059041Y7097171D01*
X8119445Y7104622D01*
X8179411Y7115027D01*
X8238795Y7128362D01*
X8297452Y7144594D01*
X8355243Y7163686D01*
X8412027Y7185590D01*
X8467668Y7210254D01*
X8522031Y7237618D01*
X8574987Y7267617D01*
X8626407Y7300178D01*
X8676167Y7335223D01*
X8724147Y7372668D01*
X8770233Y7412421D01*
X8814312Y7454388D01*
X8856279Y7498467D01*
X8896032Y7544553D01*
X8933477Y7592533D01*
X8968522Y7642293D01*
X9001083Y7693713D01*
X9031082Y7746669D01*
X9058446Y7801032D01*
X9083110Y7856673D01*
X9105014Y7913457D01*
X9124106Y7971248D01*
X9140338Y8029905D01*
X9153673Y8089289D01*
X9164078Y8149255D01*
X9171529Y8209659D01*
X9176006Y8270357D01*
X9177500Y8331200D01*
X9176006Y8392044D01*
X9171529Y8452742D01*
X9164078Y8513146D01*
X9153673Y8573112D01*
X9140338Y8632496D01*
X9124106Y8691153D01*
X9105014Y8748944D01*
X9083110Y8805728D01*
X9058446Y8861369D01*
X9031082Y8915732D01*
X9001083Y8968688D01*
X8968522Y9020108D01*
X8933477Y9069868D01*
X8896032Y9117848D01*
X8856279Y9163934D01*
X8814312Y9208013D01*
X8770233Y9249980D01*
X8724147Y9289733D01*
X8676167Y9327178D01*
X8626407Y9362223D01*
X8574987Y9394784D01*
X8522031Y9424783D01*
X8467668Y9452147D01*
X8412027Y9476811D01*
X8355243Y9498715D01*
X8297452Y9517807D01*
X8238795Y9534039D01*
X8179411Y9547374D01*
X8119445Y9557779D01*
X8059041Y9565230D01*
X7998343Y9569707D01*
X7937500Y9571200D01*
X7876656Y9569707D01*
X7815958Y9565230D01*
X7755554Y9557779D01*
X7695588Y9547374D01*
X7636204Y9534039D01*
X7577547Y9517807D01*
X7519756Y9498715D01*
X7462972Y9476811D01*
X7407331Y9452147D01*
X7352968Y9424783D01*
X7300012Y9394784D01*
X7248592Y9362223D01*
X7198832Y9327178D01*
X7150852Y9289733D01*
X7104766Y9249980D01*
X7060687Y9208013D01*
X7018720Y9163934D01*
X6978967Y9117848D01*
X6941522Y9069868D01*
X6906477Y9020108D01*
X6873916Y8968688D01*
X6843917Y8915732D01*
X6816553Y8861369D01*
X6791889Y8805728D01*
X6769985Y8748944D01*
X6750893Y8691153D01*
X6734661Y8632496D01*
X6721326Y8573112D01*
X6710921Y8513146D01*
X6703470Y8452742D01*
X6698993Y8392044D01*
X6697500Y8331200D01*
X6698993Y8270357D01*
X6703470Y8209659D01*
X6710921Y8149255D01*
X6721326Y8089289D01*
X6734661Y8029905D01*
X6750893Y7971248D01*
X6769985Y7913457D01*
X6791889Y7856673D01*
X6816553Y7801032D01*
X6843917Y7746669D01*
X6873916Y7693713D01*
X6906477Y7642293D01*
X6941522Y7592533D01*
X6978967Y7544553D01*
X7018720Y7498467D01*
X7060687Y7454388D01*
X7104766Y7412421D01*
X7150852Y7372668D01*
X7198832Y7335223D01*
X7248592Y7300178D01*
X7255822Y7295600D01*
X6655200Y7295600D01*
X6655200Y6645600D01*
X7000200Y6645600D01*
X7000200Y5293069D01*
X6949800Y5341800D01*
X6767800Y5507400D01*
X6570700Y5677500D01*
X6359700Y5851500D01*
X6135900Y6028900D01*
X5901000Y6209500D01*
X5656700Y6392800D01*
X5404900Y6578900D01*
X5147800Y6767600D01*
X4887500Y6958800D01*
X4626500Y7152800D01*
X4367100Y7349600D01*
X4111800Y7549400D01*
X3863100Y7752400D01*
X3623400Y7958700D01*
X3395300Y8168500D01*
X3180900Y8381800D01*
X2982500Y8598800D01*
X2802200Y8819200D01*
X2641900Y9042900D01*
X2503200Y9269600D01*
X2387600Y9498900D01*
X2296400Y9730200D01*
X2230600Y9962700D01*
X2190800Y10195400D01*
X2177500Y10427500D01*
X2190800Y10657600D01*
X2230600Y10884500D01*
X2296400Y11106700D01*
X2387600Y11322700D01*
X2503200Y11531000D01*
X2641900Y11729800D01*
X2802200Y11917500D01*
X2982500Y12092600D01*
X3180900Y12253400D01*
X3395300Y12398500D01*
X3623400Y12526600D01*
X3863100Y12636300D01*
X4111800Y12726800D01*
X4367100Y12797200D01*
X4626500Y12846900D01*
X4887500Y12875700D01*
X5147800Y12883500D01*
X5404900Y12870700D01*
X5656700Y12837800D01*
X5901000Y12785500D01*
X6135900Y12715200D01*
X6359700Y12628200D01*
X6570700Y12526300D01*
X6767800Y12411200D01*
X6949800Y12285300D01*
X7115900Y12150800D01*
X7265500Y12010200D01*
X7398500Y11866000D01*
X7514800Y11720900D01*
X7614700Y11577500D01*
X7698700Y11438300D01*
X7767500Y11306100D01*
X7822300Y11183000D01*
X7864200Y11071400D01*
X7894700Y10973300D01*
X7915400Y10890500D01*
X7928100Y10824500D01*
X7934700Y10776500D01*
X7937200Y10747300D01*
X7937500Y10737500D01*
X7937800Y10747300D01*
X7940300Y10776500D01*
X7946900Y10824500D01*
X7959600Y10890500D01*
X7980300Y10973300D01*
X8010800Y11071400D01*
X8052700Y11183000D01*
X8107500Y11306100D01*
X8176300Y11438300D01*
X8260300Y11577500D01*
X8360200Y11720900D01*
X8476500Y11866000D01*
X8609500Y12010200D01*
X8759100Y12150800D01*
X8925200Y12285300D01*
X9107200Y12411200D01*
X9304300Y12526300D01*
X9515300Y12628200D01*
X9739100Y12715200D01*
X9974000Y12785500D01*
X10218300Y12837800D01*
X10470100Y12870700D01*
X10727200Y12883500D01*
X10987500Y12875700D01*
G37*
G36*
X8609500Y5026500D02*
G01*
X8476500Y4878500D01*
X8401281Y4787500D01*
X8361601Y4739495D01*
X8358875Y4736045D01*
X8261745Y4607414D01*
X8258948Y4603519D01*
X8177763Y4484543D01*
X8174951Y4480184D01*
X8108328Y4370760D01*
X8097390Y4354622D01*
X8084933Y4339626D01*
X8071076Y4325914D01*
X8055949Y4313617D01*
X8039696Y4302850D01*
X8022473Y4293717D01*
X8004442Y4286304D01*
X7985775Y4280682D01*
X7966650Y4276904D01*
X7947248Y4275006D01*
X7927752Y4275006D01*
X7908350Y4276904D01*
X7889225Y4280682D01*
X7870558Y4286304D01*
X7852527Y4293717D01*
X7835304Y4302850D01*
X7819051Y4313617D01*
X7803924Y4325914D01*
X7790067Y4339626D01*
X7777610Y4354622D01*
X7766672Y4370760D01*
X7700049Y4480184D01*
X7697237Y4484543D01*
X7616052Y4603519D01*
X7613255Y4607414D01*
X7516125Y4736045D01*
X7513399Y4739495D01*
X7473719Y4787500D01*
X7398500Y4878500D01*
X7265500Y5026500D01*
X7174502Y5120600D01*
X8700498Y5120600D01*
X8609500Y5026500D01*
G37*
G36*
X1711096Y9368706D02*
G01*
X1742461Y9366231D01*
X1772311Y9363350D01*
X1800645Y9360062D01*
X1827464Y9356369D01*
X1852768Y9352270D01*
X1876556Y9347764D01*
X1898828Y9342852D01*
X1919585Y9337535D01*
X1938827Y9331811D01*
X1956553Y9325681D01*
X1972764Y9319145D01*
X1987459Y9312203D01*
X2005886Y9302041D01*
X2023479Y9291212D01*
X2040237Y9279717D01*
X2056161Y9267555D01*
X2071249Y9254726D01*
X2085503Y9241231D01*
X2098922Y9227070D01*
X2111506Y9212241D01*
X2123256Y9196746D01*
X2134170Y9180584D01*
X2144250Y9163756D01*
X2153495Y9146261D01*
X2161882Y9128145D01*
X2169388Y9109455D01*
X2176012Y9090190D01*
X2181755Y9070349D01*
X2186617Y9049934D01*
X2190597Y9028944D01*
X2193696Y9007380D01*
X2195913Y8985240D01*
X2197249Y8962526D01*
X2197703Y8939236D01*
X2197277Y8915372D01*
X2195968Y8890933D01*
X2194230Y8871613D01*
X2191766Y8852539D01*
X2188576Y8833712D01*
X2184660Y8815130D01*
X2180018Y8796794D01*
X2174650Y8778704D01*
X2168556Y8760861D01*
X2161736Y8743263D01*
X2154190Y8725911D01*
X2145918Y8708806D01*
X2136920Y8691946D01*
X2127196Y8675333D01*
X2116737Y8658966D01*
X2105535Y8642847D01*
X2093589Y8626974D01*
X2080900Y8611349D01*
X2067467Y8595972D01*
X2053290Y8580841D01*
X2038370Y8565958D01*
X2022706Y8551323D01*
X2006299Y8536934D01*
X1989148Y8522793D01*
X1971253Y8508899D01*
X1952615Y8495252D01*
X1969466Y8483627D01*
X1985525Y8471579D01*
X2000794Y8459109D01*
X2015272Y8446218D01*
X2028959Y8432904D01*
X2041855Y8419169D01*
X2053960Y8405012D01*
X2065274Y8390432D01*
X2075798Y8375431D01*
X2085530Y8360008D01*
X2094471Y8344163D01*
X2102622Y8327896D01*
X2109990Y8311206D01*
X2116585Y8294093D01*
X2122407Y8276557D01*
X2127456Y8258598D01*
X2131731Y8240216D01*
X2135233Y8221410D01*
X2137961Y8202181D01*
X2139916Y8182529D01*
X2141098Y8162454D01*
X2141507Y8141956D01*
X2141142Y8121034D01*
X2140004Y8099690D01*
X2135679Y8059685D01*
X2128444Y8020824D01*
X2118298Y7983107D01*
X2105242Y7946535D01*
X2089276Y7911106D01*
X2070399Y7876821D01*
X2048612Y7843679D01*
X2023915Y7811682D01*
X1996307Y7780829D01*
X1965790Y7751119D01*
X1932361Y7722554D01*
X1896023Y7695132D01*
X2079886Y7682128D01*
X2056657Y7353711D01*
X710021Y7448958D01*
X735223Y7805271D01*
X1389521Y7758993D01*
X1421103Y7756958D01*
X1451181Y7755428D01*
X1479755Y7754403D01*
X1506825Y7753882D01*
X1532391Y7753866D01*
X1556453Y7754354D01*
X1579010Y7755347D01*
X1600063Y7756845D01*
X1619612Y7758847D01*
X1637657Y7761354D01*
X1654198Y7764366D01*
X1669235Y7767882D01*
X1683265Y7771930D01*
X1696785Y7776535D01*
X1709797Y7781699D01*
X1722299Y7787421D01*
X1734292Y7793702D01*
X1745776Y7800540D01*
X1756751Y7807936D01*
X1767216Y7815891D01*
X1777173Y7824404D01*
X1786620Y7833475D01*
X1795557Y7843104D01*
X1803986Y7853291D01*
X1811860Y7863894D01*
X1819134Y7874769D01*
X1825807Y7885917D01*
X1831881Y7897337D01*
X1837354Y7909030D01*
X1842227Y7920995D01*
X1846499Y7933233D01*
X1850172Y7945743D01*
X1853244Y7958526D01*
X1855716Y7971582D01*
X1857588Y7984910D01*
X1858860Y7998510D01*
X1859459Y8009738D01*
X1859643Y8020597D01*
X1859412Y8031087D01*
X1858765Y8041208D01*
X1857702Y8050961D01*
X1856225Y8060344D01*
X1854331Y8069359D01*
X1852022Y8078004D01*
X1849298Y8086281D01*
X1846158Y8094190D01*
X1842603Y8101729D01*
X1838632Y8108899D01*
X1834240Y8115754D01*
X1829423Y8122347D01*
X1824181Y8128678D01*
X1818513Y8134747D01*
X1812419Y8140555D01*
X1805899Y8146100D01*
X1798954Y8151383D01*
X1791584Y8156405D01*
X1783787Y8161164D01*
X1775566Y8165662D01*
X1766918Y8169897D01*
X1757845Y8173871D01*
X1747581Y8177650D01*
X1735361Y8181302D01*
X1721185Y8184827D01*
X1705054Y8188225D01*
X1686966Y8191495D01*
X1666923Y8194638D01*
X1644923Y8197655D01*
X1620968Y8200544D01*
X1595056Y8203306D01*
X1567189Y8205940D01*
X1537366Y8208448D01*
X1505587Y8210828D01*
X767600Y8263026D01*
X792801Y8619339D01*
X1439491Y8573599D01*
X1470497Y8571610D01*
X1500114Y8570125D01*
X1528342Y8569147D01*
X1555180Y8568673D01*
X1580630Y8568705D01*
X1604691Y8569242D01*
X1627362Y8570285D01*
X1648645Y8571833D01*
X1668538Y8573886D01*
X1687042Y8576444D01*
X1704158Y8579508D01*
X1719884Y8583077D01*
X1734639Y8587176D01*
X1748839Y8591826D01*
X1762487Y8597029D01*
X1775580Y8602785D01*
X1788119Y8609093D01*
X1800104Y8615953D01*
X1811536Y8623366D01*
X1822414Y8631331D01*
X1832738Y8639849D01*
X1842508Y8648919D01*
X1851724Y8658542D01*
X1860386Y8668717D01*
X1868459Y8679252D01*
X1875906Y8689956D01*
X1882729Y8700828D01*
X1888926Y8711867D01*
X1894497Y8723075D01*
X1899443Y8734451D01*
X1903764Y8745996D01*
X1907460Y8757708D01*
X1910531Y8769588D01*
X1912976Y8781637D01*
X1914796Y8793854D01*
X1915990Y8806238D01*
X1916646Y8823024D01*
X1916194Y8839145D01*
X1914632Y8854601D01*
X1911961Y8869392D01*
X1908181Y8883518D01*
X1903293Y8896979D01*
X1897295Y8909775D01*
X1890188Y8921906D01*
X1881973Y8933373D01*
X1872648Y8944174D01*
X1862214Y8954310D01*
X1850671Y8963782D01*
X1840379Y8970412D01*
X1828078Y8976672D01*
X1813769Y8982560D01*
X1797451Y8988077D01*
X1779124Y8993223D01*
X1758789Y8997998D01*
X1736445Y9002401D01*
X1712092Y9006434D01*
X1685731Y9010095D01*
X1657362Y9013384D01*
X1626983Y9016303D01*
X1594596Y9018850D01*
X824909Y9073290D01*
X850111Y9429603D01*
X1711096Y9368706D01*
G37*
G36*
X2103067Y5769453D02*
G01*
X2078734Y5751167D01*
X1894058Y6055071D01*
X2103067Y5769453D01*
G37*
G36*
X2150351Y5809440D02*
G01*
X2126939Y5788877D01*
X1916071Y6069689D01*
X2150351Y5809440D01*
G37*
G36*
X2194086Y5853120D02*
G01*
X2172876Y5830926D01*
X1936485Y6085258D01*
X2194086Y5853120D01*
G37*
G36*
X2232561Y5899627D02*
G01*
X2213981Y5876020D01*
X1972521Y6119256D01*
X2232561Y5899627D01*
G37*
G36*
X2249826Y5923942D02*
G01*
X2232561Y5899627D01*
X1972521Y6119256D01*
X2249826Y5923942D01*
G37*
G36*
X2325804Y6084676D02*
G01*
X2025435Y6197229D01*
X2034683Y6217648D01*
X2325804Y6084676D01*
G37*
G36*
X2333865Y6113940D02*
G01*
X2325804Y6084676D01*
X2034683Y6217648D01*
X2333865Y6113940D01*
G37*
G36*
X2346051Y6173569D02*
G01*
X2340613Y6143656D01*
X2042340Y6238292D01*
X2346051Y6173569D01*
G37*
G36*
X2352998Y6233989D02*
G01*
X2350180Y6203680D01*
X2048407Y6259161D01*
X2352998Y6233989D01*
G37*
G36*
X2352998Y6233989D02*
G01*
X2048407Y6259161D01*
X2052882Y6280254D01*
X2352998Y6233989D01*
G37*
G36*
X2354704Y6295198D02*
G01*
X2055767Y6301573D01*
X2057060Y6323116D01*
X2354704Y6295198D01*
G37*
G36*
X2353592Y6326099D02*
G01*
X2057060Y6323116D01*
X2351170Y6357197D01*
X2353592Y6326099D01*
G37*
G36*
X2351170Y6357197D02*
G01*
X2056763Y6344884D01*
X2347437Y6388493D01*
X2351170Y6357197D01*
G37*
G36*
X2046327Y6411538D02*
G01*
X2039823Y6433603D01*
X2328380Y6483566D01*
X2046327Y6411538D01*
G37*
G36*
X2012647Y6493919D02*
G01*
X2001033Y6512065D01*
X2258681Y6663775D01*
X2012647Y6493919D01*
G37*
G36*
X1988141Y6529231D02*
G01*
X1973972Y6545417D01*
X2210106Y6740787D01*
X1988141Y6529231D01*
G37*
G36*
X2210106Y6740787D02*
G01*
X1973972Y6545417D01*
X2182387Y6776021D01*
X2210106Y6740787D01*
G37*
G36*
X2182387Y6776021D02*
G01*
X1941800Y6574850D01*
X2152381Y6809072D01*
X2182387Y6776021D01*
G37*
G36*
X2152381Y6809072D02*
G01*
X1923798Y6588097D01*
X2120087Y6839942D01*
X2152381Y6809072D01*
G37*
G36*
X2085505Y6868629D02*
G01*
X1883961Y6611651D01*
X2048636Y6895135D01*
X2085505Y6868629D01*
G37*
G36*
X2009479Y6919459D02*
G01*
X1862316Y6621652D01*
X1968816Y6941193D01*
X2009479Y6919459D01*
G37*
G36*
X1798908Y6998148D02*
G01*
X1740599Y6647762D01*
X1754617Y7004892D01*
X1798908Y6998148D01*
G37*
G36*
X1842473Y6988406D02*
G01*
X1766741Y6645726D01*
X1798908Y6998148D01*
X1842473Y6988406D01*
G37*
G36*
X1885313Y6975667D02*
G01*
X1791983Y6642097D01*
X1842473Y6988406D01*
X1885313Y6975667D01*
G37*
G36*
X1656777Y6644314D02*
G01*
X1617393Y7007136D01*
X1663860Y7009386D01*
X1656777Y6644314D01*
G37*
G36*
X1627038Y6639978D02*
G01*
X1522283Y6993642D01*
X1570201Y7001888D01*
X1627038Y6639978D01*
G37*
G36*
X1397352Y6558508D02*
G01*
X1375138Y6543898D01*
X1179192Y6836334D01*
X1397352Y6558508D01*
G37*
G36*
X1302575Y6476103D02*
G01*
X1031891Y6663288D01*
X1057150Y6702478D01*
X1302575Y6476103D01*
G37*
G36*
X1354552Y6528352D02*
G01*
X1113970Y6773987D01*
X1145531Y6806306D01*
X1354552Y6528352D01*
G37*
G36*
X1335597Y6511871D02*
G01*
X1084510Y6739378D01*
X1113970Y6773987D01*
X1335597Y6511871D01*
G37*
G36*
X1335597Y6511871D02*
G01*
X1318271Y6494455D01*
X1084510Y6739378D01*
X1335597Y6511871D01*
G37*
G36*
X1318271Y6494455D02*
G01*
X1302575Y6476103D01*
X1057150Y6702478D01*
X1318271Y6494455D01*
G37*
G36*
X1276054Y6436945D02*
G01*
X1265191Y6416841D01*
X989605Y6581274D01*
X1276054Y6436945D01*
G37*
G36*
X1248246Y6375931D02*
G01*
X949171Y6453220D01*
X959583Y6496576D01*
X1248246Y6375931D01*
G37*
G36*
X1242163Y6355126D02*
G01*
X941825Y6409192D01*
X949171Y6453220D01*
X1242163Y6355126D01*
G37*
G36*
X1237674Y6334088D02*
G01*
X937546Y6364493D01*
X941825Y6409192D01*
X1237674Y6334088D01*
G37*
G36*
X1233473Y6291312D02*
G01*
X938184Y6273082D01*
X936332Y6319123D01*
X1233473Y6291312D01*
G37*
G36*
X951086Y6178986D02*
G01*
X943102Y6226369D01*
X1235645Y6247602D01*
X951086Y6178986D01*
G37*
G36*
X990294Y6043478D02*
G01*
X979840Y6072105D01*
X1258478Y6159791D01*
X990294Y6043478D01*
G37*
G36*
X1014405Y5987796D02*
G01*
X1001815Y6015375D01*
X1267542Y6139664D01*
X1014405Y5987796D01*
G37*
G36*
X1028062Y5960741D02*
G01*
X1014405Y5987796D01*
X1277887Y6120509D01*
X1028062Y5960741D01*
G37*
G36*
X1042787Y5934210D02*
G01*
X1028062Y5960741D01*
X1289511Y6102325D01*
X1042787Y5934210D01*
G37*
G36*
X1075440Y5882719D02*
G01*
X1058579Y5908203D01*
X1302415Y6085111D01*
X1075440Y5882719D01*
G37*
G36*
X1132428Y5809413D02*
G01*
X1112364Y5833324D01*
X1348805Y6039300D01*
X1132428Y5809413D01*
G37*
G36*
X1153410Y5786442D02*
G01*
X1132428Y5809413D01*
X1348805Y6039300D01*
X1153410Y5786442D01*
G37*
G36*
X1197680Y5744576D02*
G01*
X1175160Y5764830D01*
X1386131Y6013615D01*
X1197680Y5744576D01*
G37*
G36*
X1220968Y5725681D02*
G01*
X1197680Y5744576D01*
X1386131Y6013615D01*
X1220968Y5725681D01*
G37*
G36*
X1233762Y6269574D02*
G01*
X938184Y6273082D01*
X1233473Y6291312D01*
X1233762Y6269574D01*
G37*
G36*
X1495875Y5611565D02*
G01*
X1465090Y5616777D01*
X1524468Y5967861D01*
X1495875Y5611565D01*
G37*
G36*
X1550812Y5965818D02*
G01*
X1495875Y5611565D01*
X1524468Y5967861D01*
X1550812Y5965818D01*
G37*
G36*
X1578088Y5965385D02*
G01*
X1559370Y5605419D01*
X1550812Y5965818D01*
X1578088Y5965385D01*
G37*
G36*
X1625432Y5604975D02*
G01*
X1592080Y5604484D01*
X1606294Y5966563D01*
X1625432Y5604975D01*
G37*
G36*
X1659426Y5606891D02*
G01*
X1606294Y5966563D01*
X1635432Y5969351D01*
X1659426Y5606891D01*
G37*
G36*
X1694061Y5610233D02*
G01*
X1635432Y5969351D01*
X1665501Y5973749D01*
X1694061Y5610233D01*
G37*
G36*
X1765257Y5621193D02*
G01*
X1729338Y5615000D01*
X1696502Y5979758D01*
X1765257Y5621193D01*
G37*
G36*
X1801818Y5628812D02*
G01*
X1696502Y5979758D01*
X1728433Y5987377D01*
X1801818Y5628812D01*
G37*
G36*
X1867497Y5645890D02*
G01*
X1839021Y5637856D01*
X1760032Y5996277D01*
X1867497Y5645890D01*
G37*
G36*
X1923068Y5665376D02*
G01*
X1895513Y5655064D01*
X1790033Y6006131D01*
X1923068Y5665376D01*
G37*
G36*
X1976798Y5689417D02*
G01*
X1950163Y5676827D01*
X1818436Y6016937D01*
X1976798Y5689417D01*
G37*
G36*
X1950163Y5676827D02*
G01*
X1790033Y6006131D01*
X1818436Y6016937D01*
X1950163Y5676827D01*
G37*
G36*
X2002973Y5703146D02*
G01*
X1976798Y5689417D01*
X1845241Y6028696D01*
X2002973Y5703146D01*
G37*
G36*
X2053940Y5734021D02*
G01*
X2028687Y5718014D01*
X1870449Y6041407D01*
X2053940Y5734021D01*
G37*
G36*
X2172876Y5830926D02*
G01*
X2150351Y5809440D01*
X1936485Y6085258D01*
X2172876Y5830926D01*
G37*
G36*
X2213981Y5876020D02*
G01*
X2194086Y5853120D01*
X1955302Y6101781D01*
X2213981Y5876020D01*
G37*
G36*
X2325804Y6084676D02*
G01*
X2316428Y6056120D01*
X2025435Y6197229D01*
X2325804Y6084676D01*
G37*
G36*
X2350180Y6203680D02*
G01*
X2346051Y6173569D01*
X2048407Y6259161D01*
X2350180Y6203680D01*
G37*
G36*
X2354704Y6295198D02*
G01*
X2354506Y6264495D01*
X2055767Y6301573D01*
X2354704Y6295198D01*
G37*
G36*
X2057060Y6323116D02*
G01*
X2056763Y6344884D01*
X2351170Y6357197D01*
X2057060Y6323116D01*
G37*
G36*
X2328380Y6483566D02*
G01*
X2039823Y6433603D01*
X2314387Y6531891D01*
X2328380Y6483566D01*
G37*
G36*
X2235537Y6703372D02*
G01*
X1988141Y6529231D01*
X2210106Y6740787D01*
X2235537Y6703372D01*
G37*
G36*
X2120087Y6839942D02*
G01*
X1904519Y6600364D01*
X2085505Y6868629D01*
X2120087Y6839942D01*
G37*
G36*
X2048636Y6895135D02*
G01*
X1862316Y6621652D01*
X2009479Y6919459D01*
X2048636Y6895135D01*
G37*
G36*
X1791983Y6642097D02*
G01*
X1766741Y6645726D01*
X1842473Y6988406D01*
X1791983Y6642097D01*
G37*
G36*
X1709601Y7008638D02*
G01*
X1685617Y6647056D01*
X1663860Y7009386D01*
X1709601Y7008638D01*
G37*
G36*
X1596400Y6634050D02*
G01*
X1473640Y6982398D01*
X1522283Y6993642D01*
X1596400Y6634050D01*
G37*
G36*
X1375138Y6543898D02*
G01*
X1354552Y6528352D01*
X1145531Y6806306D01*
X1375138Y6543898D01*
G37*
G36*
X1318271Y6494455D02*
G01*
X1057150Y6702478D01*
X1084510Y6739378D01*
X1318271Y6494455D01*
G37*
G36*
X1288509Y6456816D02*
G01*
X1276054Y6436945D01*
X1009215Y6622617D01*
X1288509Y6456816D01*
G37*
G36*
X1255922Y6396503D02*
G01*
X959583Y6496576D01*
X973061Y6539261D01*
X1255922Y6396503D01*
G37*
G36*
X1234777Y6312817D02*
G01*
X936332Y6319123D01*
X937546Y6364493D01*
X1234777Y6312817D01*
G37*
G36*
X962136Y6130930D02*
G01*
X951086Y6178986D01*
X1239120Y6225397D01*
X962136Y6130930D01*
G37*
G36*
X1001815Y6015375D02*
G01*
X990294Y6043478D01*
X1267542Y6139664D01*
X1001815Y6015375D01*
G37*
G36*
X1058579Y5908203D02*
G01*
X1042787Y5934210D01*
X1302415Y6085111D01*
X1058579Y5908203D01*
G37*
G36*
X970454Y6101256D02*
G01*
X962136Y6130930D01*
X1244188Y6202959D01*
X970454Y6101256D01*
G37*
G36*
X1175160Y5764830D02*
G01*
X1153410Y5786442D01*
X1366828Y6025972D01*
X1175160Y5764830D01*
G37*
G36*
X1235645Y6247602D02*
G01*
X943102Y6226369D01*
X1233762Y6269574D01*
X1235645Y6247602D01*
G37*
G36*
X1527302Y5607779D02*
G01*
X1495875Y5611565D01*
X1550812Y5965818D01*
X1527302Y5607779D01*
G37*
G36*
X1592080Y5604484D02*
G01*
X1578088Y5965385D01*
X1606294Y5966563D01*
X1592080Y5604484D01*
G37*
G36*
X1694061Y5610233D02*
G01*
X1659426Y5606891D01*
X1635432Y5969351D01*
X1694061Y5610233D01*
G37*
G36*
X1801818Y5628812D02*
G01*
X1765257Y5621193D01*
X1696502Y5979758D01*
X1801818Y5628812D01*
G37*
G36*
X1895513Y5655064D02*
G01*
X1867497Y5645890D01*
X1760032Y5996277D01*
X1895513Y5655064D01*
G37*
G36*
X1950163Y5676827D02*
G01*
X1923068Y5665376D01*
X1790033Y6006131D01*
X1950163Y5676827D01*
G37*
G36*
X2028687Y5718014D02*
G01*
X2002973Y5703146D01*
X1845241Y6028696D01*
X2028687Y5718014D01*
G37*
G36*
X2126939Y5788877D02*
G01*
X2103067Y5769453D01*
X1916071Y6069689D01*
X2126939Y5788877D01*
G37*
G36*
X2340613Y6143656D02*
G01*
X2034683Y6217648D01*
X2042340Y6238292D01*
X2340613Y6143656D01*
G37*
G36*
X2354704Y6295198D02*
G01*
X2057060Y6323116D01*
X2353592Y6326099D01*
X2354704Y6295198D01*
G37*
G36*
X2022983Y6474794D02*
G01*
X2012647Y6493919D01*
X2279537Y6621995D01*
X2022983Y6474794D01*
G37*
G36*
X1973972Y6545417D02*
G01*
X1958525Y6560624D01*
X2182387Y6776021D01*
X1973972Y6545417D01*
G37*
G36*
X1754617Y7004892D02*
G01*
X1713558Y6648206D01*
X1709601Y7008638D01*
X1754617Y7004892D01*
G37*
G36*
X1397352Y6558508D02*
G01*
X1179192Y6836334D01*
X1214955Y6864072D01*
X1397352Y6558508D01*
G37*
G36*
X1354552Y6528352D02*
G01*
X1335597Y6511871D01*
X1113970Y6773987D01*
X1354552Y6528352D01*
G37*
G36*
X1265191Y6416841D02*
G01*
X973061Y6539261D01*
X989605Y6581274D01*
X1265191Y6416841D01*
G37*
G36*
X1093368Y5857760D02*
G01*
X1075440Y5882719D01*
X1316598Y6068870D01*
X1093368Y5857760D01*
G37*
G36*
X979840Y6072105D02*
G01*
X970454Y6101256D01*
X1250693Y6180889D01*
X979840Y6072105D01*
G37*
G36*
X1234777Y6312817D02*
G01*
X1233473Y6291312D01*
X936332Y6319123D01*
X1234777Y6312817D01*
G37*
G36*
X1239120Y6225397D02*
G01*
X951086Y6178986D01*
X1235645Y6247602D01*
X1239120Y6225397D01*
G37*
G36*
X1559370Y5605419D02*
G01*
X1527302Y5607779D01*
X1550812Y5965818D01*
X1559370Y5605419D01*
G37*
G36*
X1729338Y5615000D02*
G01*
X1665501Y5973749D01*
X1696502Y5979758D01*
X1729338Y5615000D01*
G37*
G36*
X2078734Y5751167D02*
G01*
X1870449Y6041407D01*
X1894058Y6055071D01*
X2078734Y5751167D01*
G37*
G36*
X2078734Y5751167D02*
G01*
X2053940Y5734021D01*
X1870449Y6041407D01*
X2078734Y5751167D01*
G37*
G36*
X2354506Y6264495D02*
G01*
X2052882Y6280254D01*
X2055767Y6301573D01*
X2354506Y6264495D01*
G37*
G36*
X2314387Y6531891D02*
G01*
X2032042Y6454688D01*
X2298106Y6578034D01*
X2314387Y6531891D01*
G37*
G36*
X1627038Y6639978D02*
G01*
X1570201Y7001888D01*
X1617393Y7007136D01*
X1627038Y6639978D01*
G37*
G36*
X1302575Y6476103D02*
G01*
X1288509Y6456816D01*
X1009215Y6622617D01*
X1302575Y6476103D01*
G37*
G36*
X1112364Y5833324D02*
G01*
X1093368Y5857760D01*
X1332062Y6053599D01*
X1112364Y5833324D01*
G37*
G36*
X1237674Y6334088D02*
G01*
X1234777Y6312817D01*
X937546Y6364493D01*
X1237674Y6334088D01*
G37*
G36*
X1244188Y6202959D02*
G01*
X962136Y6130930D01*
X1239120Y6225397D01*
X1244188Y6202959D01*
G37*
G36*
X1729338Y5615000D02*
G01*
X1694061Y5610233D01*
X1665501Y5973749D01*
X1729338Y5615000D01*
G37*
G36*
X1976798Y5689417D02*
G01*
X1818436Y6016937D01*
X1845241Y6028696D01*
X1976798Y5689417D01*
G37*
G36*
X2336042Y6451678D02*
G01*
X2046327Y6411538D01*
X2328380Y6483566D01*
X2336042Y6451678D01*
G37*
G36*
X1446670Y6584923D02*
G01*
X1421196Y6572183D01*
X1252817Y6889519D01*
X1446670Y6584923D01*
G37*
G36*
X1233762Y6269574D02*
G01*
X943102Y6226369D01*
X938184Y6273082D01*
X1233762Y6269574D01*
G37*
G36*
X1250693Y6180889D02*
G01*
X970454Y6101256D01*
X1244188Y6202959D01*
X1250693Y6180889D01*
G37*
G36*
X1839021Y5637856D02*
G01*
X1728433Y5987377D01*
X1760032Y5996277D01*
X1839021Y5637856D01*
G37*
G36*
X1242163Y6355126D02*
G01*
X1237674Y6334088D01*
X941825Y6409192D01*
X1242163Y6355126D01*
G37*
G36*
X1258478Y6159791D02*
G01*
X979840Y6072105D01*
X1250693Y6180889D01*
X1258478Y6159791D01*
G37*
G36*
X1248246Y6375931D02*
G01*
X1242163Y6355126D01*
X949171Y6453220D01*
X1248246Y6375931D01*
G37*
G36*
X1267542Y6139664D02*
G01*
X990294Y6043478D01*
X1258478Y6159791D01*
X1267542Y6139664D01*
G37*
G36*
X1255922Y6396503D02*
G01*
X1248246Y6375931D01*
X959583Y6496576D01*
X1255922Y6396503D01*
G37*
G36*
X1277887Y6120509D02*
G01*
X1014405Y5987796D01*
X1267542Y6139664D01*
X1277887Y6120509D01*
G37*
G36*
X1265191Y6416841D02*
G01*
X1255922Y6396503D01*
X973061Y6539261D01*
X1265191Y6416841D01*
G37*
G36*
X1289511Y6102325D02*
G01*
X1028062Y5960741D01*
X1277887Y6120509D01*
X1289511Y6102325D01*
G37*
G36*
X1276054Y6436945D02*
G01*
X989605Y6581274D01*
X1009215Y6622617D01*
X1276054Y6436945D01*
G37*
G36*
X1302415Y6085111D02*
G01*
X1042787Y5934210D01*
X1289511Y6102325D01*
X1302415Y6085111D01*
G37*
G36*
X1302575Y6476103D02*
G01*
X1009215Y6622617D01*
X1031891Y6663288D01*
X1302575Y6476103D01*
G37*
G36*
X1316598Y6068870D02*
G01*
X1075440Y5882719D01*
X1302415Y6085111D01*
X1316598Y6068870D01*
G37*
G36*
X1375138Y6543898D02*
G01*
X1145531Y6806306D01*
X1179192Y6836334D01*
X1375138Y6543898D01*
G37*
G36*
X1332062Y6053599D02*
G01*
X1093368Y5857760D01*
X1316598Y6068870D01*
X1332062Y6053599D01*
G37*
G36*
X1421196Y6572183D02*
G01*
X1397352Y6558508D01*
X1214955Y6864072D01*
X1421196Y6572183D01*
G37*
G36*
X1348805Y6039300D02*
G01*
X1112364Y5833324D01*
X1332062Y6053599D01*
X1348805Y6039300D01*
G37*
G36*
X1421196Y6572183D02*
G01*
X1214955Y6864072D01*
X1252817Y6889519D01*
X1421196Y6572183D01*
G37*
G36*
X1366828Y6025972D02*
G01*
X1153410Y5786442D01*
X1348805Y6039300D01*
X1366828Y6025972D01*
G37*
G36*
X1446670Y6584923D02*
G01*
X1252817Y6889519D01*
X1292781Y6912676D01*
X1446670Y6584923D01*
G37*
G36*
X1386131Y6013615D02*
G01*
X1175160Y5764830D01*
X1366828Y6025972D01*
X1386131Y6013615D01*
G37*
G36*
X1473774Y6596728D02*
G01*
X1446670Y6584923D01*
X1292781Y6912676D01*
X1473774Y6596728D01*
G37*
G36*
X1406714Y6002230D02*
G01*
X1220968Y5725681D01*
X1386131Y6013615D01*
X1406714Y6002230D01*
G37*
G36*
X1473774Y6596728D02*
G01*
X1292781Y6912676D01*
X1334845Y6933542D01*
X1473774Y6596728D01*
G37*
G36*
X1245025Y5708144D02*
G01*
X1220968Y5725681D01*
X1406714Y6002230D01*
X1245025Y5708144D01*
G37*
G36*
X1502507Y6607597D02*
G01*
X1473774Y6596728D01*
X1334845Y6933542D01*
X1502507Y6607597D01*
G37*
G36*
X1428402Y5992136D02*
G01*
X1245025Y5708144D01*
X1406714Y6002230D01*
X1428402Y5992136D01*
G37*
G36*
X1502507Y6607597D02*
G01*
X1334845Y6933542D01*
X1379009Y6952118D01*
X1502507Y6607597D01*
G37*
G36*
X1269850Y5691965D02*
G01*
X1245025Y5708144D01*
X1428402Y5992136D01*
X1269850Y5691965D01*
G37*
G36*
X1532870Y6617531D02*
G01*
X1502507Y6607597D01*
X1379009Y6952118D01*
X1532870Y6617531D01*
G37*
G36*
X1295445Y5677144D02*
G01*
X1269850Y5691965D01*
X1428402Y5992136D01*
X1295445Y5677144D01*
G37*
G36*
X1532870Y6617531D02*
G01*
X1379009Y6952118D01*
X1425274Y6968403D01*
X1532870Y6617531D01*
G37*
G36*
X1451022Y5983651D02*
G01*
X1295445Y5677144D01*
X1428402Y5992136D01*
X1451022Y5983651D01*
G37*
G36*
X1564863Y6626529D02*
G01*
X1532870Y6617531D01*
X1425274Y6968403D01*
X1564863Y6626529D01*
G37*
G36*
X1321808Y5663681D02*
G01*
X1295445Y5677144D01*
X1451022Y5983651D01*
X1321808Y5663681D01*
G37*
G36*
X1564863Y6626529D02*
G01*
X1425274Y6968403D01*
X1473640Y6982398D01*
X1564863Y6626529D01*
G37*
G36*
X1348939Y5651577D02*
G01*
X1321808Y5663681D01*
X1451022Y5983651D01*
X1348939Y5651577D01*
G37*
G36*
X1596400Y6634050D02*
G01*
X1564863Y6626529D01*
X1473640Y6982398D01*
X1596400Y6634050D01*
G37*
G36*
X1474573Y5976777D02*
G01*
X1348939Y5651577D01*
X1451022Y5983651D01*
X1474573Y5976777D01*
G37*
G36*
X1627038Y6639978D02*
G01*
X1596400Y6634050D01*
X1522283Y6993642D01*
X1627038Y6639978D01*
G37*
G36*
X1376840Y5640831D02*
G01*
X1348939Y5651577D01*
X1474573Y5976777D01*
X1376840Y5640831D01*
G37*
G36*
X1656777Y6644314D02*
G01*
X1627038Y6639978D01*
X1617393Y7007136D01*
X1656777Y6644314D01*
G37*
G36*
X1405509Y5631444D02*
G01*
X1376840Y5640831D01*
X1474573Y5976777D01*
X1405509Y5631444D01*
G37*
G36*
X1685617Y6647056D02*
G01*
X1656777Y6644314D01*
X1663860Y7009386D01*
X1685617Y6647056D01*
G37*
G36*
X1499054Y5971514D02*
G01*
X1405509Y5631444D01*
X1474573Y5976777D01*
X1499054Y5971514D01*
G37*
G36*
X1713558Y6648206D02*
G01*
X1685617Y6647056D01*
X1709601Y7008638D01*
X1713558Y6648206D01*
G37*
G36*
X1434947Y5623414D02*
G01*
X1405509Y5631444D01*
X1499054Y5971514D01*
X1434947Y5623414D01*
G37*
G36*
X1740599Y6647762D02*
G01*
X1713558Y6648206D01*
X1754617Y7004892D01*
X1740599Y6647762D01*
G37*
G36*
X1524468Y5967861D02*
G01*
X1434947Y5623414D01*
X1499054Y5971514D01*
X1524468Y5967861D01*
G37*
G36*
X1766741Y6645726D02*
G01*
X1740599Y6647762D01*
X1798908Y6998148D01*
X1766741Y6645726D01*
G37*
G36*
X1465090Y5616777D02*
G01*
X1434947Y5623414D01*
X1524468Y5967861D01*
X1465090Y5616777D01*
G37*
G36*
X1816327Y6636875D02*
G01*
X1791983Y6642097D01*
X1885313Y6975667D01*
X1816327Y6636875D01*
G37*
G36*
X1592080Y5604484D02*
G01*
X1559370Y5605419D01*
X1578088Y5965385D01*
X1592080Y5604484D01*
G37*
G36*
X1927427Y6959929D02*
G01*
X1816327Y6636875D01*
X1885313Y6975667D01*
X1927427Y6959929D01*
G37*
G36*
X1659426Y5606891D02*
G01*
X1625432Y5604975D01*
X1606294Y5966563D01*
X1659426Y5606891D01*
G37*
G36*
X1839771Y6630060D02*
G01*
X1816327Y6636875D01*
X1927427Y6959929D01*
X1839771Y6630060D01*
G37*
G36*
X1839021Y5637856D02*
G01*
X1801818Y5628812D01*
X1728433Y5987377D01*
X1839021Y5637856D01*
G37*
G36*
X1968816Y6941193D02*
G01*
X1839771Y6630060D01*
X1927427Y6959929D01*
X1968816Y6941193D01*
G37*
G36*
X1895513Y5655064D02*
G01*
X1760032Y5996277D01*
X1790033Y6006131D01*
X1895513Y5655064D01*
G37*
G36*
X1862316Y6621652D02*
G01*
X1839771Y6630060D01*
X1968816Y6941193D01*
X1862316Y6621652D01*
G37*
G36*
X2028687Y5718014D02*
G01*
X1845241Y6028696D01*
X1870449Y6041407D01*
X2028687Y5718014D01*
G37*
G36*
X1883961Y6611651D02*
G01*
X1862316Y6621652D01*
X2048636Y6895135D01*
X1883961Y6611651D01*
G37*
G36*
X2103067Y5769453D02*
G01*
X1894058Y6055071D01*
X1916071Y6069689D01*
X2103067Y5769453D01*
G37*
G36*
X1904519Y6600364D02*
G01*
X1883961Y6611651D01*
X2085505Y6868629D01*
X1904519Y6600364D01*
G37*
G36*
X2150351Y5809440D02*
G01*
X1916071Y6069689D01*
X1936485Y6085258D01*
X2150351Y5809440D01*
G37*
G36*
X1923798Y6588097D02*
G01*
X1904519Y6600364D01*
X2120087Y6839942D01*
X1923798Y6588097D01*
G37*
G36*
X2194086Y5853120D02*
G01*
X1936485Y6085258D01*
X1955302Y6101781D01*
X2194086Y5853120D01*
G37*
G36*
X1941800Y6574850D02*
G01*
X1923798Y6588097D01*
X2152381Y6809072D01*
X1941800Y6574850D01*
G37*
G36*
X2213981Y5876020D02*
G01*
X1955302Y6101781D01*
X1972521Y6119256D01*
X2213981Y5876020D01*
G37*
G36*
X1958525Y6560624D02*
G01*
X1941800Y6574850D01*
X2182387Y6776021D01*
X1958525Y6560624D01*
G37*
G36*
X2249826Y5923942D02*
G01*
X1972521Y6119256D01*
X1988143Y6137684D01*
X2249826Y5923942D01*
G37*
G36*
X2001033Y6512065D02*
G01*
X1988141Y6529231D01*
X2235537Y6703372D01*
X2001033Y6512065D01*
G37*
G36*
X2265776Y5948963D02*
G01*
X2249826Y5923942D01*
X1988143Y6137684D01*
X2265776Y5948963D01*
G37*
G36*
X2258681Y6663775D02*
G01*
X2001033Y6512065D01*
X2235537Y6703372D01*
X2258681Y6663775D01*
G37*
G36*
X2280411Y5974692D02*
G01*
X2265776Y5948963D01*
X1988143Y6137684D01*
X2280411Y5974692D01*
G37*
G36*
X2279537Y6621995D02*
G01*
X2012647Y6493919D01*
X2258681Y6663775D01*
X2279537Y6621995D01*
G37*
G36*
X2280411Y5974692D02*
G01*
X1988143Y6137684D01*
X2002167Y6157065D01*
X2280411Y5974692D01*
G37*
G36*
X2298106Y6578034D02*
G01*
X2022983Y6474794D01*
X2279537Y6621995D01*
X2298106Y6578034D01*
G37*
G36*
X2293732Y6001127D02*
G01*
X2280411Y5974692D01*
X2002167Y6157065D01*
X2293732Y6001127D01*
G37*
G36*
X2032042Y6454688D02*
G01*
X2022983Y6474794D01*
X2298106Y6578034D01*
X2032042Y6454688D01*
G37*
G36*
X2293732Y6001127D02*
G01*
X2002167Y6157065D01*
X2014596Y6177034D01*
X2293732Y6001127D01*
G37*
G36*
X2039823Y6433603D02*
G01*
X2032042Y6454688D01*
X2314387Y6531891D01*
X2039823Y6433603D01*
G37*
G36*
X2305737Y6028270D02*
G01*
X2293732Y6001127D01*
X2014596Y6177034D01*
X2305737Y6028270D01*
G37*
G36*
X2051397Y6389095D02*
G01*
X2046327Y6411538D01*
X2336042Y6451678D01*
X2051397Y6389095D01*
G37*
G36*
X2316428Y6056120D02*
G01*
X2305737Y6028270D01*
X2014596Y6177034D01*
X2316428Y6056120D01*
G37*
G36*
X2342395Y6419987D02*
G01*
X2051397Y6389095D01*
X2336042Y6451678D01*
X2342395Y6419987D01*
G37*
G36*
X2316428Y6056120D02*
G01*
X2014596Y6177034D01*
X2025435Y6197229D01*
X2316428Y6056120D01*
G37*
G36*
X2054875Y6366877D02*
G01*
X2051397Y6389095D01*
X2342395Y6419987D01*
X2054875Y6366877D01*
G37*
G36*
X2340613Y6143656D02*
G01*
X2333865Y6113940D01*
X2034683Y6217648D01*
X2340613Y6143656D01*
G37*
G36*
X2347437Y6388493D02*
G01*
X2054875Y6366877D01*
X2342395Y6419987D01*
X2347437Y6388493D01*
G37*
G36*
X2346051Y6173569D02*
G01*
X2042340Y6238292D01*
X2048407Y6259161D01*
X2346051Y6173569D01*
G37*
G36*
X2056763Y6344884D02*
G01*
X2054875Y6366877D01*
X2347437Y6388493D01*
X2056763Y6344884D01*
G37*
G36*
X2354506Y6264495D02*
G01*
X2352998Y6233989D01*
X2052882Y6280254D01*
X2354506Y6264495D01*
G37*
G36*
X2406124Y5461770D02*
G01*
X2437772Y5458935D01*
X2468632Y5454349D01*
X2498704Y5448013D01*
X2527989Y5439928D01*
X2556486Y5430092D01*
X2584195Y5418506D01*
X2611213Y5405071D01*
X2637635Y5389691D01*
X2663460Y5372364D01*
X2688689Y5353090D01*
X2713323Y5331871D01*
X2737360Y5308705D01*
X2760801Y5283593D01*
X2783645Y5256535D01*
X2805894Y5227530D01*
X2827546Y5196579D01*
X2848603Y5163682D01*
X2869063Y5128838D01*
X2892143Y5085202D01*
X2912120Y5041805D01*
X2928994Y4998647D01*
X2942766Y4955728D01*
X2953435Y4913048D01*
X2961001Y4870606D01*
X2965465Y4828404D01*
X2966826Y4786441D01*
X2965084Y4744716D01*
X2960240Y4703231D01*
X2952293Y4661985D01*
X2941243Y4620977D01*
X2927144Y4580654D01*
X2910049Y4541460D01*
X2889957Y4503396D01*
X2866869Y4466461D01*
X2840785Y4430656D01*
X2811705Y4395981D01*
X2779628Y4362435D01*
X2744556Y4330019D01*
X2706487Y4298732D01*
X2665422Y4268575D01*
X2621360Y4239547D01*
X2574303Y4211649D01*
X2526570Y4186183D01*
X2479377Y4163826D01*
X2432723Y4144578D01*
X2386608Y4128440D01*
X2341032Y4115411D01*
X2295994Y4105492D01*
X2251496Y4098682D01*
X2207537Y4094982D01*
X2164117Y4094392D01*
X2121236Y4096910D01*
X2078894Y4102539D01*
X2037091Y4111277D01*
X1996279Y4122933D01*
X1956910Y4137316D01*
X1918984Y4154426D01*
X1882502Y4174264D01*
X1847462Y4196828D01*
X1813866Y4222119D01*
X1781714Y4250138D01*
X1751004Y4280883D01*
X1721737Y4314355D01*
X1693914Y4350555D01*
X1667534Y4389481D01*
X1642597Y4431135D01*
X1622397Y4468764D01*
X1604409Y4505956D01*
X1588631Y4542711D01*
X1575065Y4579030D01*
X1563710Y4614911D01*
X1554566Y4650356D01*
X1547634Y4685364D01*
X1542912Y4719935D01*
X1540402Y4754069D01*
X1540103Y4787766D01*
X1542016Y4821027D01*
X1546139Y4853850D01*
X1552426Y4886250D01*
X1560827Y4918240D01*
X1571344Y4949820D01*
X1583975Y4980990D01*
X1598722Y5011750D01*
X1615584Y5042100D01*
X1634560Y5072040D01*
X1655652Y5101570D01*
X1678859Y5130691D01*
X1704181Y5159401D01*
X1731617Y5187701D01*
X1761169Y5215591D01*
X1985338Y4939165D01*
X1967662Y4923804D01*
X1951252Y4908550D01*
X1936111Y4893401D01*
X1922237Y4878358D01*
X1909630Y4863420D01*
X1898291Y4848589D01*
X1888219Y4833863D01*
X1879416Y4819242D01*
X1871879Y4804728D01*
X1865610Y4790319D01*
X1860609Y4776016D01*
X1856875Y4761819D01*
X1854251Y4747648D01*
X1852578Y4733426D01*
X1851856Y4719151D01*
X1852085Y4704824D01*
X1853265Y4690445D01*
X1855397Y4676014D01*
X1858480Y4661531D01*
X1862514Y4646995D01*
X1867499Y4632408D01*
X1873435Y4617769D01*
X1880323Y4603077D01*
X1888161Y4588333D01*
X1899693Y4569251D01*
X1912049Y4551514D01*
X1925227Y4535121D01*
X1939229Y4520073D01*
X1954054Y4506370D01*
X1969703Y4494012D01*
X1986175Y4482999D01*
X2003470Y4473330D01*
X2021588Y4465006D01*
X2040530Y4458027D01*
X2060295Y4452393D01*
X2080884Y4448103D01*
X2102462Y4445455D01*
X2125199Y4444746D01*
X2149094Y4445974D01*
X2174146Y4449141D01*
X2200356Y4454247D01*
X2227724Y4461290D01*
X2256250Y4470272D01*
X2285933Y4481192D01*
X2316774Y4494051D01*
X2348774Y4508847D01*
X2381930Y4525582D01*
X2416245Y4544256D01*
X2446610Y4561982D01*
X2474934Y4579826D01*
X2501216Y4597787D01*
X2525457Y4615865D01*
X2547657Y4634060D01*
X2567816Y4652372D01*
X2585933Y4670801D01*
X2602008Y4689348D01*
X2616042Y4708011D01*
X2628035Y4726792D01*
X2637987Y4745690D01*
X2645897Y4764705D01*
X2652045Y4783792D01*
X2656709Y4802905D01*
X2659890Y4822043D01*
X2661588Y4841208D01*
X2661801Y4860398D01*
X2660532Y4879615D01*
X2657778Y4898858D01*
X2653542Y4918126D01*
X2647821Y4937420D01*
X2640618Y4956741D01*
X2631930Y4976087D01*
X2621760Y4995460D01*
X2613354Y5009636D01*
X2604558Y5022995D01*
X2595371Y5035536D01*
X2585793Y5047259D01*
X2575824Y5058165D01*
X2565465Y5068253D01*
X2554715Y5077524D01*
X2543575Y5085977D01*
X2532044Y5093613D01*
X2520122Y5100430D01*
X2507809Y5106431D01*
X2495106Y5111613D01*
X2482046Y5115936D01*
X2468662Y5119358D01*
X2454955Y5121879D01*
X2440925Y5123498D01*
X2426571Y5124217D01*
X2411894Y5124033D01*
X2396894Y5122949D01*
X2381570Y5120963D01*
X2365923Y5118076D01*
X2349953Y5114288D01*
X2333659Y5109599D01*
X2317042Y5104008D01*
X2199700Y5442029D01*
X2236073Y5449694D01*
X2271658Y5455610D01*
X2306456Y5459775D01*
X2340466Y5462190D01*
X2373689Y5462855D01*
X2406124Y5461770D01*
G37*
G36*
X2855265Y3389557D02*
G01*
X2583063Y3158256D01*
X2351762Y3430458D01*
X2623964Y3661759D01*
X2855265Y3389557D01*
G37*
G36*
X3735786Y3832365D02*
G01*
X3756639Y3827440D01*
X3776977Y3821724D01*
X3796801Y3815218D01*
X3816109Y3807920D01*
X3834903Y3799831D01*
X3853182Y3790951D01*
X3870946Y3781280D01*
X3888195Y3770818D01*
X3904930Y3759565D01*
X3921149Y3747521D01*
X3936854Y3734685D01*
X3947503Y3725169D01*
X3957568Y3715363D01*
X3967047Y3705267D01*
X3975942Y3694883D01*
X3984251Y3684209D01*
X3991976Y3673245D01*
X3999116Y3661992D01*
X4005671Y3650450D01*
X4011641Y3638619D01*
X4017026Y3626498D01*
X4021826Y3614088D01*
X4026041Y3601388D01*
X4029635Y3587977D01*
X4032572Y3573431D01*
X4034851Y3557752D01*
X4036473Y3540939D01*
X4037437Y3522992D01*
X4037744Y3503911D01*
X4037394Y3483696D01*
X4036386Y3462348D01*
X4034721Y3439865D01*
X4032398Y3416249D01*
X4029419Y3391498D01*
X4025781Y3365614D01*
X4150648Y3511397D01*
X4402631Y3295569D01*
X3524432Y2270256D01*
X3253140Y2502623D01*
X3524372Y2819292D01*
X3560496Y2861787D01*
X3594169Y2902057D01*
X3625390Y2940102D01*
X3654160Y2975924D01*
X3680479Y3009522D01*
X3704346Y3040895D01*
X3725762Y3070044D01*
X3744726Y3096969D01*
X3761240Y3121670D01*
X3775301Y3144146D01*
X3786912Y3164399D01*
X3796071Y3182427D01*
X3803586Y3199092D01*
X3810263Y3215253D01*
X3816102Y3230912D01*
X3821104Y3246067D01*
X3825268Y3260720D01*
X3828595Y3274870D01*
X3831083Y3288516D01*
X3832735Y3301660D01*
X3833548Y3314301D01*
X3833524Y3326438D01*
X3832663Y3338073D01*
X3830963Y3349205D01*
X3828538Y3359971D01*
X3825498Y3370507D01*
X3821843Y3380815D01*
X3817574Y3390893D01*
X3812690Y3400743D01*
X3807192Y3410363D01*
X3801078Y3419754D01*
X3794351Y3428917D01*
X3787008Y3437850D01*
X3779051Y3446554D01*
X3770479Y3455029D01*
X3761293Y3463275D01*
X3751146Y3471431D01*
X3740337Y3479085D01*
X3728866Y3486238D01*
X3716732Y3492888D01*
X3703936Y3499036D01*
X3690477Y3504682D01*
X3676356Y3509827D01*
X3661572Y3514469D01*
X3646127Y3518609D01*
X3630018Y3522248D01*
X3613248Y3525384D01*
X3595814Y3528019D01*
X3714418Y3836498D01*
X3735786Y3832365D01*
G37*
G36*
X5619454Y2223798D02*
G01*
X5271502Y2251075D01*
X5618706Y2254918D01*
X5619454Y2223798D01*
G37*
G36*
X5271502Y2251075D02*
G01*
X5271933Y2276113D01*
X5616550Y2285541D01*
X5271502Y2251075D01*
G37*
G36*
X5601638Y2374425D02*
G01*
X5267456Y2324564D01*
X5593852Y2403058D01*
X5601638Y2374425D01*
G37*
G36*
X5562048Y2485974D02*
G01*
X5256133Y2370607D01*
X5548632Y2512617D01*
X5562048Y2485974D01*
G37*
G36*
X5267456Y2324564D02*
G01*
X5262549Y2347977D01*
X5584658Y2431194D01*
X5267456Y2324564D01*
G37*
G36*
X5584658Y2431194D02*
G01*
X5262549Y2347977D01*
X5574057Y2458832D01*
X5584658Y2431194D01*
G37*
G36*
X5574057Y2458832D02*
G01*
X5256133Y2370607D01*
X5562048Y2485974D01*
X5574057Y2458832D01*
G37*
G36*
X5612987Y2315666D02*
G01*
X5270585Y2300609D01*
X5608016Y2345294D01*
X5612987Y2315666D01*
G37*
G36*
X5271933Y2276113D02*
G01*
X5270585Y2300609D01*
X5612987Y2315666D01*
X5271933Y2276113D01*
G37*
G36*
X5481650Y2613540D02*
G01*
X5218105Y2450868D01*
X5462146Y2636849D01*
X5481650Y2613540D01*
G37*
G36*
X5441614Y2659321D02*
G01*
X5205507Y2468368D01*
X5420056Y2680957D01*
X5441614Y2659321D01*
G37*
G36*
X5397469Y2701756D02*
G01*
X5176601Y2500291D01*
X5373856Y2721719D01*
X5397469Y2701756D01*
G37*
G36*
X5349215Y2740845D02*
G01*
X5160294Y2514713D01*
X5323547Y2759134D01*
X5349215Y2740845D01*
G37*
G36*
X5296851Y2776587D02*
G01*
X5123970Y2540481D01*
X5269128Y2793204D01*
X5296851Y2776587D01*
G37*
G36*
X4824702Y2556998D02*
G01*
X4703325Y2866213D01*
X4747663Y2878826D01*
X4824702Y2556998D01*
G37*
G36*
X4977726Y2587936D02*
G01*
X4956217Y2588339D01*
X4970487Y2894485D01*
X4977726Y2587936D01*
G37*
G36*
X4956217Y2588339D02*
G01*
X4934575Y2587138D01*
X4925771Y2897674D01*
X4956217Y2588339D01*
G37*
G36*
X4925771Y2897674D02*
G01*
X4912798Y2584332D01*
X4881130Y2897703D01*
X4925771Y2897674D01*
G37*
G36*
X4890887Y2579922D02*
G01*
X4836565Y2894571D01*
X4881130Y2897703D01*
X4890887Y2579922D01*
G37*
G36*
X4846662Y2566288D02*
G01*
X4747663Y2878826D01*
X4792076Y2888278D01*
X4846662Y2566288D01*
G37*
G36*
X5060148Y2878626D02*
G01*
X4999099Y2585929D01*
X5015279Y2888136D01*
X5060148Y2878626D01*
G37*
G36*
X4782503Y2533207D02*
G01*
X4578214Y2812143D01*
X4618187Y2832719D01*
X4782503Y2533207D01*
G37*
G36*
X4621011Y2340175D02*
G01*
X4274143Y2466847D01*
X4296321Y2512049D01*
X4621011Y2340175D01*
G37*
G36*
X4606149Y2310449D02*
G01*
X4255073Y2421658D01*
X4274143Y2466847D01*
X4606149Y2310449D01*
G37*
G36*
X4621011Y2340175D02*
G01*
X4606149Y2310449D01*
X4274143Y2466847D01*
X4621011Y2340175D01*
G37*
G36*
X4593076Y2281299D02*
G01*
X4239111Y2376483D01*
X4255073Y2421658D01*
X4593076Y2281299D01*
G37*
G36*
X4572295Y2224731D02*
G01*
X4564587Y2197312D01*
X4216511Y2286174D01*
X4572295Y2224731D01*
G37*
G36*
X4558667Y2170469D02*
G01*
X4554536Y2144204D01*
X4206342Y2195919D01*
X4558667Y2170469D01*
G37*
G36*
X4554536Y2144204D02*
G01*
X4552192Y2118515D01*
X4205919Y2150813D01*
X4554536Y2144204D01*
G37*
G36*
X4552192Y2118515D02*
G01*
X4208604Y2105720D01*
X4205919Y2150813D01*
X4552192Y2118515D01*
G37*
G36*
X4552871Y2068867D02*
G01*
X4214397Y2060640D01*
X4551637Y2093403D01*
X4552871Y2068867D01*
G37*
G36*
X4223298Y2015575D02*
G01*
X4214397Y2060640D01*
X4552871Y2068867D01*
X4223298Y2015575D01*
G37*
G36*
X4235307Y1970522D02*
G01*
X4223298Y2015575D01*
X4555892Y2044908D01*
X4235307Y1970522D01*
G37*
G36*
X4560702Y2021526D02*
G01*
X4250149Y1926386D01*
X4555892Y2044908D01*
X4560702Y2021526D01*
G37*
G36*
X4461012Y1638711D02*
G01*
X4425697Y1668310D01*
X4646149Y1869476D01*
X4461012Y1638711D01*
G37*
G36*
X4646149Y1869476D02*
G01*
X4425697Y1668310D01*
X4631113Y1884906D01*
X4646149Y1869476D01*
G37*
G36*
X4498885Y1610929D02*
G01*
X4461012Y1638711D01*
X4662429Y1855067D01*
X4498885Y1610929D01*
G37*
G36*
X4539318Y1584964D02*
G01*
X4498885Y1610929D01*
X4679953Y1841681D01*
X4539318Y1584964D01*
G37*
G36*
X4718734Y1817974D02*
G01*
X4582310Y1560816D01*
X4698722Y1829316D01*
X4718734Y1817974D01*
G37*
G36*
X4823686Y1783819D02*
G01*
X4752588Y1495121D01*
X4802411Y1787449D01*
X4823686Y1783819D01*
G37*
G36*
X4811992Y1482363D02*
G01*
X4782125Y1488170D01*
X4845103Y1781789D01*
X4811992Y1482363D01*
G37*
G36*
X4842190Y1477697D02*
G01*
X4811992Y1482363D01*
X4845103Y1781789D01*
X4842190Y1477697D01*
G37*
G36*
X4872719Y1474174D02*
G01*
X4842190Y1477697D01*
X4866662Y1781359D01*
X4872719Y1474174D01*
G37*
G36*
X4903578Y1471794D02*
G01*
X4872719Y1474174D01*
X4888363Y1782530D01*
X4903578Y1471794D01*
G37*
G36*
X4996500Y1472188D02*
G01*
X4932191Y1789672D01*
X4954319Y1795644D01*
X4996500Y1472188D01*
G37*
G36*
X5026635Y1475228D02*
G01*
X4996500Y1472188D01*
X4954319Y1795644D01*
X5026635Y1475228D01*
G37*
G36*
X5085441Y1485755D02*
G01*
X4976589Y1803216D01*
X4998647Y1812475D01*
X5085441Y1485755D01*
G37*
G36*
X5114112Y1493242D02*
G01*
X5085441Y1485755D01*
X4998647Y1812475D01*
X5114112Y1493242D01*
G37*
G36*
X5169989Y1512664D02*
G01*
X5142294Y1502212D01*
X5020140Y1823505D01*
X5169989Y1512664D01*
G37*
G36*
X5197196Y1524598D02*
G01*
X5169989Y1512664D01*
X5020140Y1823505D01*
X5197196Y1524598D01*
G37*
G36*
X5395592Y1672836D02*
G01*
X5119127Y1905242D01*
X5137229Y1926906D01*
X5395592Y1672836D01*
G37*
G36*
X5439111Y1724288D02*
G01*
X5137229Y1926906D01*
X5154765Y1950342D01*
X5439111Y1724288D01*
G37*
G36*
X5480137Y1781475D02*
G01*
X5459935Y1752165D01*
X5171737Y1975551D01*
X5480137Y1781475D01*
G37*
G36*
X5518670Y1844398D02*
G01*
X5499715Y1812220D01*
X5188143Y2002532D01*
X5518670Y1844398D01*
G37*
G36*
X5537002Y1878010D02*
G01*
X5518670Y1844398D01*
X5203984Y2031285D01*
X5537002Y1878010D01*
G37*
G36*
X5562269Y1931386D02*
G01*
X5550212Y1904485D01*
X5218653Y2060653D01*
X5562269Y1931386D01*
G37*
G36*
X5573173Y1958713D02*
G01*
X5562269Y1931386D01*
X5231542Y2089481D01*
X5573173Y1958713D01*
G37*
G36*
X5605267Y2072273D02*
G01*
X5598973Y2043245D01*
X5251980Y2145511D01*
X5605267Y2072273D01*
G37*
G36*
X5610410Y2101727D02*
G01*
X5605267Y2072273D01*
X5259530Y2172714D01*
X5610410Y2101727D01*
G37*
G36*
X5617237Y2161912D02*
G01*
X5614399Y2131607D01*
X5265300Y2199376D01*
X5617237Y2161912D01*
G37*
G36*
X5618921Y2192642D02*
G01*
X5617237Y2161912D01*
X5269291Y2225496D01*
X5618921Y2192642D01*
G37*
G36*
X5618706Y2254918D02*
G01*
X5271502Y2251075D01*
X5616550Y2285541D01*
X5618706Y2254918D01*
G37*
G36*
X5608016Y2345294D02*
G01*
X5270585Y2300609D01*
X5601638Y2374425D01*
X5608016Y2345294D01*
G37*
G36*
X5593852Y2403058D02*
G01*
X5267456Y2324564D01*
X5584658Y2431194D01*
X5593852Y2403058D01*
G37*
G36*
X5548632Y2512617D02*
G01*
X5248480Y2392211D01*
X5533808Y2538764D01*
X5548632Y2512617D01*
G37*
G36*
X5500126Y2589395D02*
G01*
X5229466Y2432342D01*
X5481650Y2613540D01*
X5500126Y2589395D01*
G37*
G36*
X5420056Y2680957D02*
G01*
X5191672Y2484842D01*
X5397469Y2701756D01*
X5420056Y2680957D01*
G37*
G36*
X5323547Y2759134D02*
G01*
X5142750Y2528110D01*
X5296851Y2776587D01*
X5323547Y2759134D01*
G37*
G36*
X4999099Y2585929D02*
G01*
X4977726Y2587936D01*
X5015279Y2888136D01*
X4999099Y2585929D01*
G37*
G36*
X4970487Y2894485D02*
G01*
X4956217Y2588339D01*
X4925771Y2897674D01*
X4970487Y2894485D01*
G37*
G36*
X4868841Y2573907D02*
G01*
X4792076Y2888278D01*
X4836565Y2894571D01*
X4868841Y2573907D01*
G37*
G36*
X4824702Y2556998D02*
G01*
X4659891Y2850743D01*
X4703325Y2866213D01*
X4824702Y2556998D01*
G37*
G36*
X4636659Y2368570D02*
G01*
X4621011Y2340175D01*
X4296321Y2512049D01*
X4636659Y2368570D01*
G37*
G36*
X4593076Y2281299D02*
G01*
X4581792Y2252727D01*
X4239111Y2376483D01*
X4593076Y2281299D01*
G37*
G36*
X4606149Y2310449D02*
G01*
X4593076Y2281299D01*
X4255073Y2421658D01*
X4606149Y2310449D01*
G37*
G36*
X4564587Y2197312D02*
G01*
X4558667Y2170469D01*
X4209873Y2241040D01*
X4564587Y2197312D01*
G37*
G36*
X4554536Y2144204D02*
G01*
X4205919Y2150813D01*
X4206342Y2195919D01*
X4554536Y2144204D01*
G37*
G36*
X4555892Y2044908D02*
G01*
X4223298Y2015575D01*
X4552871Y2068867D01*
X4555892Y2044908D01*
G37*
G36*
X4250149Y1926386D02*
G01*
X4235307Y1970522D01*
X4555892Y2044908D01*
X4250149Y1926386D01*
G37*
G36*
X4662429Y1855067D02*
G01*
X4461012Y1638711D01*
X4646149Y1869476D01*
X4662429Y1855067D01*
G37*
G36*
X4679953Y1841681D02*
G01*
X4498885Y1610929D01*
X4662429Y1855067D01*
X4679953Y1841681D01*
G37*
G36*
X4739440Y1807942D02*
G01*
X4609863Y1547010D01*
X4718734Y1817974D01*
X4739440Y1807942D01*
G37*
G36*
X4782125Y1488170D02*
G01*
X4752588Y1495121D01*
X4823686Y1783819D01*
X4782125Y1488170D01*
G37*
G36*
X4872719Y1474174D02*
G01*
X4866662Y1781359D01*
X4888363Y1782530D01*
X4872719Y1474174D01*
G37*
G36*
X4996500Y1472188D02*
G01*
X4965878Y1470631D01*
X4932191Y1789672D01*
X4996500Y1472188D01*
G37*
G36*
X5085441Y1485755D02*
G01*
X5056282Y1479750D01*
X4976589Y1803216D01*
X5085441Y1485755D01*
G37*
G36*
X5142294Y1502212D02*
G01*
X5114112Y1493242D01*
X4998647Y1812475D01*
X5142294Y1502212D01*
G37*
G36*
X5439111Y1724288D02*
G01*
X5417663Y1697845D01*
X5137229Y1926906D01*
X5439111Y1724288D01*
G37*
G36*
X5499715Y1812220D02*
G01*
X5480137Y1781475D01*
X5188143Y2002532D01*
X5499715Y1812220D01*
G37*
G36*
X5550212Y1904485D02*
G01*
X5537002Y1878010D01*
X5218653Y2060653D01*
X5550212Y1904485D01*
G37*
G36*
X5598973Y2043245D02*
G01*
X5591525Y2014642D01*
X5251980Y2145511D01*
X5598973Y2043245D01*
G37*
G36*
X5614399Y2131607D02*
G01*
X5259530Y2172714D01*
X5265300Y2199376D01*
X5614399Y2131607D01*
G37*
G36*
X5619454Y2223798D02*
G01*
X5618921Y2192642D01*
X5269291Y2225496D01*
X5619454Y2223798D01*
G37*
G36*
X5533808Y2538764D02*
G01*
X5239592Y2412789D01*
X5517576Y2564413D01*
X5533808Y2538764D01*
G37*
G36*
X5517576Y2564413D02*
G01*
X5239592Y2412789D01*
X5500126Y2589395D01*
X5517576Y2564413D01*
G37*
G36*
X5373856Y2721719D02*
G01*
X5176601Y2500291D01*
X5349215Y2740845D01*
X5373856Y2721719D01*
G37*
G36*
X4803315Y2545971D02*
G01*
X4618187Y2832719D01*
X4659891Y2850743D01*
X4803315Y2545971D01*
G37*
G36*
X5015279Y2888136D02*
G01*
X4977726Y2587936D01*
X4970487Y2894485D01*
X5015279Y2888136D01*
G37*
G36*
X4636659Y2368570D02*
G01*
X4296321Y2512049D01*
X4320720Y2555606D01*
X4636659Y2368570D01*
G37*
G36*
X4581792Y2252727D02*
G01*
X4226257Y2331322D01*
X4239111Y2376483D01*
X4581792Y2252727D01*
G37*
G36*
X4551637Y2093403D02*
G01*
X4208604Y2105720D01*
X4552192Y2118515D01*
X4551637Y2093403D01*
G37*
G36*
X4551637Y2093403D02*
G01*
X4214397Y2060640D01*
X4208604Y2105720D01*
X4551637Y2093403D01*
G37*
G36*
X4425697Y1668310D02*
G01*
X4392942Y1699726D01*
X4631113Y1884906D01*
X4425697Y1668310D01*
G37*
G36*
X4752588Y1495121D02*
G01*
X4723382Y1503214D01*
X4802411Y1787449D01*
X4752588Y1495121D01*
G37*
G36*
X4903578Y1471794D02*
G01*
X4888363Y1782530D01*
X4910206Y1785301D01*
X4903578Y1471794D01*
G37*
G36*
X5056282Y1479750D02*
G01*
X5026635Y1475228D01*
X4954319Y1795644D01*
X5056282Y1479750D01*
G37*
G36*
X5459935Y1752165D02*
G01*
X5154765Y1950342D01*
X5171737Y1975551D01*
X5459935Y1752165D01*
G37*
G36*
X5562269Y1931386D02*
G01*
X5218653Y2060653D01*
X5231542Y2089481D01*
X5562269Y1931386D01*
G37*
G36*
X5617237Y2161912D02*
G01*
X5265300Y2199376D01*
X5269291Y2225496D01*
X5617237Y2161912D01*
G37*
G36*
X5616550Y2285541D02*
G01*
X5271933Y2276113D01*
X5612987Y2315666D01*
X5616550Y2285541D01*
G37*
G36*
X5020339Y2582317D02*
G01*
X4999099Y2585929D01*
X5060148Y2878626D01*
X5020339Y2582317D01*
G37*
G36*
X4652881Y2395229D02*
G01*
X4636659Y2368570D01*
X4320720Y2555606D01*
X4652881Y2395229D01*
G37*
G36*
X4581792Y2252727D02*
G01*
X4572295Y2224731D01*
X4226257Y2331322D01*
X4581792Y2252727D01*
G37*
G36*
X4567028Y1998944D02*
G01*
X4250149Y1926386D01*
X4560702Y2021526D01*
X4567028Y1998944D01*
G37*
G36*
X4582310Y1560816D02*
G01*
X4539318Y1584964D01*
X4698722Y1829316D01*
X4582310Y1560816D01*
G37*
G36*
X4866662Y1781359D02*
G01*
X4842190Y1477697D01*
X4845103Y1781789D01*
X4866662Y1781359D01*
G37*
G36*
X5537002Y1878010D02*
G01*
X5203984Y2031285D01*
X5218653Y2060653D01*
X5537002Y1878010D01*
G37*
G36*
X5605267Y2072273D02*
G01*
X5251980Y2145511D01*
X5259530Y2172714D01*
X5605267Y2072273D01*
G37*
G36*
X5105091Y2865956D02*
G01*
X5020339Y2582317D01*
X5060148Y2878626D01*
X5105091Y2865956D01*
G37*
G36*
X4652881Y2395229D02*
G01*
X4320720Y2555606D01*
X4346851Y2596610D01*
X4652881Y2395229D01*
G37*
G36*
X4572295Y2224731D02*
G01*
X4216511Y2286174D01*
X4226257Y2331322D01*
X4572295Y2224731D01*
G37*
G36*
X4723382Y1503214D02*
G01*
X4694507Y1512449D01*
X4781279Y1792680D01*
X4723382Y1503214D01*
G37*
G36*
X5591525Y2014642D02*
G01*
X5242651Y2117766D01*
X5251980Y2145511D01*
X5591525Y2014642D01*
G37*
G36*
X4652881Y2395229D02*
G01*
X4346851Y2596610D01*
X4374711Y2635061D01*
X4652881Y2395229D01*
G37*
G36*
X4564587Y2197312D02*
G01*
X4209873Y2241040D01*
X4216511Y2286174D01*
X4564587Y2197312D01*
G37*
G36*
X4669677Y2420151D02*
G01*
X4652881Y2395229D01*
X4374711Y2635061D01*
X4669677Y2420151D01*
G37*
G36*
X4558667Y2170469D02*
G01*
X4206342Y2195919D01*
X4209873Y2241040D01*
X4558667Y2170469D01*
G37*
G36*
X4669677Y2420151D02*
G01*
X4374711Y2635061D01*
X4404302Y2670958D01*
X4669677Y2420151D01*
G37*
G36*
X4267550Y1884066D02*
G01*
X4250149Y1926386D01*
X4567028Y1998944D01*
X4267550Y1884066D01*
G37*
G36*
X4687047Y2443336D02*
G01*
X4669677Y2420151D01*
X4404302Y2670958D01*
X4687047Y2443336D01*
G37*
G36*
X4574598Y1977383D02*
G01*
X4267550Y1884066D01*
X4567028Y1998944D01*
X4574598Y1977383D01*
G37*
G36*
X4687047Y2443336D02*
G01*
X4404302Y2670958D01*
X4435624Y2704302D01*
X4687047Y2443336D01*
G37*
G36*
X4287510Y1843564D02*
G01*
X4267550Y1884066D01*
X4574598Y1977383D01*
X4287510Y1843564D01*
G37*
G36*
X4704990Y2464784D02*
G01*
X4687047Y2443336D01*
X4435624Y2704302D01*
X4704990Y2464784D01*
G37*
G36*
X4583413Y1956844D02*
G01*
X4287510Y1843564D01*
X4574598Y1977383D01*
X4583413Y1956844D01*
G37*
G36*
X4704990Y2464784D02*
G01*
X4435624Y2704302D01*
X4468675Y2735092D01*
X4704990Y2464784D01*
G37*
G36*
X4310030Y1804879D02*
G01*
X4287510Y1843564D01*
X4583413Y1956844D01*
X4310030Y1804879D01*
G37*
G36*
X4723508Y2484495D02*
G01*
X4704990Y2464784D01*
X4468675Y2735092D01*
X4723508Y2484495D01*
G37*
G36*
X4593471Y1937326D02*
G01*
X4310030Y1804879D01*
X4583413Y1956844D01*
X4593471Y1937326D01*
G37*
G36*
X4723508Y2484495D02*
G01*
X4468675Y2735092D01*
X4503458Y2763329D01*
X4723508Y2484495D01*
G37*
G36*
X4335108Y1768011D02*
G01*
X4310030Y1804879D01*
X4593471Y1937326D01*
X4335108Y1768011D01*
G37*
G36*
X4742599Y2502469D02*
G01*
X4723508Y2484495D01*
X4503458Y2763329D01*
X4742599Y2502469D01*
G37*
G36*
X4604774Y1918831D02*
G01*
X4335108Y1768011D01*
X4593471Y1937326D01*
X4604774Y1918831D01*
G37*
G36*
X4742599Y2502469D02*
G01*
X4503458Y2763329D01*
X4539970Y2789012D01*
X4742599Y2502469D01*
G37*
G36*
X4362745Y1732960D02*
G01*
X4335108Y1768011D01*
X4604774Y1918831D01*
X4362745Y1732960D01*
G37*
G36*
X4762264Y2518707D02*
G01*
X4742599Y2502469D01*
X4539970Y2789012D01*
X4762264Y2518707D01*
G37*
G36*
X4617322Y1901357D02*
G01*
X4362745Y1732960D01*
X4604774Y1918831D01*
X4617322Y1901357D01*
G37*
G36*
X4762264Y2518707D02*
G01*
X4539970Y2789012D01*
X4578214Y2812143D01*
X4762264Y2518707D01*
G37*
G36*
X4392942Y1699726D02*
G01*
X4362745Y1732960D01*
X4617322Y1901357D01*
X4392942Y1699726D01*
G37*
G36*
X4782503Y2533207D02*
G01*
X4762264Y2518707D01*
X4578214Y2812143D01*
X4782503Y2533207D01*
G37*
G36*
X4631113Y1884906D02*
G01*
X4392942Y1699726D01*
X4617322Y1901357D01*
X4631113Y1884906D01*
G37*
G36*
X4803315Y2545971D02*
G01*
X4782503Y2533207D01*
X4618187Y2832719D01*
X4803315Y2545971D01*
G37*
G36*
X4698722Y1829316D02*
G01*
X4539318Y1584964D01*
X4679953Y1841681D01*
X4698722Y1829316D01*
G37*
G36*
X4824702Y2556998D02*
G01*
X4803315Y2545971D01*
X4659891Y2850743D01*
X4824702Y2556998D01*
G37*
G36*
X4609863Y1547010D02*
G01*
X4582310Y1560816D01*
X4718734Y1817974D01*
X4609863Y1547010D01*
G37*
G36*
X4846662Y2566288D02*
G01*
X4824702Y2556998D01*
X4747663Y2878826D01*
X4846662Y2566288D01*
G37*
G36*
X4637747Y1534347D02*
G01*
X4609863Y1547010D01*
X4739440Y1807942D01*
X4637747Y1534347D01*
G37*
G36*
X4868841Y2573907D02*
G01*
X4846662Y2566288D01*
X4792076Y2888278D01*
X4868841Y2573907D01*
G37*
G36*
X4760289Y1799511D02*
G01*
X4637747Y1534347D01*
X4739440Y1807942D01*
X4760289Y1799511D01*
G37*
G36*
X4890887Y2579922D02*
G01*
X4868841Y2573907D01*
X4836565Y2894571D01*
X4890887Y2579922D01*
G37*
G36*
X4665962Y1522827D02*
G01*
X4637747Y1534347D01*
X4760289Y1799511D01*
X4665962Y1522827D01*
G37*
G36*
X4912798Y2584332D02*
G01*
X4890887Y2579922D01*
X4881130Y2897703D01*
X4912798Y2584332D01*
G37*
G36*
X4781279Y1792680D02*
G01*
X4665962Y1522827D01*
X4760289Y1799511D01*
X4781279Y1792680D01*
G37*
G36*
X4934575Y2587138D02*
G01*
X4912798Y2584332D01*
X4925771Y2897674D01*
X4934575Y2587138D01*
G37*
G36*
X4694507Y1512449D02*
G01*
X4665962Y1522827D01*
X4781279Y1792680D01*
X4694507Y1512449D01*
G37*
G36*
X5041444Y2577101D02*
G01*
X5020339Y2582317D01*
X5105091Y2865956D01*
X5041444Y2577101D01*
G37*
G36*
X4802411Y1787449D02*
G01*
X4723382Y1503214D01*
X4781279Y1792680D01*
X4802411Y1787449D01*
G37*
G36*
X5150111Y2850126D02*
G01*
X5041444Y2577101D01*
X5105091Y2865956D01*
X5150111Y2850126D01*
G37*
G36*
X4845103Y1781789D02*
G01*
X4782125Y1488170D01*
X4823686Y1783819D01*
X4845103Y1781789D01*
G37*
G36*
X5062415Y2570280D02*
G01*
X5041444Y2577101D01*
X5150111Y2850126D01*
X5062415Y2570280D01*
G37*
G36*
X4934767Y1470556D02*
G01*
X4903578Y1471794D01*
X4910206Y1785301D01*
X4934767Y1470556D01*
G37*
G36*
X5195207Y2831135D02*
G01*
X5062415Y2570280D01*
X5150111Y2850126D01*
X5195207Y2831135D01*
G37*
G36*
X4965878Y1470631D02*
G01*
X4934767Y1470556D01*
X4910206Y1785301D01*
X4965878Y1470631D01*
G37*
G36*
X5083251Y2561855D02*
G01*
X5062415Y2570280D01*
X5195207Y2831135D01*
X5083251Y2561855D01*
G37*
G36*
X4965878Y1470631D02*
G01*
X4910206Y1785301D01*
X4932191Y1789672D01*
X4965878Y1470631D01*
G37*
G36*
X5240378Y2808983D02*
G01*
X5083251Y2561855D01*
X5195207Y2831135D01*
X5240378Y2808983D01*
G37*
G36*
X5056282Y1479750D02*
G01*
X4954319Y1795644D01*
X4976589Y1803216D01*
X5056282Y1479750D01*
G37*
G36*
X5103953Y2551826D02*
G01*
X5083251Y2561855D01*
X5240378Y2808983D01*
X5103953Y2551826D01*
G37*
G36*
X5142294Y1502212D02*
G01*
X4998647Y1812475D01*
X5020140Y1823505D01*
X5142294Y1502212D01*
G37*
G36*
X5269128Y2793204D02*
G01*
X5103953Y2551826D01*
X5240378Y2808983D01*
X5269128Y2793204D01*
G37*
G36*
X5197196Y1524598D02*
G01*
X5020140Y1823505D01*
X5041068Y1836308D01*
X5197196Y1524598D01*
G37*
G36*
X5123970Y2540481D02*
G01*
X5103953Y2551826D01*
X5269128Y2793204D01*
X5123970Y2540481D01*
G37*
G36*
X5223915Y1538015D02*
G01*
X5197196Y1524598D01*
X5041068Y1836308D01*
X5223915Y1538015D01*
G37*
G36*
X5142750Y2528110D02*
G01*
X5123970Y2540481D01*
X5296851Y2776587D01*
X5142750Y2528110D01*
G37*
G36*
X5250145Y1552915D02*
G01*
X5223915Y1538015D01*
X5041068Y1836308D01*
X5250145Y1552915D01*
G37*
G36*
X5160294Y2514713D02*
G01*
X5142750Y2528110D01*
X5323547Y2759134D01*
X5160294Y2514713D01*
G37*
G36*
X5250145Y1552915D02*
G01*
X5041068Y1836308D01*
X5061430Y1850883D01*
X5250145Y1552915D01*
G37*
G36*
X5176601Y2500291D02*
G01*
X5160294Y2514713D01*
X5349215Y2740845D01*
X5176601Y2500291D01*
G37*
G36*
X5275888Y1569297D02*
G01*
X5250145Y1552915D01*
X5061430Y1850883D01*
X5275888Y1569297D01*
G37*
G36*
X5191672Y2484842D02*
G01*
X5176601Y2500291D01*
X5397469Y2701756D01*
X5191672Y2484842D01*
G37*
G36*
X5275888Y1569297D02*
G01*
X5061430Y1850883D01*
X5081228Y1867230D01*
X5275888Y1569297D01*
G37*
G36*
X5205507Y2468368D02*
G01*
X5191672Y2484842D01*
X5420056Y2680957D01*
X5205507Y2468368D01*
G37*
G36*
X5301075Y1587137D02*
G01*
X5275888Y1569297D01*
X5081228Y1867230D01*
X5301075Y1587137D01*
G37*
G36*
X5218105Y2450868D02*
G01*
X5205507Y2468368D01*
X5441614Y2659321D01*
X5218105Y2450868D01*
G37*
G36*
X5325639Y1606411D02*
G01*
X5301075Y1587137D01*
X5081228Y1867230D01*
X5325639Y1606411D01*
G37*
G36*
X5462146Y2636849D02*
G01*
X5218105Y2450868D01*
X5441614Y2659321D01*
X5462146Y2636849D01*
G37*
G36*
X5325639Y1606411D02*
G01*
X5081228Y1867230D01*
X5100460Y1885350D01*
X5325639Y1606411D01*
G37*
G36*
X5229466Y2432342D02*
G01*
X5218105Y2450868D01*
X5481650Y2613540D01*
X5229466Y2432342D01*
G37*
G36*
X5349580Y1627119D02*
G01*
X5325639Y1606411D01*
X5100460Y1885350D01*
X5349580Y1627119D01*
G37*
G36*
X5239592Y2412789D02*
G01*
X5229466Y2432342D01*
X5500126Y2589395D01*
X5239592Y2412789D01*
G37*
G36*
X5372897Y1649260D02*
G01*
X5349580Y1627119D01*
X5100460Y1885350D01*
X5372897Y1649260D01*
G37*
G36*
X5248480Y2392211D02*
G01*
X5239592Y2412789D01*
X5533808Y2538764D01*
X5248480Y2392211D01*
G37*
G36*
X5372897Y1649260D02*
G01*
X5100460Y1885350D01*
X5119127Y1905242D01*
X5372897Y1649260D01*
G37*
G36*
X5256133Y2370607D02*
G01*
X5248480Y2392211D01*
X5548632Y2512617D01*
X5256133Y2370607D01*
G37*
G36*
X5395592Y1672836D02*
G01*
X5372897Y1649260D01*
X5119127Y1905242D01*
X5395592Y1672836D01*
G37*
G36*
X5262549Y2347977D02*
G01*
X5256133Y2370607D01*
X5574057Y2458832D01*
X5262549Y2347977D01*
G37*
G36*
X5417663Y1697845D02*
G01*
X5395592Y1672836D01*
X5137229Y1926906D01*
X5417663Y1697845D01*
G37*
G36*
X5270585Y2300609D02*
G01*
X5267456Y2324564D01*
X5601638Y2374425D01*
X5270585Y2300609D01*
G37*
G36*
X5459935Y1752165D02*
G01*
X5439111Y1724288D01*
X5154765Y1950342D01*
X5459935Y1752165D01*
G37*
G36*
X5619454Y2223798D02*
G01*
X5269291Y2225496D01*
X5271502Y2251075D01*
X5619454Y2223798D01*
G37*
G36*
X5480137Y1781475D02*
G01*
X5171737Y1975551D01*
X5188143Y2002532D01*
X5480137Y1781475D01*
G37*
G36*
X5614399Y2131607D02*
G01*
X5610410Y2101727D01*
X5259530Y2172714D01*
X5614399Y2131607D01*
G37*
G36*
X5518670Y1844398D02*
G01*
X5188143Y2002532D01*
X5203984Y2031285D01*
X5518670Y1844398D01*
G37*
G36*
X5591525Y2014642D02*
G01*
X5582926Y1986464D01*
X5242651Y2117766D01*
X5591525Y2014642D01*
G37*
G36*
X5582926Y1986464D02*
G01*
X5573173Y1958713D01*
X5231542Y2089481D01*
X5582926Y1986464D01*
G37*
G36*
X5582926Y1986464D02*
G01*
X5231542Y2089481D01*
X5242651Y2117766D01*
X5582926Y1986464D01*
G37*
G36*
X6483785Y2309834D02*
G01*
X6521392Y2307010D01*
X6560646Y2302524D01*
X6601548Y2296374D01*
X6644098Y2288561D01*
X6688296Y2279085D01*
X6734371Y2267685D01*
X6778011Y2255140D01*
X6819216Y2241450D01*
X6857984Y2226615D01*
X6894317Y2210635D01*
X6928215Y2193510D01*
X6959677Y2175240D01*
X6988703Y2155825D01*
X7015294Y2135266D01*
X7039449Y2113561D01*
X7061168Y2090712D01*
X7080452Y2066717D01*
X7097494Y2041987D01*
X7112486Y2016928D01*
X7125429Y1991542D01*
X7136323Y1965828D01*
X7145167Y1939786D01*
X7151963Y1913417D01*
X7156708Y1886720D01*
X7159405Y1859695D01*
X7160052Y1832342D01*
X7158651Y1804662D01*
X7155199Y1776653D01*
X7149699Y1748317D01*
X7141512Y1717544D01*
X7131421Y1688421D01*
X7119426Y1660947D01*
X7105526Y1635123D01*
X7089721Y1610948D01*
X7072013Y1588423D01*
X7052399Y1567547D01*
X7030881Y1548321D01*
X7007459Y1530745D01*
X6982132Y1514818D01*
X6954901Y1500540D01*
X6925765Y1487912D01*
X6901872Y1479790D01*
X6873642Y1472424D01*
X6841076Y1465816D01*
X6804173Y1459966D01*
X6762934Y1454872D01*
X6717358Y1450536D01*
X6667446Y1446958D01*
X6613197Y1444137D01*
X6554611Y1442073D01*
X6491689Y1440767D01*
X6424431Y1440218D01*
X6352836Y1440427D01*
X6337398Y1440239D01*
X6322842Y1439795D01*
X6309170Y1439095D01*
X6296381Y1438138D01*
X6284475Y1436924D01*
X6273453Y1435454D01*
X6263313Y1433727D01*
X6254056Y1431744D01*
X6245683Y1429505D01*
X6238193Y1427008D01*
X6231585Y1424256D01*
X6225861Y1421247D01*
X6220888Y1417721D01*
X6216216Y1413928D01*
X6211845Y1409866D01*
X6207775Y1405537D01*
X6204005Y1400939D01*
X6200537Y1396073D01*
X6197369Y1390939D01*
X6194502Y1385537D01*
X6191936Y1379866D01*
X6189671Y1373928D01*
X6187706Y1367722D01*
X6186043Y1361247D01*
X6184176Y1351631D01*
X6183021Y1342196D01*
X6182578Y1332943D01*
X6182847Y1323871D01*
X6183827Y1314980D01*
X6185518Y1306270D01*
X6187922Y1297741D01*
X6191037Y1289394D01*
X6194863Y1281227D01*
X6199402Y1273242D01*
X6204651Y1265438D01*
X6210613Y1257816D01*
X6220624Y1247192D01*
X6231721Y1237044D01*
X6243906Y1227372D01*
X6257178Y1218175D01*
X6271536Y1209454D01*
X6286982Y1201209D01*
X6303515Y1193439D01*
X6321134Y1186145D01*
X6339840Y1179326D01*
X6359634Y1172983D01*
X6380514Y1167116D01*
X6402481Y1161724D01*
X6422632Y1157496D01*
X6442193Y1154172D01*
X6461164Y1151753D01*
X6479545Y1150238D01*
X6497337Y1149629D01*
X6514539Y1149924D01*
X6531151Y1151125D01*
X6547173Y1153230D01*
X6562605Y1156239D01*
X6577448Y1160154D01*
X6591701Y1164973D01*
X6605364Y1170697D01*
X6618491Y1177287D01*
X6631138Y1184702D01*
X6643303Y1192942D01*
X6654987Y1202008D01*
X6666191Y1211900D01*
X6676913Y1222617D01*
X6687153Y1234160D01*
X6696913Y1246529D01*
X6706192Y1259723D01*
X6714989Y1273742D01*
X6723305Y1288588D01*
X6731140Y1304258D01*
X7068375Y1170973D01*
X7052552Y1142347D01*
X7035471Y1115150D01*
X7017133Y1089382D01*
X6997537Y1065043D01*
X6976684Y1042133D01*
X6954573Y1020652D01*
X6931204Y1000600D01*
X6906577Y981976D01*
X6880693Y964782D01*
X6853552Y949017D01*
X6825152Y934681D01*
X6795495Y921774D01*
X6764604Y910517D01*
X6732502Y901131D01*
X6699190Y893617D01*
X6664666Y887973D01*
X6628932Y884200D01*
X6591987Y882299D01*
X6553831Y882268D01*
X6514465Y884109D01*
X6473887Y887820D01*
X6432099Y893403D01*
X6389100Y900857D01*
X6344891Y910182D01*
X6296746Y922156D01*
X6251028Y935475D01*
X6207738Y950141D01*
X6166875Y966153D01*
X6128440Y983511D01*
X6092431Y1002215D01*
X6058850Y1022265D01*
X6027697Y1043661D01*
X5998970Y1066403D01*
X5972671Y1090491D01*
X5948799Y1115925D01*
X5927355Y1142705D01*
X5908255Y1170271D01*
X5891416Y1198061D01*
X5876838Y1226077D01*
X5864521Y1254317D01*
X5854466Y1282783D01*
X5846671Y1311473D01*
X5841138Y1340388D01*
X5837866Y1369528D01*
X5836855Y1398893D01*
X5838106Y1428482D01*
X5841617Y1458297D01*
X5847390Y1488337D01*
X5854367Y1515329D01*
X5862626Y1540960D01*
X5872167Y1565228D01*
X5882990Y1588135D01*
X5895095Y1609679D01*
X5908482Y1629861D01*
X5923151Y1648681D01*
X5939102Y1666139D01*
X5956335Y1682234D01*
X5974850Y1696968D01*
X5994647Y1710339D01*
X6015726Y1722348D01*
X6038726Y1732958D01*
X6063967Y1742637D01*
X6091450Y1751387D01*
X6121174Y1759208D01*
X6153139Y1766098D01*
X6187346Y1772059D01*
X6223794Y1777090D01*
X6262483Y1781191D01*
X6303414Y1784363D01*
X6346586Y1786605D01*
X6391999Y1787917D01*
X6439654Y1788299D01*
X6486779Y1788386D01*
X6530604Y1788812D01*
X6571129Y1789577D01*
X6608353Y1790682D01*
X6642277Y1792125D01*
X6672901Y1793907D01*
X6700224Y1796028D01*
X6724247Y1798488D01*
X6744970Y1801287D01*
X6762392Y1804426D01*
X6776515Y1807903D01*
X6787336Y1811719D01*
X6793889Y1814865D01*
X6799995Y1818276D01*
X6805654Y1821952D01*
X6810867Y1825893D01*
X6815634Y1830100D01*
X6819954Y1834571D01*
X6823828Y1839308D01*
X6827255Y1844310D01*
X6830236Y1849578D01*
X6832771Y1855110D01*
X6834859Y1860908D01*
X6836501Y1866971D01*
X6837854Y1874151D01*
X6838606Y1881232D01*
X6838757Y1888216D01*
X6838305Y1895103D01*
X6837251Y1901892D01*
X6835595Y1908583D01*
X6833337Y1915176D01*
X6830478Y1921672D01*
X6827016Y1928071D01*
X6822952Y1934371D01*
X6818287Y1940574D01*
X6813019Y1946680D01*
X6803969Y1955209D01*
X6793712Y1963452D01*
X6782249Y1971411D01*
X6769579Y1979084D01*
X6755704Y1986472D01*
X6740621Y1993575D01*
X6724332Y2000392D01*
X6706837Y2006925D01*
X6688136Y2013172D01*
X6668228Y2019133D01*
X6647114Y2024809D01*
X6624793Y2030201D01*
X6606903Y2033998D01*
X6589580Y2037067D01*
X6572823Y2039409D01*
X6556634Y2041024D01*
X6541011Y2041911D01*
X6525956Y2042071D01*
X6511467Y2041503D01*
X6497546Y2040207D01*
X6484191Y2038184D01*
X6471404Y2035434D01*
X6459183Y2031956D01*
X6447530Y2027751D01*
X6436365Y2022872D01*
X6425611Y2017374D01*
X6415267Y2011256D01*
X6405335Y2004519D01*
X6395812Y1997164D01*
X6386701Y1989188D01*
X6378000Y1980594D01*
X6369710Y1971380D01*
X6361830Y1961547D01*
X6354361Y1951095D01*
X6347303Y1940023D01*
X6340655Y1928332D01*
X6026188Y2064230D01*
X6041455Y2090329D01*
X6057590Y2114999D01*
X6074593Y2138238D01*
X6092464Y2160047D01*
X6111203Y2180426D01*
X6130810Y2199374D01*
X6151285Y2216892D01*
X6172627Y2232979D01*
X6194838Y2247636D01*
X6217916Y2260863D01*
X6241863Y2272660D01*
X6266677Y2283026D01*
X6292749Y2291845D01*
X6320469Y2299001D01*
X6349837Y2304494D01*
X6380852Y2308324D01*
X6413516Y2310490D01*
X6447827Y2310994D01*
X6483785Y2309834D01*
G37*
G36*
X8008409Y2140573D02*
G01*
X8051340Y2137231D01*
X8093107Y2130671D01*
X8133708Y2120892D01*
X8173145Y2107895D01*
X8211417Y2091680D01*
X8248524Y2072246D01*
X8284467Y2049593D01*
X8319244Y2023722D01*
X8352857Y1994633D01*
X8385305Y1962325D01*
X8416588Y1926798D01*
X8409996Y2124994D01*
X8741592Y2136022D01*
X8786467Y786768D01*
X8429461Y774895D01*
X8409136Y1385998D01*
X8407726Y1422694D01*
X8406002Y1457402D01*
X8403964Y1490120D01*
X8401613Y1520850D01*
X8398948Y1549591D01*
X8395969Y1576343D01*
X8392677Y1601106D01*
X8389071Y1623880D01*
X8385151Y1644665D01*
X8380918Y1663462D01*
X8376371Y1680269D01*
X8371511Y1695087D01*
X8366179Y1708671D01*
X8360218Y1721775D01*
X8353629Y1734398D01*
X8346411Y1746541D01*
X8338564Y1758204D01*
X8330088Y1769387D01*
X8320983Y1780089D01*
X8311250Y1790312D01*
X8300888Y1800054D01*
X8289897Y1809316D01*
X8278277Y1818098D01*
X8266028Y1826399D01*
X8253345Y1834103D01*
X8240420Y1841093D01*
X8227254Y1847368D01*
X8213846Y1852928D01*
X8200198Y1857774D01*
X8186308Y1861905D01*
X8172177Y1865321D01*
X8157805Y1868023D01*
X8143192Y1870010D01*
X8128337Y1871282D01*
X8113242Y1871840D01*
X8097905Y1871683D01*
X8085989Y1871040D01*
X8074381Y1869912D01*
X8063080Y1868299D01*
X8052087Y1866202D01*
X8041401Y1863621D01*
X8031024Y1860556D01*
X8020953Y1857006D01*
X8011191Y1852971D01*
X8001735Y1848453D01*
X7992588Y1843449D01*
X7983748Y1837962D01*
X7975216Y1831990D01*
X7967042Y1825584D01*
X7959279Y1818794D01*
X7951926Y1811620D01*
X7944983Y1804063D01*
X7938451Y1796121D01*
X7932328Y1787796D01*
X7926616Y1779087D01*
X7921314Y1769994D01*
X7916423Y1760518D01*
X7911941Y1750657D01*
X7907870Y1740413D01*
X7904209Y1729785D01*
X7900948Y1717898D01*
X7898075Y1703878D01*
X7895592Y1687725D01*
X7893497Y1669438D01*
X7891792Y1649018D01*
X7890475Y1626464D01*
X7889547Y1601777D01*
X7889008Y1574957D01*
X7888858Y1546003D01*
X7889097Y1514916D01*
X7889725Y1481696D01*
X7890742Y1446342D01*
X7913644Y757739D01*
X7556638Y745866D01*
X7528750Y1584385D01*
X7528037Y1609932D01*
X7527632Y1634482D01*
X7527533Y1658035D01*
X7527741Y1680591D01*
X7528256Y1702151D01*
X7529078Y1722714D01*
X7530207Y1742281D01*
X7531643Y1760850D01*
X7533386Y1778423D01*
X7535436Y1794999D01*
X7537793Y1810579D01*
X7540456Y1825162D01*
X7543490Y1839130D01*
X7546954Y1852865D01*
X7550851Y1866367D01*
X7555179Y1879636D01*
X7559939Y1892672D01*
X7565131Y1905475D01*
X7570754Y1918046D01*
X7576809Y1930383D01*
X7583296Y1942487D01*
X7590215Y1954359D01*
X7597565Y1965997D01*
X7605347Y1977403D01*
X7613681Y1988540D01*
X7622688Y1999372D01*
X7632367Y2009900D01*
X7642719Y2020123D01*
X7653743Y2030043D01*
X7665440Y2039657D01*
X7677810Y2048967D01*
X7690852Y2057973D01*
X7704566Y2066674D01*
X7718954Y2075071D01*
X7734013Y2083164D01*
X7749746Y2090952D01*
X7765965Y2098297D01*
X7782487Y2105060D01*
X7799310Y2111241D01*
X7816436Y2116841D01*
X7833864Y2121859D01*
X7851593Y2126295D01*
X7869625Y2130150D01*
X7887958Y2133423D01*
X7906594Y2136114D01*
X7925531Y2138223D01*
X7944771Y2139751D01*
X7964312Y2140696D01*
X8008409Y2140573D01*
G37*
G36*
X13980607Y8786815D02*
G01*
X13783498Y8875822D01*
X13795014Y8892342D01*
X13980607Y8786815D01*
G37*
G36*
X13975270Y8767566D02*
G01*
X13762281Y8841092D01*
X13772587Y8858739D01*
X13975270Y8767566D01*
G37*
G36*
X13969008Y8727759D02*
G01*
X13734998Y8784769D01*
X13743487Y8804107D01*
X13969008Y8727759D01*
G37*
G36*
X13968082Y8707201D02*
G01*
X13714571Y8724911D01*
X13720462Y8745085D01*
X13968082Y8707201D01*
G37*
G36*
X13968626Y8686207D02*
G01*
X13709598Y8704516D01*
X13714571Y8724911D01*
X13968626Y8686207D01*
G37*
G36*
X13968626Y8686207D02*
G01*
X13705543Y8683899D01*
X13709598Y8704516D01*
X13968626Y8686207D01*
G37*
G36*
X13968082Y8707201D02*
G01*
X13720462Y8745085D01*
X13727271Y8765038D01*
X13968082Y8707201D01*
G37*
G36*
X13698503Y8599215D02*
G01*
X13698886Y8620718D01*
X13973958Y8644340D01*
X13698503Y8599215D01*
G37*
G36*
X13700490Y8555544D02*
G01*
X13699037Y8577490D01*
X13978622Y8624644D01*
X13700490Y8555544D01*
G37*
G36*
X13717570Y8458218D02*
G01*
X13709008Y8495145D01*
X14000700Y8569999D01*
X13717570Y8458218D01*
G37*
G36*
X13728546Y8422594D02*
G01*
X13717570Y8458218D01*
X14000700Y8569999D01*
X13728546Y8422594D01*
G37*
G36*
X13775966Y8323543D02*
G01*
X13757745Y8355256D01*
X14034905Y8522020D01*
X13775966Y8323543D01*
G37*
G36*
X13796603Y8293132D02*
G01*
X13775966Y8323543D01*
X14034905Y8522020D01*
X13796603Y8293132D01*
G37*
G36*
X13845122Y8236222D02*
G01*
X13819655Y8264026D01*
X14064446Y8493737D01*
X13845122Y8236222D01*
G37*
G36*
X13903300Y8184525D02*
G01*
X13873004Y8209722D01*
X14099377Y8468417D01*
X13903300Y8184525D01*
G37*
G36*
X13936012Y8160632D02*
G01*
X13903300Y8184525D01*
X14099377Y8468417D01*
X13936012Y8160632D01*
G37*
G36*
X13968082Y8707201D02*
G01*
X13968626Y8686207D01*
X13714571Y8724911D01*
X13968082Y8707201D01*
G37*
G36*
X14293311Y8416737D02*
G01*
X14262077Y8055117D01*
X14264319Y8418421D01*
X14293311Y8416737D01*
G37*
G36*
X14360690Y8053868D02*
G01*
X14310529Y8053236D01*
X14323660Y8416419D01*
X14360690Y8053868D01*
G37*
G36*
X14412561Y8057013D02*
G01*
X14355367Y8417466D01*
X14388430Y8419877D01*
X14412561Y8057013D01*
G37*
G36*
X14466142Y8062671D02*
G01*
X14422851Y8423653D01*
X14459520Y8428889D01*
X14466142Y8062671D01*
G37*
G36*
X14573226Y8080901D02*
G01*
X14520866Y8070779D01*
X14494284Y8435040D01*
X14573226Y8080901D01*
G37*
G36*
X14623221Y8093036D02*
G01*
X14573226Y8080901D01*
X14527143Y8442106D01*
X14623221Y8093036D01*
G37*
G36*
X14837725Y8183908D02*
G01*
X14799553Y8161707D01*
X14639532Y8479519D01*
X14837725Y8183908D01*
G37*
G36*
X14837725Y8183908D02*
G01*
X14639532Y8479519D01*
X14662868Y8491159D01*
X14837725Y8183908D01*
G37*
G36*
X14938051Y8262591D02*
G01*
X14703824Y8517184D01*
X14721444Y8531569D01*
X14938051Y8262591D01*
G37*
G36*
X14966763Y8292845D02*
G01*
X14938051Y8262591D01*
X14721444Y8531569D01*
X14966763Y8292845D01*
G37*
G36*
X15016412Y8356637D02*
G01*
X14737160Y8546869D01*
X14751199Y8562828D01*
X15016412Y8356637D01*
G37*
G36*
X15016412Y8356637D02*
G01*
X14992941Y8324423D01*
X14737160Y8546869D01*
X15016412Y8356637D01*
G37*
G36*
X15070592Y8457088D02*
G01*
X15055238Y8422969D01*
X14774933Y8595956D01*
X15070592Y8457088D01*
G37*
G36*
X15070592Y8457088D02*
G01*
X14774933Y8595956D01*
X14784627Y8613124D01*
X15070592Y8457088D01*
G37*
G36*
X15093183Y8527231D02*
G01*
X15083241Y8491842D01*
X14784627Y8613124D01*
X15093183Y8527231D01*
G37*
G36*
X15100420Y8563255D02*
G01*
X15093183Y8527231D01*
X14792873Y8630697D01*
X15100420Y8563255D01*
G37*
G36*
X15105896Y8675139D02*
G01*
X14811374Y8705019D01*
X15102310Y8713704D01*
X15105896Y8675139D01*
G37*
G36*
X15065073Y8849928D02*
G01*
X14806605Y8786067D01*
X15057826Y8865305D01*
X15065073Y8849928D01*
G37*
G36*
X15077840Y8818073D02*
G01*
X14810043Y8764995D01*
X15071745Y8834184D01*
X15077840Y8818073D01*
G37*
G36*
X15071745Y8834184D02*
G01*
X14810043Y8764995D01*
X15065073Y8849928D01*
X15071745Y8834184D01*
G37*
G36*
X15050001Y8880316D02*
G01*
X14806605Y8786067D01*
X15041601Y8894959D01*
X15050001Y8880316D01*
G37*
G36*
X15022913Y8923339D02*
G01*
X14795445Y8826010D01*
X15012309Y8937462D01*
X15022913Y8923339D01*
G37*
G36*
X15041601Y8894959D02*
G01*
X14801739Y8806405D01*
X15032624Y8909236D01*
X15041601Y8894959D01*
G37*
G36*
X15032624Y8909236D02*
G01*
X14801739Y8806405D01*
X15022913Y8923339D01*
X15032624Y8909236D01*
G37*
G36*
X15012309Y8937462D02*
G01*
X14795445Y8826010D01*
X15000813Y8951605D01*
X15012309Y8937462D01*
G37*
G36*
X14988424Y8965769D02*
G01*
X14787722Y8844882D01*
X14975143Y8979953D01*
X14988424Y8965769D01*
G37*
G36*
X14975143Y8979953D02*
G01*
X14787722Y8844882D01*
X14960970Y8994157D01*
X14975143Y8979953D01*
G37*
G36*
X14945904Y9008380D02*
G01*
X14767990Y8880426D01*
X14929946Y9022624D01*
X14945904Y9008380D01*
G37*
G36*
X14913096Y9036889D02*
G01*
X14755981Y8897098D01*
X14895353Y9051173D01*
X14913096Y9036889D01*
G37*
G36*
X14876717Y9065477D02*
G01*
X14727679Y8928243D01*
X14857190Y9079802D01*
X14876717Y9065477D01*
G37*
G36*
X15531853Y9165501D02*
G01*
X14857190Y9079802D01*
X15486841Y9519857D01*
X15531853Y9165501D01*
G37*
G36*
X13876830Y8979618D02*
G01*
X13680105Y8954629D01*
X13638137Y9285025D01*
X13876830Y8979618D01*
G37*
G36*
X13995691Y8824006D02*
G01*
X13833197Y8938517D01*
X13847136Y8952781D01*
X13995691Y8824006D01*
G37*
G36*
X13995691Y8824006D02*
G01*
X13819864Y8923689D01*
X13833197Y8938517D01*
X13995691Y8824006D01*
G37*
G36*
X13987414Y8805628D02*
G01*
X13795014Y8892342D01*
X13807136Y8908297D01*
X13987414Y8805628D01*
G37*
G36*
X13971404Y8747881D02*
G01*
X13752582Y8822881D01*
X13762281Y8841092D01*
X13971404Y8747881D01*
G37*
G36*
X13700187Y8642000D02*
G01*
X13702406Y8663060D01*
X13970641Y8664777D01*
X13700187Y8642000D01*
G37*
G36*
X13970641Y8664777D02*
G01*
X13702406Y8663060D01*
X13705543Y8683899D01*
X13970641Y8664777D01*
G37*
G36*
X13699037Y8577490D02*
G01*
X13698503Y8599215D01*
X13978622Y8624644D01*
X13699037Y8577490D01*
G37*
G36*
X13709008Y8495145D02*
G01*
X13702861Y8533376D01*
X13991993Y8587473D01*
X13709008Y8495145D01*
G37*
G36*
X13757745Y8355256D02*
G01*
X13741938Y8388274D01*
X14022156Y8537272D01*
X13757745Y8355256D01*
G37*
G36*
X13873004Y8209722D02*
G01*
X13845122Y8236222D01*
X14081238Y8480707D01*
X13873004Y8209722D01*
G37*
G36*
X13969008Y8727759D02*
G01*
X13968082Y8707201D01*
X13727271Y8765038D01*
X13969008Y8727759D01*
G37*
G36*
X13970641Y8664777D02*
G01*
X13705543Y8683899D01*
X13968626Y8686207D01*
X13970641Y8664777D01*
G37*
G36*
X14323660Y8416419D02*
G01*
X14310529Y8053236D01*
X14293311Y8416737D01*
X14323660Y8416419D01*
G37*
G36*
X14466142Y8062671D02*
G01*
X14388430Y8419877D01*
X14422851Y8423653D01*
X14466142Y8062671D01*
G37*
G36*
X14573226Y8080901D02*
G01*
X14494284Y8435040D01*
X14527143Y8442106D01*
X14573226Y8080901D01*
G37*
G36*
X14759017Y8141519D02*
G01*
X14614292Y8468794D01*
X14639532Y8479519D01*
X14759017Y8141519D01*
G37*
G36*
X14906973Y8234350D02*
G01*
X14684298Y8503714D01*
X14703824Y8517184D01*
X14906973Y8234350D01*
G37*
G36*
X14992941Y8324423D02*
G01*
X14966763Y8292845D01*
X14737160Y8546869D01*
X14992941Y8324423D01*
G37*
G36*
X15055238Y8422969D02*
G01*
X15037178Y8389485D01*
X14763790Y8579190D01*
X15055238Y8422969D01*
G37*
G36*
X15083241Y8491842D02*
G01*
X15070592Y8457088D01*
X14784627Y8613124D01*
X15083241Y8491842D01*
G37*
G36*
X15096459Y8749961D02*
G01*
X14812379Y8724608D01*
X15092669Y8767539D01*
X15096459Y8749961D01*
G37*
G36*
X15000813Y8951605D02*
G01*
X14795445Y8826010D01*
X14988424Y8965769D01*
X15000813Y8951605D01*
G37*
G36*
X15057826Y8865305D02*
G01*
X14806605Y8786067D01*
X15050001Y8880316D01*
X15057826Y8865305D01*
G37*
G36*
X14806605Y8786067D02*
G01*
X14801739Y8806405D01*
X15041601Y8894959D01*
X14806605Y8786067D01*
G37*
G36*
X14811935Y8744600D02*
G01*
X14810043Y8764995D01*
X15077840Y8818073D01*
X14811935Y8744600D01*
G37*
G36*
X14960970Y8994157D02*
G01*
X14778570Y8863020D01*
X14945904Y9008380D01*
X14960970Y8994157D01*
G37*
G36*
X14895353Y9051173D02*
G01*
X14742544Y8913037D01*
X14876717Y9065477D01*
X14895353Y9051173D01*
G37*
G36*
X14159705Y8973264D02*
G01*
X13876830Y8979618D01*
X13638137Y9285025D01*
X14159705Y8973264D01*
G37*
G36*
X14005439Y8841946D02*
G01*
X13847136Y8952781D01*
X13861680Y8966482D01*
X14005439Y8841946D01*
G37*
G36*
X13980607Y8786815D02*
G01*
X13772587Y8858739D01*
X13783498Y8875822D01*
X13980607Y8786815D01*
G37*
G36*
X13698886Y8620718D02*
G01*
X13700187Y8642000D01*
X13973958Y8644340D01*
X13698886Y8620718D01*
G37*
G36*
X13702861Y8533376D02*
G01*
X13700490Y8555544D01*
X13984634Y8605688D01*
X13702861Y8533376D01*
G37*
G36*
X13819655Y8264026D02*
G01*
X13796603Y8293132D01*
X14049002Y8507508D01*
X13819655Y8264026D01*
G37*
G36*
X13971404Y8747881D02*
G01*
X13969008Y8727759D01*
X13743487Y8804107D01*
X13971404Y8747881D01*
G37*
G36*
X13973958Y8644340D02*
G01*
X13700187Y8642000D01*
X13970641Y8664777D01*
X13973958Y8644340D01*
G37*
G36*
X14412561Y8057013D02*
G01*
X14360690Y8053868D01*
X14355367Y8417466D01*
X14412561Y8057013D01*
G37*
G36*
X14759017Y8141519D02*
G01*
X14716116Y8123345D01*
X14614292Y8468794D01*
X14759017Y8141519D01*
G37*
G36*
X14906973Y8234350D02*
G01*
X14873531Y8208122D01*
X14684298Y8503714D01*
X14906973Y8234350D01*
G37*
G36*
X15037178Y8389485D02*
G01*
X15016412Y8356637D01*
X14751199Y8562828D01*
X15037178Y8389485D01*
G37*
G36*
X15083360Y8801596D02*
G01*
X14811935Y8744600D01*
X15077840Y8818073D01*
X15083360Y8801596D01*
G37*
G36*
X14810043Y8764995D02*
G01*
X14806605Y8786067D01*
X15065073Y8849928D01*
X14810043Y8764995D01*
G37*
G36*
X15088302Y8784751D02*
G01*
X14811935Y8744600D01*
X15083360Y8801596D01*
X15088302Y8784751D01*
G37*
G36*
X14435794Y9024432D02*
G01*
X13638137Y9285025D01*
X15486841Y9519857D01*
X14435794Y9024432D01*
G37*
G36*
X13987414Y8805628D02*
G01*
X13807136Y8908297D01*
X13819864Y8923689D01*
X13987414Y8805628D01*
G37*
G36*
X13969008Y8727759D02*
G01*
X13727271Y8765038D01*
X13734998Y8784769D01*
X13969008Y8727759D01*
G37*
G36*
X13741938Y8388274D02*
G01*
X13728546Y8422594D01*
X14010754Y8553265D01*
X13741938Y8388274D01*
G37*
G36*
X13978622Y8624644D02*
G01*
X13698503Y8599215D01*
X13973958Y8644340D01*
X13978622Y8624644D01*
G37*
G36*
X14520866Y8070779D02*
G01*
X14459520Y8428889D01*
X14494284Y8435040D01*
X14520866Y8070779D01*
G37*
G36*
X14873531Y8208122D02*
G01*
X14837725Y8183908D01*
X14662868Y8491159D01*
X14873531Y8208122D01*
G37*
G36*
X15092669Y8767539D02*
G01*
X14811935Y8744600D01*
X15088302Y8784751D01*
X15092669Y8767539D01*
G37*
G36*
X14929946Y9022624D02*
G01*
X14767990Y8880426D01*
X14913096Y9036889D01*
X14929946Y9022624D01*
G37*
G36*
X13971404Y8747881D02*
G01*
X13743487Y8804107D01*
X13752582Y8822881D01*
X13971404Y8747881D01*
G37*
G36*
X13975270Y8767566D02*
G01*
X13971404Y8747881D01*
X13762281Y8841092D01*
X13975270Y8767566D01*
G37*
G36*
X13984634Y8605688D02*
G01*
X13700490Y8555544D01*
X13978622Y8624644D01*
X13984634Y8605688D01*
G37*
G36*
X14716116Y8123345D02*
G01*
X14670851Y8107184D01*
X14587148Y8458983D01*
X14716116Y8123345D01*
G37*
G36*
X15099673Y8732016D02*
G01*
X14812379Y8724608D01*
X15096459Y8749961D01*
X15099673Y8732016D01*
G37*
G36*
X13980607Y8786815D02*
G01*
X13975270Y8767566D01*
X13772587Y8858739D01*
X13980607Y8786815D01*
G37*
G36*
X13991993Y8587473D02*
G01*
X13702861Y8533376D01*
X13984634Y8605688D01*
X13991993Y8587473D01*
G37*
G36*
X13987414Y8805628D02*
G01*
X13980607Y8786815D01*
X13795014Y8892342D01*
X13987414Y8805628D01*
G37*
G36*
X14000700Y8569999D02*
G01*
X13709008Y8495145D01*
X13991993Y8587473D01*
X14000700Y8569999D01*
G37*
G36*
X13995691Y8824006D02*
G01*
X13987414Y8805628D01*
X13819864Y8923689D01*
X13995691Y8824006D01*
G37*
G36*
X14010754Y8553265D02*
G01*
X13728546Y8422594D01*
X14000700Y8569999D01*
X14010754Y8553265D01*
G37*
G36*
X14005439Y8841946D02*
G01*
X13995691Y8824006D01*
X13847136Y8952781D01*
X14005439Y8841946D01*
G37*
G36*
X14022156Y8537272D02*
G01*
X13741938Y8388274D01*
X14010754Y8553265D01*
X14022156Y8537272D01*
G37*
G36*
X14005439Y8841946D02*
G01*
X13861680Y8966482D01*
X13876830Y8979618D01*
X14005439Y8841946D01*
G37*
G36*
X14034905Y8522020D02*
G01*
X13757745Y8355256D01*
X14022156Y8537272D01*
X14034905Y8522020D01*
G37*
G36*
X14016657Y8859451D02*
G01*
X14005439Y8841946D01*
X13876830Y8979618D01*
X14016657Y8859451D01*
G37*
G36*
X14049002Y8507508D02*
G01*
X13796603Y8293132D01*
X14034905Y8522020D01*
X14049002Y8507508D01*
G37*
G36*
X14029345Y8876520D02*
G01*
X14016657Y8859451D01*
X13876830Y8979618D01*
X14029345Y8876520D01*
G37*
G36*
X14064446Y8493737D02*
G01*
X13819655Y8264026D01*
X14049002Y8507508D01*
X14064446Y8493737D01*
G37*
G36*
X14043503Y8893152D02*
G01*
X14029345Y8876520D01*
X13876830Y8979618D01*
X14043503Y8893152D01*
G37*
G36*
X14081238Y8480707D02*
G01*
X13845122Y8236222D01*
X14064446Y8493737D01*
X14081238Y8480707D01*
G37*
G36*
X14059142Y8909056D02*
G01*
X14043503Y8893152D01*
X13876830Y8979618D01*
X14059142Y8909056D01*
G37*
G36*
X14099377Y8468417D02*
G01*
X13873004Y8209722D01*
X14081238Y8480707D01*
X14099377Y8468417D01*
G37*
G36*
X14076273Y8923939D02*
G01*
X14059142Y8909056D01*
X13876830Y8979618D01*
X14076273Y8923939D01*
G37*
G36*
X14118869Y8457181D02*
G01*
X13936012Y8160632D01*
X14099377Y8468417D01*
X14118869Y8457181D01*
G37*
G36*
X14094894Y8937802D02*
G01*
X14076273Y8923939D01*
X13876830Y8979618D01*
X14094894Y8937802D01*
G37*
G36*
X13970787Y8138647D02*
G01*
X13936012Y8160632D01*
X14118869Y8457181D01*
X13970787Y8138647D01*
G37*
G36*
X14115007Y8950643D02*
G01*
X14094894Y8937802D01*
X13876830Y8979618D01*
X14115007Y8950643D01*
G37*
G36*
X14139718Y8447309D02*
G01*
X13970787Y8138647D01*
X14118869Y8457181D01*
X14139718Y8447309D01*
G37*
G36*
X14136610Y8962464D02*
G01*
X14115007Y8950643D01*
X13876830Y8979618D01*
X14136610Y8962464D01*
G37*
G36*
X14007271Y8119175D02*
G01*
X13970787Y8138647D01*
X14139718Y8447309D01*
X14007271Y8119175D01*
G37*
G36*
X14159705Y8973264D02*
G01*
X14136610Y8962464D01*
X13876830Y8979618D01*
X14159705Y8973264D01*
G37*
G36*
X14161923Y8438801D02*
G01*
X14007271Y8119175D01*
X14139718Y8447309D01*
X14161923Y8438801D01*
G37*
G36*
X14184291Y8983043D02*
G01*
X14159705Y8973264D01*
X13638137Y9285025D01*
X14184291Y8983043D01*
G37*
G36*
X14045464Y8102216D02*
G01*
X14007271Y8119175D01*
X14161923Y8438801D01*
X14045464Y8102216D01*
G37*
G36*
X14210368Y8991802D02*
G01*
X14184291Y8983043D01*
X13638137Y9285025D01*
X14210368Y8991802D01*
G37*
G36*
X14185487Y8431659D02*
G01*
X14045464Y8102216D01*
X14161923Y8438801D01*
X14185487Y8431659D01*
G37*
G36*
X14237937Y8999539D02*
G01*
X14210368Y8991802D01*
X13638137Y9285025D01*
X14237937Y8999539D01*
G37*
G36*
X14085367Y8087770D02*
G01*
X14045464Y8102216D01*
X14185487Y8431659D01*
X14085367Y8087770D01*
G37*
G36*
X14266996Y9006256D02*
G01*
X14237937Y8999539D01*
X13638137Y9285025D01*
X14266996Y9006256D01*
G37*
G36*
X14126980Y8075837D02*
G01*
X14085367Y8087770D01*
X14185487Y8431659D01*
X14126980Y8075837D01*
G37*
G36*
X14297547Y9011952D02*
G01*
X14266996Y9006256D01*
X13638137Y9285025D01*
X14297547Y9011952D01*
G37*
G36*
X14210407Y8425881D02*
G01*
X14126980Y8075837D01*
X14185487Y8431659D01*
X14210407Y8425881D01*
G37*
G36*
X14329589Y9016627D02*
G01*
X14297547Y9011952D01*
X13638137Y9285025D01*
X14329589Y9016627D01*
G37*
G36*
X14170303Y8066417D02*
G01*
X14126980Y8075837D01*
X14210407Y8425881D01*
X14170303Y8066417D01*
G37*
G36*
X14366470Y9020681D02*
G01*
X14329589Y9016627D01*
X13638137Y9285025D01*
X14366470Y9020681D01*
G37*
G36*
X14236685Y8421469D02*
G01*
X14170303Y8066417D01*
X14210407Y8425881D01*
X14236685Y8421469D01*
G37*
G36*
X14401872Y9023282D02*
G01*
X14366470Y9020681D01*
X13638137Y9285025D01*
X14401872Y9023282D01*
G37*
G36*
X14215335Y8059511D02*
G01*
X14170303Y8066417D01*
X14236685Y8421469D01*
X14215335Y8059511D01*
G37*
G36*
X14435794Y9024432D02*
G01*
X14401872Y9023282D01*
X13638137Y9285025D01*
X14435794Y9024432D01*
G37*
G36*
X14264319Y8418421D02*
G01*
X14215335Y8059511D01*
X14236685Y8421469D01*
X14264319Y8418421D01*
G37*
G36*
X14468237Y9024130D02*
G01*
X14435794Y9024432D01*
X15486841Y9519857D01*
X14468237Y9024130D01*
G37*
G36*
X14262077Y8055117D02*
G01*
X14215335Y8059511D01*
X14264319Y8418421D01*
X14262077Y8055117D01*
G37*
G36*
X14857190Y9079802D02*
G01*
X14468237Y9024130D01*
X15486841Y9519857D01*
X14857190Y9079802D01*
G37*
G36*
X14310529Y8053236D02*
G01*
X14262077Y8055117D01*
X14293311Y8416737D01*
X14310529Y8053236D01*
G37*
G36*
X14499200Y9022377D02*
G01*
X14468237Y9024130D01*
X14857190Y9079802D01*
X14499200Y9022377D01*
G37*
G36*
X14360690Y8053868D02*
G01*
X14323660Y8416419D01*
X14355367Y8417466D01*
X14360690Y8053868D01*
G37*
G36*
X14528683Y9019173D02*
G01*
X14499200Y9022377D01*
X14857190Y9079802D01*
X14528683Y9019173D01*
G37*
G36*
X14466142Y8062671D02*
G01*
X14412561Y8057013D01*
X14388430Y8419877D01*
X14466142Y8062671D01*
G37*
G36*
X14556687Y9014516D02*
G01*
X14528683Y9019173D01*
X14857190Y9079802D01*
X14556687Y9014516D01*
G37*
G36*
X14520866Y8070779D02*
G01*
X14466142Y8062671D01*
X14459520Y8428889D01*
X14520866Y8070779D01*
G37*
G36*
X14583211Y9008409D02*
G01*
X14556687Y9014516D01*
X14857190Y9079802D01*
X14583211Y9008409D01*
G37*
G36*
X14623221Y8093036D02*
G01*
X14527143Y8442106D01*
X14558098Y8450087D01*
X14623221Y8093036D01*
G37*
G36*
X14608255Y9000849D02*
G01*
X14583211Y9008409D01*
X14857190Y9079802D01*
X14608255Y9000849D01*
G37*
G36*
X14670851Y8107184D02*
G01*
X14623221Y8093036D01*
X14558098Y8450087D01*
X14670851Y8107184D01*
G37*
G36*
X14631820Y8991838D02*
G01*
X14608255Y9000849D01*
X14857190Y9079802D01*
X14631820Y8991838D01*
G37*
G36*
X14670851Y8107184D02*
G01*
X14558098Y8450087D01*
X14587148Y8458983D01*
X14670851Y8107184D01*
G37*
G36*
X14653905Y8981376D02*
G01*
X14631820Y8991838D01*
X14857190Y9079802D01*
X14653905Y8981376D01*
G37*
G36*
X14716116Y8123345D02*
G01*
X14587148Y8458983D01*
X14614292Y8468794D01*
X14716116Y8123345D01*
G37*
G36*
X14674510Y8969462D02*
G01*
X14653905Y8981376D01*
X14857190Y9079802D01*
X14674510Y8969462D01*
G37*
G36*
X14799553Y8161707D02*
G01*
X14759017Y8141519D01*
X14639532Y8479519D01*
X14799553Y8161707D01*
G37*
G36*
X14693662Y8956455D02*
G01*
X14674510Y8969462D01*
X14857190Y9079802D01*
X14693662Y8956455D01*
G37*
G36*
X14873531Y8208122D02*
G01*
X14662868Y8491159D01*
X14684298Y8503714D01*
X14873531Y8208122D01*
G37*
G36*
X14711384Y8942716D02*
G01*
X14693662Y8956455D01*
X14857190Y9079802D01*
X14711384Y8942716D01*
G37*
G36*
X14938051Y8262591D02*
G01*
X14906973Y8234350D01*
X14703824Y8517184D01*
X14938051Y8262591D01*
G37*
G36*
X14727679Y8928243D02*
G01*
X14711384Y8942716D01*
X14857190Y9079802D01*
X14727679Y8928243D01*
G37*
G36*
X14966763Y8292845D02*
G01*
X14721444Y8531569D01*
X14737160Y8546869D01*
X14966763Y8292845D01*
G37*
G36*
X14742544Y8913037D02*
G01*
X14727679Y8928243D01*
X14876717Y9065477D01*
X14742544Y8913037D01*
G37*
G36*
X15037178Y8389485D02*
G01*
X14751199Y8562828D01*
X14763790Y8579190D01*
X15037178Y8389485D01*
G37*
G36*
X14755981Y8897098D02*
G01*
X14742544Y8913037D01*
X14895353Y9051173D01*
X14755981Y8897098D01*
G37*
G36*
X15055238Y8422969D02*
G01*
X14763790Y8579190D01*
X14774933Y8595956D01*
X15055238Y8422969D01*
G37*
G36*
X14767990Y8880426D02*
G01*
X14755981Y8897098D01*
X14913096Y9036889D01*
X14767990Y8880426D01*
G37*
G36*
X15093183Y8527231D02*
G01*
X14784627Y8613124D01*
X14792873Y8630697D01*
X15093183Y8527231D01*
G37*
G36*
X14778570Y8863020D02*
G01*
X14767990Y8880426D01*
X14945904Y9008380D01*
X14778570Y8863020D01*
G37*
G36*
X15100420Y8563255D02*
G01*
X14792873Y8630697D01*
X14799671Y8648672D01*
X15100420Y8563255D01*
G37*
G36*
X14787722Y8844882D02*
G01*
X14778570Y8863020D01*
X14960970Y8994157D01*
X14787722Y8844882D01*
G37*
G36*
X15104951Y8599915D02*
G01*
X15100420Y8563255D01*
X14799671Y8648672D01*
X15104951Y8599915D01*
G37*
G36*
X14795445Y8826010D02*
G01*
X14787722Y8844882D01*
X14988424Y8965769D01*
X14795445Y8826010D01*
G37*
G36*
X15104951Y8599915D02*
G01*
X14799671Y8648672D01*
X14805020Y8667051D01*
X15104951Y8599915D01*
G37*
G36*
X14801739Y8806405D02*
G01*
X14795445Y8826010D01*
X15022913Y8923339D01*
X14801739Y8806405D01*
G37*
G36*
X15106777Y8637209D02*
G01*
X15104951Y8599915D01*
X14805020Y8667051D01*
X15106777Y8637209D01*
G37*
G36*
X14812379Y8724608D02*
G01*
X14811935Y8744600D01*
X15092669Y8767539D01*
X14812379Y8724608D01*
G37*
G36*
X15106777Y8637209D02*
G01*
X14805020Y8667051D01*
X14808921Y8685833D01*
X15106777Y8637209D01*
G37*
G36*
X14811374Y8705019D02*
G01*
X14812379Y8724608D01*
X15099673Y8732016D01*
X14811374Y8705019D01*
G37*
G36*
X15105896Y8675139D02*
G01*
X15106777Y8637209D01*
X14808921Y8685833D01*
X15105896Y8675139D01*
G37*
G36*
X15102310Y8713704D02*
G01*
X14811374Y8705019D01*
X15099673Y8732016D01*
X15102310Y8713704D01*
G37*
G36*
X15105896Y8675139D02*
G01*
X14808921Y8685833D01*
X14811374Y8705019D01*
X15105896Y8675139D01*
G37*
G36*
X14636361Y7595750D02*
G01*
X14667201Y7590973D01*
X14696809Y7585696D01*
X14725186Y7579918D01*
X14752332Y7573639D01*
X14778246Y7566860D01*
X14802929Y7559580D01*
X14826380Y7551800D01*
X14848599Y7543519D01*
X14869588Y7534737D01*
X14889344Y7525455D01*
X14907870Y7515672D01*
X14925164Y7505388D01*
X14941451Y7494491D01*
X14956955Y7482869D01*
X14971678Y7470521D01*
X14985618Y7457447D01*
X14998776Y7443647D01*
X15011152Y7429121D01*
X15022745Y7413870D01*
X15033556Y7397893D01*
X15043585Y7381190D01*
X15052832Y7363761D01*
X15061297Y7345607D01*
X15068979Y7326726D01*
X15075831Y7307350D01*
X15081808Y7287707D01*
X15086907Y7267799D01*
X15091130Y7247623D01*
X15094476Y7227182D01*
X15096945Y7206474D01*
X15098538Y7185500D01*
X15099254Y7164260D01*
X15099093Y7142754D01*
X15098056Y7120981D01*
X15096142Y7098942D01*
X15093351Y7076637D01*
X15089768Y7054771D01*
X15085355Y7033213D01*
X15080111Y7011960D01*
X15074038Y6991015D01*
X15067135Y6970376D01*
X15059402Y6950044D01*
X15050839Y6930019D01*
X15041446Y6910300D01*
X15031224Y6890888D01*
X15020171Y6871783D01*
X15008289Y6852985D01*
X14995577Y6834493D01*
X14982181Y6816519D01*
X14968247Y6799273D01*
X14953777Y6782756D01*
X14938769Y6766967D01*
X14923224Y6751906D01*
X14907141Y6737574D01*
X14890521Y6723970D01*
X14873364Y6711094D01*
X14855670Y6698947D01*
X14837438Y6687528D01*
X14818669Y6676838D01*
X14799362Y6666876D01*
X14999420Y6638087D01*
X14952163Y6309690D01*
X13615928Y6501978D01*
X13666806Y6855539D01*
X14230491Y6774424D01*
X14276849Y6767940D01*
X14320298Y6762249D01*
X14360837Y6757352D01*
X14398467Y6753248D01*
X14433188Y6749937D01*
X14465000Y6747420D01*
X14493902Y6745695D01*
X14519895Y6744764D01*
X14542979Y6744626D01*
X14563154Y6745282D01*
X14580419Y6746730D01*
X14594775Y6748972D01*
X14607556Y6751949D01*
X14620095Y6755603D01*
X14632392Y6759933D01*
X14644449Y6764941D01*
X14656263Y6770626D01*
X14667836Y6776987D01*
X14679168Y6784025D01*
X14690258Y6791740D01*
X14701107Y6800132D01*
X14711714Y6809201D01*
X14722080Y6818947D01*
X14732204Y6829370D01*
X14741881Y6840312D01*
X14750906Y6851615D01*
X14759278Y6863280D01*
X14766997Y6875306D01*
X14774064Y6887694D01*
X14780478Y6900443D01*
X14786240Y6913554D01*
X14791349Y6927026D01*
X14795806Y6940859D01*
X14799610Y6955054D01*
X14802762Y6969611D01*
X14805261Y6984529D01*
X14806876Y6997585D01*
X14807921Y7010331D01*
X14808395Y7022767D01*
X14808299Y7034892D01*
X14807631Y7046707D01*
X14806392Y7058212D01*
X14804583Y7069407D01*
X14802203Y7080291D01*
X14799252Y7090865D01*
X14795730Y7101129D01*
X14791637Y7111082D01*
X14786974Y7120726D01*
X14781809Y7130017D01*
X14776213Y7138916D01*
X14770186Y7147422D01*
X14763729Y7155536D01*
X14756840Y7163256D01*
X14749519Y7170584D01*
X14741768Y7177518D01*
X14733586Y7184060D01*
X14724972Y7190210D01*
X14715928Y7195966D01*
X14706452Y7201330D01*
X14696545Y7206300D01*
X14684888Y7211157D01*
X14670159Y7216180D01*
X14652359Y7221368D01*
X14631489Y7226721D01*
X14607547Y7232240D01*
X14580534Y7237924D01*
X14550451Y7243774D01*
X14517296Y7249789D01*
X14481071Y7255970D01*
X14441775Y7262316D01*
X14399407Y7268827D01*
X14353969Y7275504D01*
X13739955Y7363863D01*
X13790833Y7717424D01*
X14636361Y7595750D01*
G37*
G36*
X14747691Y5672002D02*
G01*
X14626716Y5335907D01*
X12873284Y5967039D01*
X12994258Y6303134D01*
X14747691Y5672002D01*
G37*
G36*
X13429461Y5340383D02*
G01*
X13456326Y5336703D01*
X13482873Y5330973D01*
X13509104Y5323191D01*
X13535017Y5313358D01*
X13560613Y5301475D01*
X13585891Y5287540D01*
X13612665Y5270301D01*
X13637283Y5251756D01*
X13659747Y5231905D01*
X13680057Y5210747D01*
X13698212Y5188284D01*
X13714212Y5164515D01*
X13728058Y5139440D01*
X13739749Y5113058D01*
X13749285Y5085371D01*
X13756667Y5056377D01*
X13761894Y5026078D01*
X13764967Y4994472D01*
X13765362Y4969239D01*
X13763704Y4940111D01*
X13759995Y4907089D01*
X13754233Y4870172D01*
X13746419Y4829361D01*
X13736553Y4784655D01*
X13724634Y4736055D01*
X13710663Y4683560D01*
X13694641Y4627170D01*
X13676565Y4566886D01*
X13656438Y4502707D01*
X13634258Y4434634D01*
X13629697Y4419884D01*
X13625651Y4405896D01*
X13622120Y4392669D01*
X13619104Y4380204D01*
X13616604Y4368500D01*
X13614619Y4357558D01*
X13613149Y4347378D01*
X13612194Y4337960D01*
X13611755Y4329303D01*
X13611831Y4321408D01*
X13612422Y4314275D01*
X13613528Y4307904D01*
X13615356Y4302088D01*
X13617532Y4296477D01*
X13620056Y4291070D01*
X13622926Y4285867D01*
X13626145Y4280868D01*
X13629711Y4276073D01*
X13633624Y4271482D01*
X13637885Y4267095D01*
X13642494Y4262912D01*
X13647450Y4258933D01*
X13652754Y4255158D01*
X13658405Y4251587D01*
X13666983Y4246858D01*
X13675608Y4242863D01*
X13684278Y4239600D01*
X13692995Y4237070D01*
X13701757Y4235273D01*
X13710566Y4234209D01*
X13719421Y4233878D01*
X13728321Y4234279D01*
X13737268Y4235414D01*
X13746261Y4237281D01*
X13755299Y4239882D01*
X13764384Y4243215D01*
X13777568Y4249481D01*
X13790633Y4256927D01*
X13803579Y4265553D01*
X13816407Y4275361D01*
X13829115Y4286348D01*
X13841704Y4298516D01*
X13854175Y4311865D01*
X13866526Y4326394D01*
X13878759Y4342103D01*
X13890872Y4358993D01*
X13902867Y4377064D01*
X13914742Y4396315D01*
X13924954Y4414194D01*
X13934122Y4431790D01*
X13942249Y4449102D01*
X13949334Y4466130D01*
X13955376Y4482876D01*
X13960376Y4499337D01*
X13964334Y4515515D01*
X13967250Y4531410D01*
X13969124Y4547021D01*
X13969955Y4562349D01*
X13969745Y4577393D01*
X13968492Y4592153D01*
X13966251Y4606670D01*
X13963077Y4620982D01*
X13958969Y4635090D01*
X13953928Y4648994D01*
X13947954Y4662693D01*
X13941046Y4676187D01*
X13933205Y4689477D01*
X13924430Y4702563D01*
X13914722Y4715444D01*
X13904081Y4728121D01*
X13892506Y4740593D01*
X13879997Y4752861D01*
X14110383Y5032887D01*
X14132769Y5009039D01*
X14153408Y4984434D01*
X14172302Y4959070D01*
X14189449Y4932948D01*
X14204850Y4906068D01*
X14218505Y4878429D01*
X14230414Y4850033D01*
X14240577Y4820878D01*
X14248993Y4790965D01*
X14255664Y4760294D01*
X14260588Y4728865D01*
X14263767Y4696678D01*
X14264996Y4663822D01*
X14264073Y4630389D01*
X14260997Y4596378D01*
X14255768Y4561789D01*
X14248388Y4526623D01*
X14238855Y4490878D01*
X14227169Y4454556D01*
X14213331Y4417656D01*
X14197340Y4380178D01*
X14179198Y4342122D01*
X14158902Y4303488D01*
X14136454Y4264277D01*
X14110278Y4222133D01*
X14083565Y4182713D01*
X14056316Y4146017D01*
X14028532Y4112043D01*
X14000212Y4080793D01*
X13971356Y4052266D01*
X13941965Y4026463D01*
X13912037Y4003383D01*
X13881574Y3983026D01*
X13850575Y3965393D01*
X13819040Y3950483D01*
X13786969Y3938296D01*
X13754871Y3928582D01*
X13723252Y3921088D01*
X13692114Y3915816D01*
X13661456Y3912764D01*
X13631279Y3911934D01*
X13601581Y3913325D01*
X13572364Y3916936D01*
X13543627Y3922769D01*
X13515370Y3930823D01*
X13487593Y3941097D01*
X13460296Y3953593D01*
X13433480Y3968310D01*
X13409933Y3983237D01*
X13388076Y3998966D01*
X13367909Y4015497D01*
X13349432Y4032830D01*
X13332644Y4050965D01*
X13317547Y4069902D01*
X13304140Y4089640D01*
X13292423Y4110181D01*
X13282395Y4131523D01*
X13274058Y4153668D01*
X13267410Y4176614D01*
X13262453Y4200362D01*
X13259417Y4225508D01*
X13257955Y4252502D01*
X13258065Y4281344D01*
X13259748Y4312034D01*
X13263005Y4344571D01*
X13267834Y4378955D01*
X13274236Y4415188D01*
X13282211Y4453267D01*
X13291760Y4493195D01*
X13302881Y4534970D01*
X13315575Y4578593D01*
X13329842Y4624064D01*
X13344227Y4668940D01*
X13357277Y4710779D01*
X13368991Y4749581D01*
X13379369Y4785346D01*
X13388411Y4818075D01*
X13396117Y4847767D01*
X13402487Y4874422D01*
X13407521Y4898040D01*
X13411219Y4918621D01*
X13413582Y4936166D01*
X13414608Y4950673D01*
X13414299Y4962144D01*
X13413317Y4969346D01*
X13411945Y4976204D01*
X13410184Y4982719D01*
X13408034Y4988890D01*
X13405494Y4994718D01*
X13402565Y5000203D01*
X13399246Y5005344D01*
X13395538Y5010141D01*
X13391440Y5014595D01*
X13386953Y5018706D01*
X13382076Y5022474D01*
X13376810Y5025897D01*
X13370393Y5029390D01*
X13363884Y5032280D01*
X13357283Y5034567D01*
X13350591Y5036251D01*
X13343806Y5037333D01*
X13336930Y5037811D01*
X13329961Y5037687D01*
X13322901Y5036960D01*
X13315749Y5035630D01*
X13308505Y5033697D01*
X13301170Y5031161D01*
X13293742Y5028023D01*
X13282846Y5022028D01*
X13271851Y5014797D01*
X13260758Y5006331D01*
X13249565Y4996630D01*
X13238274Y4985692D01*
X13226884Y4973519D01*
X13215394Y4960110D01*
X13203806Y4945465D01*
X13192119Y4929585D01*
X13180334Y4912469D01*
X13168449Y4894117D01*
X13156465Y4874530D01*
X13147359Y4858669D01*
X13139119Y4843125D01*
X13131745Y4827897D01*
X13125238Y4812985D01*
X13119598Y4798390D01*
X13114823Y4784110D01*
X13110916Y4770147D01*
X13107874Y4756500D01*
X13105699Y4743170D01*
X13104391Y4730156D01*
X13103949Y4717457D01*
X13104373Y4705075D01*
X13105589Y4692952D01*
X13107520Y4681029D01*
X13110166Y4669307D01*
X13113528Y4657786D01*
X13117605Y4646465D01*
X13122398Y4635345D01*
X13127906Y4624426D01*
X13134129Y4613707D01*
X13141068Y4603189D01*
X13148722Y4592871D01*
X13157092Y4582755D01*
X13166177Y4572839D01*
X12940296Y4315283D01*
X12920144Y4337826D01*
X12901619Y4360756D01*
X12884723Y4384073D01*
X12869454Y4407776D01*
X12855813Y4431867D01*
X12843800Y4456344D01*
X12833414Y4481208D01*
X12824656Y4506459D01*
X12817526Y4532097D01*
X12812023Y4558122D01*
X12808149Y4584534D01*
X12805902Y4611332D01*
X12805513Y4638853D01*
X12807213Y4667431D01*
X12811002Y4697067D01*
X12816880Y4727760D01*
X12824846Y4759511D01*
X12834901Y4792319D01*
X12847046Y4826185D01*
X12861278Y4861109D01*
X12877600Y4897090D01*
X12896011Y4934129D01*
X12916510Y4972225D01*
X12939098Y5011378D01*
X12964094Y5051728D01*
X12989431Y5089409D01*
X13015111Y5124420D01*
X13041132Y5156762D01*
X13067495Y5186434D01*
X13094200Y5213436D01*
X13121247Y5237770D01*
X13148636Y5259433D01*
X13176366Y5278427D01*
X13204439Y5294752D01*
X13232853Y5308408D01*
X13261609Y5319393D01*
X13290377Y5328019D01*
X13318829Y5334594D01*
X13346962Y5339118D01*
X13374779Y5341590D01*
X13402278Y5342012D01*
X13429461Y5340383D01*
G37*
G36*
X12693506Y2647612D02*
G01*
X12663929Y2643041D01*
X12666376Y2955561D01*
X12693506Y2647612D01*
G37*
G36*
X12679198Y2954861D02*
G01*
X12693506Y2647612D01*
X12666376Y2955561D01*
X12679198Y2954861D01*
G37*
G36*
X12722876Y2653899D02*
G01*
X12679198Y2954861D01*
X12691744Y2954984D01*
X12722876Y2653899D01*
G37*
G36*
X12751970Y2661921D02*
G01*
X12722876Y2653899D01*
X12691744Y2954984D01*
X12751970Y2661921D01*
G37*
G36*
X12809328Y2683171D02*
G01*
X12780787Y2671679D01*
X12716055Y2957647D01*
X12809328Y2683171D01*
G37*
G36*
X12837593Y2696398D02*
G01*
X12727907Y2960073D01*
X12739570Y2963211D01*
X12837593Y2696398D01*
G37*
G36*
X12920730Y2746491D02*
G01*
X12893294Y2728059D01*
X12773434Y2976893D01*
X12920730Y2746491D01*
G37*
G36*
X12974774Y2788562D02*
G01*
X12947890Y2766659D01*
X12795070Y2989571D01*
X12974774Y2788562D01*
G37*
G36*
X13027713Y2837573D02*
G01*
X13001382Y2812200D01*
X12826115Y3013925D01*
X13027713Y2837573D01*
G37*
G36*
X13102518Y2921559D02*
G01*
X13067145Y2879337D01*
X12873940Y3069201D01*
X13102518Y2921559D01*
G37*
G36*
X13238280Y3322181D02*
G01*
X12910368Y3291703D01*
X13233075Y3368986D01*
X13238280Y3322181D01*
G37*
G36*
X13236515Y3229946D02*
G01*
X13229546Y3184516D01*
X12919046Y3231627D01*
X13236515Y3229946D01*
G37*
G36*
X13236515Y3229946D02*
G01*
X12919046Y3231627D01*
X12917620Y3251735D01*
X13236515Y3229946D01*
G37*
G36*
X13236515Y3229946D02*
G01*
X12917620Y3251735D01*
X13239426Y3275835D01*
X13236515Y3229946D01*
G37*
G36*
X12910368Y3291703D02*
G01*
X12904542Y3311563D01*
X13233075Y3368986D01*
X12910368Y3291703D01*
G37*
G36*
X13216505Y3443153D02*
G01*
X12897249Y3331341D01*
X13204830Y3479690D01*
X13216505Y3443153D01*
G37*
G36*
X13204830Y3479690D02*
G01*
X12888489Y3351036D01*
X13190897Y3515863D01*
X13204830Y3479690D01*
G37*
G36*
X13174703Y3551672D02*
G01*
X12866569Y3390180D01*
X13156251Y3587117D01*
X13174703Y3551672D01*
G37*
G36*
X13135539Y3622198D02*
G01*
X12838782Y3428993D01*
X13112568Y3656914D01*
X13135539Y3622198D01*
G37*
G36*
X13087338Y3691267D02*
G01*
X12805127Y3467477D01*
X13059849Y3725256D01*
X13087338Y3691267D01*
G37*
G36*
X13030100Y3758880D02*
G01*
X12805127Y3467477D01*
X12998091Y3792140D01*
X13030100Y3758880D01*
G37*
G36*
X12918339Y3864864D02*
G01*
X12645893Y3617444D01*
X12878027Y3896497D01*
X12918339Y3864864D01*
G37*
G36*
X12796532Y3950306D02*
G01*
X12593886Y3663408D01*
X12755348Y3972482D01*
X12796532Y3950306D01*
G37*
G36*
X12755348Y3972482D02*
G01*
X12576229Y3676007D01*
X12713874Y3991505D01*
X12755348Y3972482D01*
G37*
G36*
X12672109Y4007375D02*
G01*
X12522289Y3705640D01*
X12630054Y4020093D01*
X12672109Y4007375D01*
G37*
G36*
X12630054Y4020093D02*
G01*
X12503987Y3712796D01*
X12587708Y4029659D01*
X12630054Y4020093D01*
G37*
G36*
X12545072Y4036071D02*
G01*
X12466899Y3723025D01*
X12502145Y4039332D01*
X12545072Y4036071D01*
G37*
G36*
X12290970Y3696525D02*
G01*
X12275667Y3687054D01*
X12119301Y3917329D01*
X12290970Y3696525D01*
G37*
G36*
X12290970Y3696525D02*
G01*
X12119301Y3917329D01*
X12153276Y3942025D01*
X12290970Y3696525D01*
G37*
G36*
X12306712Y3704760D02*
G01*
X12290970Y3696525D01*
X12153276Y3942025D01*
X12306712Y3704760D01*
G37*
G36*
X12275667Y3687054D02*
G01*
X12086283Y3889856D01*
X12119301Y3917329D01*
X12275667Y3687054D01*
G37*
G36*
X12189839Y3595911D02*
G01*
X12181996Y3580913D01*
X11937952Y3711838D01*
X12189839Y3595911D01*
G37*
G36*
X12175272Y3565449D02*
G01*
X11916892Y3673139D01*
X11937952Y3711838D01*
X12175272Y3565449D01*
G37*
G36*
X12181996Y3580913D02*
G01*
X12175272Y3565449D01*
X11937952Y3711838D01*
X12181996Y3580913D01*
G37*
G36*
X12169665Y3549517D02*
G01*
X11899034Y3633739D01*
X11916892Y3673139D01*
X12169665Y3549517D01*
G37*
G36*
X12159552Y3498918D02*
G01*
X12158416Y3481118D01*
X11864678Y3511322D01*
X12159552Y3498918D01*
G37*
G36*
X12159660Y3444341D02*
G01*
X11857789Y3426198D01*
X11859632Y3469111D01*
X12159660Y3444341D01*
G37*
G36*
X12158398Y3462850D02*
G01*
X11859632Y3469111D01*
X12158416Y3481118D01*
X12158398Y3462850D01*
G37*
G36*
X12158398Y3462850D02*
G01*
X12159660Y3444341D01*
X11859632Y3469111D01*
X12158398Y3462850D01*
G37*
G36*
X11864041Y3338471D02*
G01*
X11859148Y3382582D01*
X12166510Y3407268D01*
X11864041Y3338471D01*
G37*
G36*
X11872798Y3294069D02*
G01*
X11864041Y3338471D01*
X12172098Y3388706D01*
X11872798Y3294069D01*
G37*
G36*
X12161805Y3516252D02*
G01*
X12159552Y3498918D01*
X11872928Y3552830D01*
X12161805Y3516252D01*
G37*
G36*
X11946468Y3113563D02*
G01*
X11922254Y3159124D01*
X12208868Y3314283D01*
X11946468Y3113563D01*
G37*
G36*
X12006487Y3021571D02*
G01*
X11974545Y3067712D01*
X12251586Y3258283D01*
X12006487Y3021571D01*
G37*
G36*
X12081963Y2928419D02*
G01*
X12042293Y2975140D01*
X12268710Y3239582D01*
X12081963Y2928419D01*
G37*
G36*
X12172896Y2834107D02*
G01*
X12268710Y3239582D01*
X12805127Y3467477D01*
X12172896Y2834107D01*
G37*
G36*
X12360519Y2690707D02*
G01*
X12329415Y2704812D01*
X12538586Y2998928D01*
X12360519Y2690707D01*
G37*
G36*
X12865582Y2711361D02*
G01*
X12837593Y2696398D01*
X12739570Y2963211D01*
X12865582Y2711361D01*
G37*
G36*
X12780787Y2671679D02*
G01*
X12704015Y2955932D01*
X12716055Y2957647D01*
X12780787Y2671679D01*
G37*
G36*
X12751970Y2661921D02*
G01*
X12691744Y2954984D01*
X12704015Y2955932D01*
X12751970Y2661921D01*
G37*
G36*
X12666376Y2955561D02*
G01*
X12663929Y2643041D01*
X12653278Y2957085D01*
X12666376Y2955561D01*
G37*
G36*
X12722876Y2653899D02*
G01*
X12693506Y2647612D01*
X12679198Y2954861D01*
X12722876Y2653899D01*
G37*
G36*
X12663929Y2643041D02*
G01*
X12634213Y2640168D01*
X12653278Y2957085D01*
X12663929Y2643041D01*
G37*
G36*
X12947890Y2766659D02*
G01*
X12920730Y2746491D01*
X12784346Y2982876D01*
X12947890Y2766659D01*
G37*
G36*
X13067145Y2879337D02*
G01*
X13027713Y2837573D01*
X12849973Y3038244D01*
X13067145Y2879337D01*
G37*
G36*
X13233075Y3368986D02*
G01*
X12904542Y3311563D01*
X13225920Y3406252D01*
X13233075Y3368986D01*
G37*
G36*
X13239426Y3275835D02*
G01*
X12914728Y3271760D01*
X13238280Y3322181D01*
X13239426Y3275835D01*
G37*
G36*
X12914728Y3271760D02*
G01*
X12910368Y3291703D01*
X13238280Y3322181D01*
X12914728Y3271760D01*
G37*
G36*
X13190897Y3515863D02*
G01*
X12878263Y3370649D01*
X13174703Y3551672D01*
X13190897Y3515863D01*
G37*
G36*
X13112568Y3656914D02*
G01*
X12822688Y3448276D01*
X13087338Y3691267D01*
X13112568Y3656914D01*
G37*
G36*
X12958360Y3830079D02*
G01*
X12645893Y3617444D01*
X12918339Y3864864D01*
X12958360Y3830079D01*
G37*
G36*
X12837425Y3924978D02*
G01*
X12611383Y3649448D01*
X12796532Y3950306D01*
X12837425Y3924978D01*
G37*
G36*
X12713874Y3991505D02*
G01*
X12558410Y3687246D01*
X12672109Y4007375D01*
X12713874Y3991505D01*
G37*
G36*
X12502145Y4039332D02*
G01*
X12448114Y3726098D01*
X12459552Y4039628D01*
X12502145Y4039332D01*
G37*
G36*
X12306712Y3704760D02*
G01*
X12153276Y3942025D01*
X12188209Y3963944D01*
X12306712Y3704760D01*
G37*
G36*
X12275667Y3687054D02*
G01*
X12260802Y3676348D01*
X12086283Y3889856D01*
X12275667Y3687054D01*
G37*
G36*
X12189839Y3595911D02*
G01*
X11937952Y3711838D01*
X11962216Y3749833D01*
X12189839Y3595911D01*
G37*
G36*
X12169665Y3549517D02*
G01*
X12165176Y3533118D01*
X11899034Y3633739D01*
X12169665Y3549517D01*
G37*
G36*
X12175272Y3565449D02*
G01*
X12169665Y3549517D01*
X11916892Y3673139D01*
X12175272Y3565449D01*
G37*
G36*
X11885419Y3249377D02*
G01*
X11872798Y3294069D01*
X12179127Y3370127D01*
X11885419Y3249377D01*
G37*
G36*
X12158416Y3481118D02*
G01*
X11859632Y3469111D01*
X11864678Y3511322D01*
X12158416Y3481118D01*
G37*
G36*
X12166510Y3407268D02*
G01*
X11859148Y3382582D01*
X12162364Y3425813D01*
X12166510Y3407268D01*
G37*
G36*
X11922254Y3159124D02*
G01*
X11901905Y3204396D01*
X12197513Y3332915D01*
X11922254Y3159124D01*
G37*
G36*
X12042293Y2975140D02*
G01*
X12006487Y3021571D01*
X12268710Y3239582D01*
X12042293Y2975140D01*
G37*
G36*
X12172896Y2834107D02*
G01*
X12125497Y2881408D01*
X12268710Y3239582D01*
X12172896Y2834107D01*
G37*
G36*
X12391485Y2678301D02*
G01*
X12360519Y2690707D01*
X12538586Y2998928D01*
X12391485Y2678301D01*
G37*
G36*
X12893294Y2728059D02*
G01*
X12865582Y2711361D01*
X12751046Y2967060D01*
X12893294Y2728059D01*
G37*
G36*
X12837593Y2696398D02*
G01*
X12809328Y2683171D01*
X12727907Y2960073D01*
X12837593Y2696398D01*
G37*
G36*
X12780787Y2671679D02*
G01*
X12751970Y2661921D01*
X12704015Y2955932D01*
X12780787Y2671679D01*
G37*
G36*
X13001382Y2812200D02*
G01*
X12974774Y2788562D01*
X12815955Y3005095D01*
X13001382Y2812200D01*
G37*
G36*
X13225920Y3406252D02*
G01*
X12897249Y3331341D01*
X13216505Y3443153D01*
X13225920Y3406252D01*
G37*
G36*
X12917620Y3251735D02*
G01*
X12914728Y3271760D01*
X13239426Y3275835D01*
X12917620Y3251735D01*
G37*
G36*
X13059849Y3725256D02*
G01*
X12805127Y3467477D01*
X13030100Y3758880D01*
X13059849Y3725256D01*
G37*
G36*
X12878027Y3896497D02*
G01*
X12628719Y3634126D01*
X12837425Y3924978D01*
X12878027Y3896497D01*
G37*
G36*
X12322891Y3711759D02*
G01*
X12306712Y3704760D01*
X12188209Y3963944D01*
X12322891Y3711759D01*
G37*
G36*
X12198799Y3610441D02*
G01*
X12189839Y3595911D01*
X11962216Y3749833D01*
X12198799Y3610441D01*
G37*
G36*
X12165176Y3533118D02*
G01*
X11884380Y3593635D01*
X11899034Y3633739D01*
X12165176Y3533118D01*
G37*
G36*
X12159552Y3498918D02*
G01*
X11864678Y3511322D01*
X11872928Y3552830D01*
X12159552Y3498918D01*
G37*
G36*
X11901905Y3204396D02*
G01*
X11885419Y3249377D01*
X12187599Y3351530D01*
X11901905Y3204396D01*
G37*
G36*
X12553886Y2990815D02*
G01*
X12391485Y2678301D01*
X12538586Y2998928D01*
X12553886Y2990815D01*
G37*
G36*
X12809328Y2683171D02*
G01*
X12716055Y2957647D01*
X12727907Y2960073D01*
X12809328Y2683171D01*
G37*
G36*
X12865582Y2711361D02*
G01*
X12739570Y2963211D01*
X12751046Y2967060D01*
X12865582Y2711361D01*
G37*
G36*
X12904542Y3311563D02*
G01*
X12897249Y3331341D01*
X13225920Y3406252D01*
X12904542Y3311563D01*
G37*
G36*
X12998091Y3792140D02*
G01*
X12645893Y3617444D01*
X12958360Y3830079D01*
X12998091Y3792140D01*
G37*
G36*
X12322891Y3711759D02*
G01*
X12188209Y3963944D01*
X12224100Y3983087D01*
X12322891Y3711759D01*
G37*
G36*
X12198799Y3610441D02*
G01*
X11962216Y3749833D01*
X11989682Y3787126D01*
X12198799Y3610441D01*
G37*
G36*
X12165176Y3533118D02*
G01*
X12161805Y3516252D01*
X11884380Y3593635D01*
X12165176Y3533118D01*
G37*
G36*
X12161805Y3516252D02*
G01*
X11872928Y3552830D01*
X11884380Y3593635D01*
X12161805Y3516252D01*
G37*
G36*
X12422312Y2667592D02*
G01*
X12391485Y2678301D01*
X12553886Y2990815D01*
X12422312Y2667592D01*
G37*
G36*
X12653278Y2957085D02*
G01*
X12634213Y2640168D01*
X12639906Y2959432D01*
X12653278Y2957085D01*
G37*
G36*
X13156251Y3587117D02*
G01*
X12853409Y3409628D01*
X13135539Y3622198D01*
X13156251Y3587117D01*
G37*
G36*
X12208876Y3624504D02*
G01*
X12198799Y3610441D01*
X11989682Y3787126D01*
X12208876Y3624504D01*
G37*
G36*
X12162364Y3425813D02*
G01*
X11857789Y3426198D01*
X12159660Y3444341D01*
X12162364Y3425813D01*
G37*
G36*
X11974545Y3067712D02*
G01*
X11946468Y3113563D01*
X12235905Y3276967D01*
X11974545Y3067712D01*
G37*
G36*
X12568911Y2983525D02*
G01*
X12422312Y2667592D01*
X12553886Y2990815D01*
X12568911Y2983525D01*
G37*
G36*
X12220072Y3638100D02*
G01*
X12208876Y3624504D01*
X11989682Y3787126D01*
X12220072Y3638100D01*
G37*
G36*
X12162364Y3425813D02*
G01*
X11859148Y3382582D01*
X11857789Y3426198D01*
X12162364Y3425813D01*
G37*
G36*
X12453000Y2658581D02*
G01*
X12422312Y2667592D01*
X12568911Y2983525D01*
X12453000Y2658581D01*
G37*
G36*
X12220072Y3638100D02*
G01*
X11989682Y3787126D01*
X12020351Y3823717D01*
X12220072Y3638100D01*
G37*
G36*
X12172098Y3388706D02*
G01*
X11864041Y3338471D01*
X12166510Y3407268D01*
X12172098Y3388706D01*
G37*
G36*
X12583661Y2977059D02*
G01*
X12453000Y2658581D01*
X12568911Y2983525D01*
X12583661Y2977059D01*
G37*
G36*
X12232385Y3651229D02*
G01*
X12220072Y3638100D01*
X12020351Y3823717D01*
X12232385Y3651229D01*
G37*
G36*
X12179127Y3370127D02*
G01*
X11872798Y3294069D01*
X12172098Y3388706D01*
X12179127Y3370127D01*
G37*
G36*
X12483549Y2651268D02*
G01*
X12453000Y2658581D01*
X12583661Y2977059D01*
X12483549Y2651268D01*
G37*
G36*
X12232385Y3651229D02*
G01*
X12020351Y3823717D01*
X12054222Y3859606D01*
X12232385Y3651229D01*
G37*
G36*
X12187599Y3351530D02*
G01*
X11885419Y3249377D01*
X12179127Y3370127D01*
X12187599Y3351530D01*
G37*
G36*
X12598135Y2971417D02*
G01*
X12483549Y2651268D01*
X12583661Y2977059D01*
X12598135Y2971417D01*
G37*
G36*
X12246374Y3664406D02*
G01*
X12232385Y3651229D01*
X12054222Y3859606D01*
X12246374Y3664406D01*
G37*
G36*
X12197513Y3332915D02*
G01*
X11901905Y3204396D01*
X12187599Y3351530D01*
X12197513Y3332915D01*
G37*
G36*
X12513960Y2645652D02*
G01*
X12483549Y2651268D01*
X12598135Y2971417D01*
X12513960Y2645652D01*
G37*
G36*
X12246374Y3664406D02*
G01*
X12054222Y3859606D01*
X12086283Y3889856D01*
X12246374Y3664406D01*
G37*
G36*
X12208868Y3314283D02*
G01*
X11922254Y3159124D01*
X12197513Y3332915D01*
X12208868Y3314283D01*
G37*
G36*
X12544231Y2641735D02*
G01*
X12513960Y2645652D01*
X12598135Y2971417D01*
X12544231Y2641735D01*
G37*
G36*
X12260802Y3676348D02*
G01*
X12246374Y3664406D01*
X12086283Y3889856D01*
X12260802Y3676348D01*
G37*
G36*
X12221666Y3295634D02*
G01*
X11946468Y3113563D01*
X12208868Y3314283D01*
X12221666Y3295634D01*
G37*
G36*
X12612334Y2966598D02*
G01*
X12544231Y2641735D01*
X12598135Y2971417D01*
X12612334Y2966598D01*
G37*
G36*
X12339509Y3717523D02*
G01*
X12322891Y3711759D01*
X12224100Y3983087D01*
X12339509Y3717523D01*
G37*
G36*
X12235905Y3276967D02*
G01*
X11946468Y3113563D01*
X12221666Y3295634D01*
X12235905Y3276967D01*
G37*
G36*
X12574364Y2639515D02*
G01*
X12544231Y2641735D01*
X12612334Y2966598D01*
X12574364Y2639515D01*
G37*
G36*
X12339509Y3717523D02*
G01*
X12224100Y3983087D01*
X12260948Y3999453D01*
X12339509Y3717523D01*
G37*
G36*
X12251586Y3258283D02*
G01*
X11974545Y3067712D01*
X12235905Y3276967D01*
X12251586Y3258283D01*
G37*
G36*
X12626258Y2962603D02*
G01*
X12574364Y2639515D01*
X12612334Y2966598D01*
X12626258Y2962603D01*
G37*
G36*
X12356565Y3722051D02*
G01*
X12339509Y3717523D01*
X12260948Y3999453D01*
X12356565Y3722051D01*
G37*
G36*
X12268710Y3239582D02*
G01*
X12006487Y3021571D01*
X12251586Y3258283D01*
X12268710Y3239582D01*
G37*
G36*
X12604358Y2638992D02*
G01*
X12574364Y2639515D01*
X12626258Y2962603D01*
X12604358Y2638992D01*
G37*
G36*
X12356565Y3722051D02*
G01*
X12260948Y3999453D01*
X12298754Y4013041D01*
X12356565Y3722051D01*
G37*
G36*
X12125497Y2881408D02*
G01*
X12081963Y2928419D01*
X12268710Y3239582D01*
X12125497Y2881408D01*
G37*
G36*
X12639906Y2959432D02*
G01*
X12604358Y2638992D01*
X12626258Y2962603D01*
X12639906Y2959432D01*
G37*
G36*
X12374058Y3725344D02*
G01*
X12356565Y3722051D01*
X12298754Y4013041D01*
X12374058Y3725344D01*
G37*
G36*
X12805127Y3467477D02*
G01*
X12268710Y3239582D01*
X12645893Y3617444D01*
X12805127Y3467477D01*
G37*
G36*
X12634213Y2640168D02*
G01*
X12604358Y2638992D01*
X12639906Y2959432D01*
X12634213Y2640168D01*
G37*
G36*
X12374058Y3725344D02*
G01*
X12298754Y4013041D01*
X12337517Y4023853D01*
X12374058Y3725344D01*
G37*
G36*
X12805127Y3467477D02*
G01*
X12645893Y3617444D01*
X12998091Y3792140D01*
X12805127Y3467477D01*
G37*
G36*
X12893294Y2728059D02*
G01*
X12751046Y2967060D01*
X12762334Y2971621D01*
X12893294Y2728059D01*
G37*
G36*
X12391990Y3727402D02*
G01*
X12374058Y3725344D01*
X12337517Y4023853D01*
X12391990Y3727402D01*
G37*
G36*
X12893294Y2728059D02*
G01*
X12762334Y2971621D01*
X12773434Y2976893D01*
X12893294Y2728059D01*
G37*
G36*
X12391990Y3727402D02*
G01*
X12337517Y4023853D01*
X12377238Y4031888D01*
X12391990Y3727402D01*
G37*
G36*
X12920730Y2746491D02*
G01*
X12773434Y2976893D01*
X12784346Y2982876D01*
X12920730Y2746491D01*
G37*
G36*
X12410360Y3728223D02*
G01*
X12391990Y3727402D01*
X12377238Y4031888D01*
X12410360Y3728223D01*
G37*
G36*
X12947890Y2766659D02*
G01*
X12784346Y2982876D01*
X12795070Y2989571D01*
X12947890Y2766659D01*
G37*
G36*
X12410360Y3728223D02*
G01*
X12377238Y4031888D01*
X12417916Y4037146D01*
X12410360Y3728223D01*
G37*
G36*
X12974774Y2788562D02*
G01*
X12795070Y2989571D01*
X12805606Y2996978D01*
X12974774Y2788562D01*
G37*
G36*
X12429168Y3727810D02*
G01*
X12410360Y3728223D01*
X12417916Y4037146D01*
X12429168Y3727810D01*
G37*
G36*
X12974774Y2788562D02*
G01*
X12805606Y2996978D01*
X12815955Y3005095D01*
X12974774Y2788562D01*
G37*
G36*
X12429168Y3727810D02*
G01*
X12417916Y4037146D01*
X12459552Y4039628D01*
X12429168Y3727810D01*
G37*
G36*
X13001382Y2812200D02*
G01*
X12815955Y3005095D01*
X12826115Y3013925D01*
X13001382Y2812200D01*
G37*
G36*
X12448114Y3726098D02*
G01*
X12429168Y3727810D01*
X12459552Y4039628D01*
X12448114Y3726098D01*
G37*
G36*
X13027713Y2837573D02*
G01*
X12826115Y3013925D01*
X12836088Y3023465D01*
X13027713Y2837573D01*
G37*
G36*
X12466899Y3723025D02*
G01*
X12448114Y3726098D01*
X12502145Y4039332D01*
X12466899Y3723025D01*
G37*
G36*
X13027713Y2837573D02*
G01*
X12836088Y3023465D01*
X12849973Y3038244D01*
X13027713Y2837573D01*
G37*
G36*
X12485524Y3718591D02*
G01*
X12466899Y3723025D01*
X12545072Y4036071D01*
X12485524Y3718591D01*
G37*
G36*
X13067145Y2879337D02*
G01*
X12849973Y3038244D01*
X12862590Y3053489D01*
X13067145Y2879337D01*
G37*
G36*
X12587708Y4029659D02*
G01*
X12485524Y3718591D01*
X12545072Y4036071D01*
X12587708Y4029659D01*
G37*
G36*
X13067145Y2879337D02*
G01*
X12862590Y3053489D01*
X12873940Y3069201D01*
X13067145Y2879337D01*
G37*
G36*
X12503987Y3712796D02*
G01*
X12485524Y3718591D01*
X12587708Y4029659D01*
X12503987Y3712796D01*
G37*
G36*
X13102518Y2921559D02*
G01*
X12873940Y3069201D01*
X12884022Y3085380D01*
X13102518Y2921559D01*
G37*
G36*
X12522289Y3705640D02*
G01*
X12503987Y3712796D01*
X12630054Y4020093D01*
X12522289Y3705640D01*
G37*
G36*
X13133834Y2964239D02*
G01*
X13102518Y2921559D01*
X12884022Y3085380D01*
X13133834Y2964239D01*
G37*
G36*
X12540430Y3697123D02*
G01*
X12522289Y3705640D01*
X12672109Y4007375D01*
X12540430Y3697123D01*
G37*
G36*
X13133834Y2964239D02*
G01*
X12884022Y3085380D01*
X12892836Y3102027D01*
X13133834Y2964239D01*
G37*
G36*
X12558410Y3687246D02*
G01*
X12540430Y3697123D01*
X12672109Y4007375D01*
X12558410Y3687246D01*
G37*
G36*
X13133834Y2964239D02*
G01*
X12892836Y3102027D01*
X12900383Y3119140D01*
X13133834Y2964239D01*
G37*
G36*
X12576229Y3676007D02*
G01*
X12558410Y3687246D01*
X12713874Y3991505D01*
X12576229Y3676007D01*
G37*
G36*
X13161092Y3007378D02*
G01*
X13133834Y2964239D01*
X12900383Y3119140D01*
X13161092Y3007378D01*
G37*
G36*
X12593886Y3663408D02*
G01*
X12576229Y3676007D01*
X12755348Y3972482D01*
X12593886Y3663408D01*
G37*
G36*
X13161092Y3007378D02*
G01*
X12900383Y3119140D01*
X12906662Y3136720D01*
X13161092Y3007378D01*
G37*
G36*
X12611383Y3649448D02*
G01*
X12593886Y3663408D01*
X12796532Y3950306D01*
X12611383Y3649448D01*
G37*
G36*
X13184292Y3050975D02*
G01*
X13161092Y3007378D01*
X12906662Y3136720D01*
X13184292Y3050975D01*
G37*
G36*
X12628719Y3634126D02*
G01*
X12611383Y3649448D01*
X12837425Y3924978D01*
X12628719Y3634126D01*
G37*
G36*
X13184292Y3050975D02*
G01*
X12906662Y3136720D01*
X12911674Y3154768D01*
X13184292Y3050975D01*
G37*
G36*
X12645893Y3617444D02*
G01*
X12628719Y3634126D01*
X12878027Y3896497D01*
X12645893Y3617444D01*
G37*
G36*
X13203435Y3095031D02*
G01*
X13184292Y3050975D01*
X12911674Y3154768D01*
X13203435Y3095031D01*
G37*
G36*
X12822688Y3448276D02*
G01*
X12805127Y3467477D01*
X13087338Y3691267D01*
X12822688Y3448276D01*
G37*
G36*
X13203435Y3095031D02*
G01*
X12911674Y3154768D01*
X12915418Y3173282D01*
X13203435Y3095031D01*
G37*
G36*
X12838782Y3428993D02*
G01*
X12822688Y3448276D01*
X13112568Y3656914D01*
X12838782Y3428993D01*
G37*
G36*
X13203435Y3095031D02*
G01*
X12915418Y3173282D01*
X12917895Y3192263D01*
X13203435Y3095031D01*
G37*
G36*
X12853409Y3409628D02*
G01*
X12838782Y3428993D01*
X13135539Y3622198D01*
X12853409Y3409628D01*
G37*
G36*
X13218519Y3139544D02*
G01*
X13203435Y3095031D01*
X12917895Y3192263D01*
X13218519Y3139544D01*
G37*
G36*
X12866569Y3390180D02*
G01*
X12853409Y3409628D01*
X13156251Y3587117D01*
X12866569Y3390180D01*
G37*
G36*
X13218519Y3139544D02*
G01*
X12917895Y3192263D01*
X12919104Y3211712D01*
X13218519Y3139544D01*
G37*
G36*
X12878263Y3370649D02*
G01*
X12866569Y3390180D01*
X13174703Y3551672D01*
X12878263Y3370649D01*
G37*
G36*
X13229546Y3184516D02*
G01*
X13218519Y3139544D01*
X12919104Y3211712D01*
X13229546Y3184516D01*
G37*
G36*
X12888489Y3351036D02*
G01*
X12878263Y3370649D01*
X13190897Y3515863D01*
X12888489Y3351036D01*
G37*
G36*
X13229546Y3184516D02*
G01*
X12919104Y3211712D01*
X12919046Y3231627D01*
X13229546Y3184516D01*
G37*
G36*
X12897249Y3331341D02*
G01*
X12888489Y3351036D01*
X13204830Y3479690D01*
X12897249Y3331341D01*
G37*
G36*
X11349633Y3109432D02*
G01*
X11380157Y3105448D01*
X11409572Y3099380D01*
X11437733Y3091658D01*
X11464642Y3082281D01*
X11490297Y3071251D01*
X11514699Y3058565D01*
X11537849Y3044226D01*
X11559745Y3028232D01*
X11580389Y3010583D01*
X11599779Y2991280D01*
X11617917Y2970323D01*
X11634802Y2947712D01*
X11650433Y2923446D01*
X11665811Y2895562D01*
X11678673Y2867551D01*
X11689018Y2839415D01*
X11696847Y2811151D01*
X11702159Y2782762D01*
X11704955Y2754246D01*
X11705235Y2725603D01*
X11702999Y2696834D01*
X11698246Y2667939D01*
X11690977Y2638917D01*
X11681191Y2609768D01*
X11668889Y2580493D01*
X11657256Y2558098D01*
X11641968Y2533250D01*
X11623024Y2505949D01*
X11600425Y2476194D01*
X11574171Y2443986D01*
X11544261Y2409325D01*
X11510697Y2372211D01*
X11473477Y2332644D01*
X11432601Y2290623D01*
X11388071Y2246150D01*
X11339885Y2199223D01*
X11288044Y2149843D01*
X11277026Y2139027D01*
X11266823Y2128637D01*
X11257436Y2118672D01*
X11248863Y2109134D01*
X11241106Y2100021D01*
X11234164Y2091333D01*
X11228037Y2083072D01*
X11222725Y2075236D01*
X11218228Y2067826D01*
X11214546Y2060842D01*
X11211680Y2054283D01*
X11209628Y2048150D01*
X11208476Y2042164D01*
X11207727Y2036193D01*
X11207381Y2030236D01*
X11207437Y2024294D01*
X11207896Y2018366D01*
X11208758Y2012453D01*
X11210022Y2006554D01*
X11211689Y2000670D01*
X11213759Y1994800D01*
X11216232Y1988945D01*
X11219107Y1983105D01*
X11222385Y1977279D01*
X11227690Y1969044D01*
X11233383Y1961433D01*
X11239465Y1954444D01*
X11245935Y1948079D01*
X11252794Y1942337D01*
X11260041Y1937218D01*
X11267676Y1932723D01*
X11275700Y1928850D01*
X11284113Y1925601D01*
X11292914Y1922975D01*
X11302104Y1920972D01*
X11311682Y1919592D01*
X11326260Y1918847D01*
X11341294Y1919197D01*
X11356784Y1920642D01*
X11372729Y1923183D01*
X11389131Y1926819D01*
X11405988Y1931551D01*
X11423301Y1937378D01*
X11441070Y1944301D01*
X11459294Y1952319D01*
X11477975Y1961432D01*
X11497111Y1971641D01*
X11516703Y1982945D01*
X11534179Y1993832D01*
X11550602Y2004965D01*
X11565974Y2016342D01*
X11580295Y2027966D01*
X11593563Y2039834D01*
X11605780Y2051948D01*
X11616944Y2064307D01*
X11627057Y2076911D01*
X11636118Y2089761D01*
X11644128Y2102856D01*
X11651085Y2116196D01*
X11656991Y2129782D01*
X11661911Y2143622D01*
X11665913Y2157725D01*
X11668997Y2172091D01*
X11671161Y2186721D01*
X11672408Y2201614D01*
X11672735Y2216770D01*
X11672144Y2232190D01*
X11670635Y2247873D01*
X11668207Y2263819D01*
X11664860Y2280028D01*
X11660595Y2296501D01*
X11655411Y2313237D01*
X11991128Y2450300D01*
X11999506Y2418683D01*
X12005988Y2387228D01*
X12010574Y2355935D01*
X12013262Y2324804D01*
X12014054Y2293834D01*
X12012949Y2263026D01*
X12009948Y2232380D01*
X12005049Y2201896D01*
X11998254Y2171574D01*
X11989563Y2141413D01*
X11978974Y2111414D01*
X11966489Y2081577D01*
X11951971Y2052078D01*
X11935284Y2023092D01*
X11916429Y1994620D01*
X11895405Y1966660D01*
X11872212Y1939215D01*
X11846851Y1912282D01*
X11819321Y1885864D01*
X11789622Y1859958D01*
X11757754Y1834566D01*
X11723718Y1809688D01*
X11687513Y1785322D01*
X11649139Y1761471D01*
X11606092Y1736809D01*
X11563866Y1714799D01*
X11522461Y1695440D01*
X11481878Y1678732D01*
X11442116Y1664675D01*
X11403176Y1653269D01*
X11365057Y1644515D01*
X11327759Y1638412D01*
X11291283Y1634960D01*
X11255629Y1634159D01*
X11220796Y1636010D01*
X11186785Y1640511D01*
X11153923Y1647202D01*
X11122538Y1655619D01*
X11092630Y1665763D01*
X11064199Y1677634D01*
X11037245Y1691231D01*
X11011769Y1706555D01*
X10987770Y1723606D01*
X10965248Y1742384D01*
X10944203Y1762888D01*
X10924635Y1785119D01*
X10906544Y1809077D01*
X10889930Y1834761D01*
X10876294Y1859079D01*
X10864526Y1883299D01*
X10854626Y1907424D01*
X10846594Y1931451D01*
X10840430Y1955382D01*
X10836134Y1979216D01*
X10833706Y2002954D01*
X10833147Y2026595D01*
X10834455Y2050139D01*
X10837631Y2073587D01*
X10842676Y2096938D01*
X10849588Y2120192D01*
X10858856Y2143765D01*
X10870385Y2168217D01*
X10884176Y2193548D01*
X10900229Y2219758D01*
X10918543Y2246848D01*
X10939119Y2274817D01*
X10961957Y2303665D01*
X10987056Y2333392D01*
X11014417Y2363999D01*
X11044039Y2395485D01*
X11075923Y2427850D01*
X11110069Y2461094D01*
X11144036Y2493759D01*
X11175386Y2524386D01*
X11204119Y2552974D01*
X11230234Y2579523D01*
X11253731Y2604035D01*
X11274610Y2626507D01*
X11292872Y2646942D01*
X11308517Y2665338D01*
X11321544Y2681695D01*
X11331953Y2696015D01*
X11339744Y2708296D01*
X11344918Y2718538D01*
X11347473Y2725342D01*
X11349523Y2732029D01*
X11351066Y2738599D01*
X11352104Y2745051D01*
X11352635Y2751386D01*
X11352661Y2757604D01*
X11352181Y2763705D01*
X11351196Y2769688D01*
X11349704Y2775553D01*
X11347707Y2781302D01*
X11345203Y2786933D01*
X11342194Y2792446D01*
X11338205Y2798567D01*
X11333849Y2804201D01*
X11329125Y2809348D01*
X11324035Y2814008D01*
X11318577Y2818181D01*
X11312753Y2821867D01*
X11306561Y2825066D01*
X11300002Y2827778D01*
X11293076Y2830003D01*
X11285783Y2831741D01*
X11278123Y2832993D01*
X11270096Y2833757D01*
X11257660Y2833654D01*
X11244551Y2832511D01*
X11230767Y2830327D01*
X11216311Y2827103D01*
X11201180Y2822838D01*
X11185376Y2817533D01*
X11168898Y2811186D01*
X11151746Y2803800D01*
X11133920Y2795372D01*
X11115421Y2785905D01*
X11096248Y2775396D01*
X11076401Y2763847D01*
X11060856Y2754212D01*
X11046224Y2744444D01*
X11032504Y2734543D01*
X11019697Y2724509D01*
X11007803Y2714341D01*
X10996822Y2704041D01*
X10986753Y2693607D01*
X10977597Y2683041D01*
X10969353Y2672341D01*
X10962022Y2661509D01*
X10955604Y2650543D01*
X10950099Y2639444D01*
X10945413Y2628197D01*
X10941451Y2616787D01*
X10938215Y2605214D01*
X10935703Y2593478D01*
X10933916Y2581579D01*
X10932854Y2569517D01*
X10932517Y2557292D01*
X10932905Y2544903D01*
X10934018Y2532352D01*
X10935856Y2519637D01*
X10938419Y2506760D01*
X10941707Y2493719D01*
X10620623Y2374293D01*
X10613591Y2403701D01*
X10608175Y2432677D01*
X10604375Y2461220D01*
X10602191Y2489331D01*
X10601624Y2517010D01*
X10602672Y2544256D01*
X10605338Y2571070D01*
X10609619Y2597452D01*
X10615516Y2623401D01*
X10623030Y2648918D01*
X10632160Y2674002D01*
X10642907Y2698654D01*
X10655631Y2723060D01*
X10670696Y2747404D01*
X10688102Y2771687D01*
X10707848Y2795910D01*
X10729934Y2820071D01*
X10754361Y2844171D01*
X10781129Y2868211D01*
X10810236Y2892189D01*
X10841685Y2916106D01*
X10875473Y2939963D01*
X10911603Y2963758D01*
X10950072Y2987492D01*
X10991229Y3011136D01*
X11031419Y3032268D01*
X11070643Y3050889D01*
X11108900Y3066998D01*
X11146190Y3080595D01*
X11182514Y3091681D01*
X11217871Y3100254D01*
X11252261Y3106316D01*
X11285685Y3109867D01*
X11318143Y3110905D01*
X11349633Y3109432D01*
G37*
G36*
X9611620Y1023757D02*
G01*
X9583419Y1033778D01*
X9733956Y1307664D01*
X9611620Y1023757D01*
G37*
G36*
X9744908Y1300960D02*
G01*
X9611620Y1023757D01*
X9733956Y1307664D01*
X9744908Y1300960D01*
G37*
G36*
X9756009Y1295111D02*
G01*
X9640454Y1015346D01*
X9744908Y1300960D01*
X9756009Y1295111D01*
G37*
G36*
X9669868Y1008593D02*
G01*
X9640454Y1015346D01*
X9756009Y1295111D01*
X9669868Y1008593D01*
G37*
G36*
X9730438Y1000061D02*
G01*
X9699862Y1003498D01*
X9778669Y1285912D01*
X9730438Y1000061D01*
G37*
G36*
X9802006Y1279644D02*
G01*
X9761594Y998283D01*
X9790251Y1282420D01*
X9802006Y1279644D01*
G37*
G36*
X9858547Y1002896D02*
G01*
X9825649Y999700D01*
X9838306Y1275607D01*
X9858547Y1002896D01*
G37*
G36*
X9926086Y1014262D02*
G01*
X9892026Y1007750D01*
X9863367Y1276492D01*
X9926086Y1014262D01*
G37*
G36*
X9995947Y1032261D02*
G01*
X9960726Y1022432D01*
X9902253Y1283186D01*
X9995947Y1032261D01*
G37*
G36*
X10101659Y1070660D02*
G01*
X10050480Y1050295D01*
X9970588Y1309127D01*
X10101659Y1070660D01*
G37*
G36*
X10428999Y1402451D02*
G01*
X10411356Y1358787D01*
X10108292Y1487654D01*
X10428999Y1402451D01*
G37*
G36*
X10366010Y1278449D02*
G01*
X10338307Y1241775D01*
X10087405Y1430662D01*
X10366010Y1278449D01*
G37*
G36*
X10366010Y1278449D02*
G01*
X10087405Y1430662D01*
X10095697Y1449035D01*
X10366010Y1278449D01*
G37*
G36*
X10390360Y1317453D02*
G01*
X10366010Y1278449D01*
X10095697Y1449035D01*
X10390360Y1317453D01*
G37*
G36*
X10428999Y1402451D02*
G01*
X10108292Y1487654D01*
X10112594Y1507899D01*
X10428999Y1402451D01*
G37*
G36*
X10456702Y1513291D02*
G01*
X10449629Y1475592D01*
X10115566Y1528768D01*
X10456702Y1513291D01*
G37*
G36*
X10456702Y1513291D02*
G01*
X10117207Y1550261D01*
X10461614Y1551742D01*
X10456702Y1513291D01*
G37*
G36*
X10464364Y1590946D02*
G01*
X10116501Y1595119D01*
X10464954Y1630902D01*
X10464364Y1590946D01*
G37*
G36*
X10463382Y1671610D02*
G01*
X10110474Y1642472D01*
X10459648Y1713071D01*
X10463382Y1671610D01*
G37*
G36*
X10453754Y1755284D02*
G01*
X10099126Y1692320D01*
X10445698Y1798249D01*
X10453754Y1755284D01*
G37*
G36*
X10435481Y1841967D02*
G01*
X10099126Y1692320D01*
X10423102Y1886436D01*
X10435481Y1841967D01*
G37*
G36*
X10387442Y1988306D02*
G01*
X10030189Y1899909D01*
X10366983Y2035287D01*
X10387442Y1988306D01*
G37*
G36*
X10320807Y2121337D02*
G01*
X10006242Y1965054D01*
X10295090Y2160408D01*
X10320807Y2121337D01*
G37*
G36*
X10295090Y2160408D02*
G01*
X9996683Y1984527D01*
X10267621Y2196841D01*
X10295090Y2160408D01*
G37*
G36*
X10238400Y2230639D02*
G01*
X9963281Y2036217D01*
X10207425Y2261799D01*
X10238400Y2230639D01*
G37*
G36*
X10207425Y2261799D02*
G01*
X9950571Y2051205D01*
X10174699Y2290324D01*
X10207425Y2261799D01*
G37*
G36*
X10140220Y2316211D02*
G01*
X9922787Y2077816D01*
X10103988Y2339462D01*
X10140220Y2316211D01*
G37*
G36*
X9951750Y2404004D02*
G01*
X9842179Y2123938D01*
X9912501Y2412893D01*
X9951750Y2404004D01*
G37*
G36*
X9872777Y2418884D02*
G01*
X9808059Y2133459D01*
X9832577Y2421976D01*
X9872777Y2418884D01*
G37*
G36*
X9912501Y2412893D02*
G01*
X9825219Y2129346D01*
X9872777Y2418884D01*
X9912501Y2412893D01*
G37*
G36*
X9832577Y2421976D02*
G01*
X9790697Y2136276D01*
X9791901Y2422169D01*
X9832577Y2421976D01*
G37*
G36*
X9755370Y2138024D02*
G01*
X9709122Y2413861D01*
X9750749Y2419464D01*
X9755370Y2138024D01*
G37*
G36*
X9700872Y2130931D02*
G01*
X9624440Y2393958D01*
X9667019Y2405358D01*
X9700872Y2130931D01*
G37*
G36*
X9665233Y2120267D02*
G01*
X9533225Y2360813D01*
X9577590Y2378455D01*
X9665233Y2120267D01*
G37*
G36*
X9536435Y2011382D02*
G01*
X9527746Y1995313D01*
X9267776Y2142676D01*
X9536435Y2011382D01*
G37*
G36*
X9527746Y1995313D02*
G01*
X9520069Y1978423D01*
X9267776Y2142676D01*
X9527746Y1995313D01*
G37*
G36*
X9513652Y1960834D02*
G01*
X9226267Y2066752D01*
X9245779Y2105784D01*
X9513652Y1960834D01*
G37*
G36*
X9513652Y1960834D02*
G01*
X9508495Y1942544D01*
X9226267Y2066752D01*
X9513652Y1960834D01*
G37*
G36*
X9504600Y1923555D02*
G01*
X9196254Y1982371D01*
X9209629Y2025606D01*
X9504600Y1923555D01*
G37*
G36*
X9500478Y1862386D02*
G01*
X9175709Y1840125D01*
X9179294Y1889630D01*
X9500478Y1862386D01*
G37*
G36*
X9500591Y1883476D02*
G01*
X9500478Y1862386D01*
X9179294Y1889630D01*
X9500591Y1883476D01*
G37*
G36*
X9175387Y1788531D02*
G01*
X9175709Y1840125D01*
X9501626Y1840597D01*
X9175387Y1788531D01*
G37*
G36*
X9507703Y1794918D02*
G01*
X9175387Y1788531D01*
X9504034Y1818107D01*
X9507703Y1794918D01*
G37*
G36*
X9184532Y1679072D02*
G01*
X9178328Y1734846D01*
X9512633Y1771029D01*
X9184532Y1679072D01*
G37*
G36*
X9206730Y1561253D02*
G01*
X9194000Y1621207D01*
X9518824Y1746440D01*
X9206730Y1561253D01*
G37*
G36*
X9241981Y1435076D02*
G01*
X9222724Y1499209D01*
X9518824Y1746440D01*
X9241981Y1435076D01*
G37*
G36*
X9339021Y1219787D02*
G01*
X9318343Y1246968D01*
X9642079Y1406506D01*
X9339021Y1219787D01*
G37*
G36*
X9793331Y998162D02*
G01*
X9761594Y998283D01*
X9802006Y1279644D01*
X9793331Y998162D01*
G37*
G36*
X9778669Y1285912D02*
G01*
X9699862Y1003498D01*
X9767259Y1290119D01*
X9778669Y1285912D01*
G37*
G36*
X9767259Y1290119D02*
G01*
X9669868Y1008593D01*
X9756009Y1295111D01*
X9767259Y1290119D01*
G37*
G36*
X9733956Y1307664D02*
G01*
X9583419Y1033778D01*
X9723153Y1315223D01*
X9733956Y1307664D01*
G37*
G36*
X9640454Y1015346D02*
G01*
X9611620Y1023757D01*
X9744908Y1300960D01*
X9640454Y1015346D01*
G37*
G36*
X9583419Y1033778D02*
G01*
X9555902Y1045358D01*
X9723153Y1315223D01*
X9583419Y1033778D01*
G37*
G36*
X9892026Y1007750D02*
G01*
X9858547Y1002896D01*
X9850750Y1275692D01*
X9892026Y1007750D01*
G37*
G36*
X10050480Y1050295D02*
G01*
X9995947Y1032261D01*
X9934796Y1293261D01*
X10050480Y1050295D01*
G37*
G36*
X10440395Y1438645D02*
G01*
X10428999Y1402451D01*
X10112594Y1507899D01*
X10440395Y1438645D01*
G37*
G36*
X10411356Y1358787D02*
G01*
X10390360Y1317453D01*
X10102660Y1468033D01*
X10411356Y1358787D01*
G37*
G36*
X10411356Y1358787D02*
G01*
X10102660Y1468033D01*
X10108292Y1487654D01*
X10411356Y1358787D01*
G37*
G36*
X10461614Y1551742D02*
G01*
X10117519Y1572378D01*
X10464364Y1590946D01*
X10461614Y1551742D01*
G37*
G36*
X10459648Y1713071D02*
G01*
X10105465Y1667084D01*
X10453754Y1755284D01*
X10459648Y1713071D01*
G37*
G36*
X10406148Y1938690D02*
G01*
X10030189Y1899909D01*
X10387442Y1988306D01*
X10406148Y1938690D01*
G37*
G36*
X10344771Y2079630D02*
G01*
X10015012Y1944461D01*
X10320807Y2121337D01*
X10344771Y2079630D01*
G37*
G36*
X10267621Y2196841D02*
G01*
X9986337Y2002878D01*
X10238400Y2230639D01*
X10267621Y2196841D01*
G37*
G36*
X9990523Y2392216D02*
G01*
X9858937Y2117235D01*
X9951750Y2404004D01*
X9990523Y2392216D01*
G37*
G36*
X9842179Y2123938D02*
G01*
X9825219Y2129346D01*
X9912501Y2412893D01*
X9842179Y2123938D01*
G37*
G36*
X9773134Y2137797D02*
G01*
X9750749Y2419464D01*
X9791901Y2422169D01*
X9773134Y2137797D01*
G37*
G36*
X9682303Y2125976D02*
G01*
X9577590Y2378455D01*
X9624440Y2393958D01*
X9682303Y2125976D01*
G37*
G36*
X9536435Y2011382D02*
G01*
X9267776Y2142676D01*
X9292259Y2177429D01*
X9536435Y2011382D01*
G37*
G36*
X9520069Y1978423D02*
G01*
X9245779Y2105784D01*
X9267776Y2142676D01*
X9520069Y1978423D01*
G37*
G36*
X9520069Y1978423D02*
G01*
X9513652Y1960834D01*
X9245779Y2105784D01*
X9520069Y1978423D01*
G37*
G36*
X9501965Y1903865D02*
G01*
X9186143Y1937046D01*
X9196254Y1982371D01*
X9501965Y1903865D01*
G37*
G36*
X9501626Y1840597D02*
G01*
X9175709Y1840125D01*
X9500478Y1862386D01*
X9501626Y1840597D01*
G37*
G36*
X9178328Y1734846D02*
G01*
X9175387Y1788531D01*
X9507703Y1794918D01*
X9178328Y1734846D01*
G37*
G36*
X9222724Y1499209D02*
G01*
X9206730Y1561253D01*
X9518824Y1746440D01*
X9222724Y1499209D01*
G37*
G36*
X9360384Y1194166D02*
G01*
X9339021Y1219787D01*
X9642079Y1406506D01*
X9360384Y1194166D01*
G37*
G36*
X9825649Y999700D02*
G01*
X9793331Y998162D01*
X9813934Y1277583D01*
X9825649Y999700D01*
G37*
G36*
X9761594Y998283D02*
G01*
X9730438Y1000061D01*
X9790251Y1282420D01*
X9761594Y998283D01*
G37*
G36*
X9699862Y1003498D02*
G01*
X9669868Y1008593D01*
X9767259Y1290119D01*
X9699862Y1003498D01*
G37*
G36*
X9960726Y1022432D02*
G01*
X9926086Y1014262D01*
X9889119Y1280239D01*
X9960726Y1022432D01*
G37*
G36*
X10449629Y1475592D02*
G01*
X10440395Y1438645D01*
X10115566Y1528768D01*
X10449629Y1475592D01*
G37*
G36*
X10390360Y1317453D02*
G01*
X10095697Y1449035D01*
X10102660Y1468033D01*
X10390360Y1317453D01*
G37*
G36*
X10445698Y1798249D02*
G01*
X10099126Y1692320D01*
X10435481Y1841967D01*
X10445698Y1798249D01*
G37*
G36*
X10366983Y2035287D02*
G01*
X10022995Y1922746D01*
X10344771Y2079630D01*
X10366983Y2035287D01*
G37*
G36*
X9858937Y2117235D02*
G01*
X9842179Y2123938D01*
X9951750Y2404004D01*
X9858937Y2117235D01*
G37*
G36*
X9737405Y2136955D02*
G01*
X9667019Y2405358D01*
X9709122Y2413861D01*
X9737405Y2136955D01*
G37*
G36*
X9545887Y2026509D02*
G01*
X9536435Y2011382D01*
X9292259Y2177429D01*
X9545887Y2026509D01*
G37*
G36*
X9508495Y1942544D02*
G01*
X9209629Y2025606D01*
X9226267Y2066752D01*
X9508495Y1942544D01*
G37*
G36*
X9500591Y1883476D02*
G01*
X9179294Y1889630D01*
X9186143Y1937046D01*
X9500591Y1883476D01*
G37*
G36*
X9194000Y1621207D02*
G01*
X9184532Y1679072D01*
X9518824Y1746440D01*
X9194000Y1621207D01*
G37*
G36*
X9651693Y1392100D02*
G01*
X9360384Y1194166D01*
X9642079Y1406506D01*
X9651693Y1392100D01*
G37*
G36*
X9790251Y1282420D02*
G01*
X9730438Y1000061D01*
X9778669Y1285912D01*
X9790251Y1282420D01*
G37*
G36*
X9813934Y1277583D02*
G01*
X9793331Y998162D01*
X9802006Y1279644D01*
X9813934Y1277583D01*
G37*
G36*
X10440395Y1438645D02*
G01*
X10112594Y1507899D01*
X10115566Y1528768D01*
X10440395Y1438645D01*
G37*
G36*
X10423102Y1886436D02*
G01*
X10030189Y1899909D01*
X10406148Y1938690D01*
X10423102Y1886436D01*
G37*
G36*
X9875495Y2109236D02*
G01*
X9858937Y2117235D01*
X9990523Y2392216D01*
X9875495Y2109236D01*
G37*
G36*
X9545887Y2026509D02*
G01*
X9292259Y2177429D01*
X9319227Y2210044D01*
X9545887Y2026509D01*
G37*
G36*
X9508495Y1942544D02*
G01*
X9504600Y1923555D01*
X9209629Y2025606D01*
X9508495Y1942544D01*
G37*
G36*
X9512633Y1771029D02*
G01*
X9178328Y1734846D01*
X9507703Y1794918D01*
X9512633Y1771029D01*
G37*
G36*
X9382430Y1170104D02*
G01*
X9360384Y1194166D01*
X9651693Y1392100D01*
X9382430Y1170104D01*
G37*
G36*
X9723153Y1315223D02*
G01*
X9555902Y1045358D01*
X9712498Y1323639D01*
X9723153Y1315223D01*
G37*
G36*
X10464954Y1630902D02*
G01*
X10114152Y1618483D01*
X10463382Y1671610D01*
X10464954Y1630902D01*
G37*
G36*
X9556100Y2040694D02*
G01*
X9545887Y2026509D01*
X9319227Y2210044D01*
X9556100Y2040694D01*
G37*
G36*
X9504600Y1923555D02*
G01*
X9501965Y1903865D01*
X9196254Y1982371D01*
X9504600Y1923555D01*
G37*
G36*
X9661455Y1378551D02*
G01*
X9382430Y1170104D01*
X9651693Y1392100D01*
X9661455Y1378551D01*
G37*
G36*
X9556100Y2040694D02*
G01*
X9319227Y2210044D01*
X9348680Y2240519D01*
X9556100Y2040694D01*
G37*
G36*
X9501965Y1903865D02*
G01*
X9500591Y1883476D01*
X9186143Y1937046D01*
X9501965Y1903865D01*
G37*
G36*
X9405160Y1147603D02*
G01*
X9382430Y1170104D01*
X9661455Y1378551D01*
X9405160Y1147603D01*
G37*
G36*
X9567074Y2053937D02*
G01*
X9556100Y2040694D01*
X9348680Y2240519D01*
X9567074Y2053937D01*
G37*
G36*
X9504034Y1818107D02*
G01*
X9175387Y1788531D01*
X9501626Y1840597D01*
X9504034Y1818107D01*
G37*
G36*
X9671366Y1365857D02*
G01*
X9405160Y1147603D01*
X9661455Y1378551D01*
X9671366Y1365857D01*
G37*
G36*
X9567074Y2053937D02*
G01*
X9348680Y2240519D01*
X9380618Y2268856D01*
X9567074Y2053937D01*
G37*
G36*
X9518824Y1746440D02*
G01*
X9184532Y1679072D01*
X9512633Y1771029D01*
X9518824Y1746440D01*
G37*
G36*
X9428574Y1126662D02*
G01*
X9405160Y1147603D01*
X9671366Y1365857D01*
X9428574Y1126662D01*
G37*
G36*
X9578811Y2066238D02*
G01*
X9567074Y2053937D01*
X9380618Y2268856D01*
X9578811Y2066238D01*
G37*
G36*
X10099126Y1692320D02*
G01*
X9241981Y1435076D01*
X9518824Y1746440D01*
X10099126Y1692320D01*
G37*
G36*
X9681426Y1354019D02*
G01*
X9428574Y1126662D01*
X9671366Y1365857D01*
X9681426Y1354019D01*
G37*
G36*
X9578811Y2066238D02*
G01*
X9380618Y2268856D01*
X9415042Y2295054D01*
X9578811Y2066238D01*
G37*
G36*
X10099126Y1692320D02*
G01*
X9518824Y1746440D01*
X10030189Y1899909D01*
X10099126Y1692320D01*
G37*
G36*
X9452672Y1107281D02*
G01*
X9428574Y1126662D01*
X9681426Y1354019D01*
X9452672Y1107281D01*
G37*
G36*
X9591310Y2077598D02*
G01*
X9578811Y2066238D01*
X9415042Y2295054D01*
X9591310Y2077598D01*
G37*
G36*
X10423102Y1886436D02*
G01*
X10099126Y1692320D01*
X10030189Y1899909D01*
X10423102Y1886436D01*
G37*
G36*
X9477454Y1089460D02*
G01*
X9452672Y1107281D01*
X9681426Y1354019D01*
X9477454Y1089460D01*
G37*
G36*
X9591310Y2077598D02*
G01*
X9415042Y2295054D01*
X9451951Y2319112D01*
X9591310Y2077598D01*
G37*
G36*
X9691635Y1343036D02*
G01*
X9477454Y1089460D01*
X9681426Y1354019D01*
X9691635Y1343036D01*
G37*
G36*
X9604571Y2088015D02*
G01*
X9591310Y2077598D01*
X9451951Y2319112D01*
X9604571Y2088015D01*
G37*
G36*
X9502919Y1073200D02*
G01*
X9477454Y1089460D01*
X9691635Y1343036D01*
X9502919Y1073200D01*
G37*
G36*
X9618594Y2097491D02*
G01*
X9604571Y2088015D01*
X9451951Y2319112D01*
X9618594Y2097491D01*
G37*
G36*
X9701992Y1332910D02*
G01*
X9502919Y1073200D01*
X9691635Y1343036D01*
X9701992Y1332910D01*
G37*
G36*
X9618594Y2097491D02*
G01*
X9451951Y2319112D01*
X9491345Y2341032D01*
X9618594Y2097491D01*
G37*
G36*
X9529069Y1058499D02*
G01*
X9502919Y1073200D01*
X9701992Y1332910D01*
X9529069Y1058499D01*
G37*
G36*
X9633378Y2106025D02*
G01*
X9618594Y2097491D01*
X9491345Y2341032D01*
X9633378Y2106025D01*
G37*
G36*
X9712498Y1323639D02*
G01*
X9529069Y1058499D01*
X9701992Y1332910D01*
X9712498Y1323639D01*
G37*
G36*
X9633378Y2106025D02*
G01*
X9491345Y2341032D01*
X9533225Y2360813D01*
X9633378Y2106025D01*
G37*
G36*
X9555902Y1045358D02*
G01*
X9529069Y1058499D01*
X9712498Y1323639D01*
X9555902Y1045358D01*
G37*
G36*
X9648925Y2113617D02*
G01*
X9633378Y2106025D01*
X9533225Y2360813D01*
X9648925Y2113617D01*
G37*
G36*
X9826033Y1276237D02*
G01*
X9825649Y999700D01*
X9813934Y1277583D01*
X9826033Y1276237D01*
G37*
G36*
X9665233Y2120267D02*
G01*
X9648925Y2113617D01*
X9533225Y2360813D01*
X9665233Y2120267D01*
G37*
G36*
X9838306Y1275607D02*
G01*
X9825649Y999700D01*
X9826033Y1276237D01*
X9838306Y1275607D01*
G37*
G36*
X9682303Y2125976D02*
G01*
X9665233Y2120267D01*
X9577590Y2378455D01*
X9682303Y2125976D01*
G37*
G36*
X9858547Y1002896D02*
G01*
X9838306Y1275607D01*
X9850750Y1275692D01*
X9858547Y1002896D01*
G37*
G36*
X9700872Y2130931D02*
G01*
X9682303Y2125976D01*
X9624440Y2393958D01*
X9700872Y2130931D01*
G37*
G36*
X9892026Y1007750D02*
G01*
X9850750Y1275692D01*
X9863367Y1276492D01*
X9892026Y1007750D01*
G37*
G36*
X9719239Y2134590D02*
G01*
X9700872Y2130931D01*
X9667019Y2405358D01*
X9719239Y2134590D01*
G37*
G36*
X9926086Y1014262D02*
G01*
X9863367Y1276492D01*
X9876157Y1278008D01*
X9926086Y1014262D01*
G37*
G36*
X9737405Y2136955D02*
G01*
X9719239Y2134590D01*
X9667019Y2405358D01*
X9737405Y2136955D01*
G37*
G36*
X9926086Y1014262D02*
G01*
X9876157Y1278008D01*
X9889119Y1280239D01*
X9926086Y1014262D01*
G37*
G36*
X9755370Y2138024D02*
G01*
X9737405Y2136955D01*
X9709122Y2413861D01*
X9755370Y2138024D01*
G37*
G36*
X9960726Y1022432D02*
G01*
X9889119Y1280239D01*
X9902253Y1283186D01*
X9960726Y1022432D01*
G37*
G36*
X9773134Y2137797D02*
G01*
X9755370Y2138024D01*
X9750749Y2419464D01*
X9773134Y2137797D01*
G37*
G36*
X9995947Y1032261D02*
G01*
X9902253Y1283186D01*
X9915560Y1286847D01*
X9995947Y1032261D01*
G37*
G36*
X9790697Y2136276D02*
G01*
X9773134Y2137797D01*
X9791901Y2422169D01*
X9790697Y2136276D01*
G37*
G36*
X9995947Y1032261D02*
G01*
X9915560Y1286847D01*
X9934796Y1293261D01*
X9995947Y1032261D01*
G37*
G36*
X9808059Y2133459D02*
G01*
X9790697Y2136276D01*
X9832577Y2421976D01*
X9808059Y2133459D01*
G37*
G36*
X10050480Y1050295D02*
G01*
X9934796Y1293261D01*
X9953139Y1300688D01*
X10050480Y1050295D01*
G37*
G36*
X9825219Y2129346D02*
G01*
X9808059Y2133459D01*
X9872777Y2418884D01*
X9825219Y2129346D01*
G37*
G36*
X10050480Y1050295D02*
G01*
X9953139Y1300688D01*
X9970588Y1309127D01*
X10050480Y1050295D01*
G37*
G36*
X10028820Y2377530D02*
G01*
X9875495Y2109236D01*
X9990523Y2392216D01*
X10028820Y2377530D01*
G37*
G36*
X10101659Y1070660D02*
G01*
X9970588Y1309127D01*
X9987143Y1318580D01*
X10101659Y1070660D01*
G37*
G36*
X9891851Y2099942D02*
G01*
X9875495Y2109236D01*
X10028820Y2377530D01*
X9891851Y2099942D01*
G37*
G36*
X10149484Y1093354D02*
G01*
X10101659Y1070660D01*
X9987143Y1318580D01*
X10149484Y1093354D01*
G37*
G36*
X10066642Y2359945D02*
G01*
X9891851Y2099942D01*
X10028820Y2377530D01*
X10066642Y2359945D01*
G37*
G36*
X10149484Y1093354D02*
G01*
X9987143Y1318580D01*
X10002804Y1329045D01*
X10149484Y1093354D01*
G37*
G36*
X9907713Y2089440D02*
G01*
X9891851Y2099942D01*
X10066642Y2359945D01*
X9907713Y2089440D01*
G37*
G36*
X10149484Y1093354D02*
G01*
X10002804Y1329045D01*
X10017571Y1340523D01*
X10149484Y1093354D01*
G37*
G36*
X10103988Y2339462D02*
G01*
X9907713Y2089440D01*
X10066642Y2359945D01*
X10103988Y2339462D01*
G37*
G36*
X10193956Y1118378D02*
G01*
X10149484Y1093354D01*
X10017571Y1340523D01*
X10193956Y1118378D01*
G37*
G36*
X9922787Y2077816D02*
G01*
X9907713Y2089440D01*
X10103988Y2339462D01*
X9922787Y2077816D01*
G37*
G36*
X10193956Y1118378D02*
G01*
X10017571Y1340523D01*
X10031445Y1353014D01*
X10193956Y1118378D01*
G37*
G36*
X9937073Y2065071D02*
G01*
X9922787Y2077816D01*
X10140220Y2316211D01*
X9937073Y2065071D01*
G37*
G36*
X10235074Y1145733D02*
G01*
X10193956Y1118378D01*
X10031445Y1353014D01*
X10235074Y1145733D01*
G37*
G36*
X10174699Y2290324D02*
G01*
X9937073Y2065071D01*
X10140220Y2316211D01*
X10174699Y2290324D01*
G37*
G36*
X10235074Y1145733D02*
G01*
X10031445Y1353014D01*
X10044425Y1366518D01*
X10235074Y1145733D01*
G37*
G36*
X9950571Y2051205D02*
G01*
X9937073Y2065071D01*
X10174699Y2290324D01*
X9950571Y2051205D01*
G37*
G36*
X10272839Y1175417D02*
G01*
X10235074Y1145733D01*
X10044425Y1366518D01*
X10272839Y1175417D01*
G37*
G36*
X9963281Y2036217D02*
G01*
X9950571Y2051205D01*
X10207425Y2261799D01*
X9963281Y2036217D01*
G37*
G36*
X10272839Y1175417D02*
G01*
X10044425Y1366518D01*
X10056511Y1381034D01*
X10272839Y1175417D01*
G37*
G36*
X9975203Y2020108D02*
G01*
X9963281Y2036217D01*
X10238400Y2230639D01*
X9975203Y2020108D01*
G37*
G36*
X10272839Y1175417D02*
G01*
X10056511Y1381034D01*
X10067703Y1396564D01*
X10272839Y1175417D01*
G37*
G36*
X9986337Y2002878D02*
G01*
X9975203Y2020108D01*
X10238400Y2230639D01*
X9986337Y2002878D01*
G37*
G36*
X10307250Y1207431D02*
G01*
X10272839Y1175417D01*
X10067703Y1396564D01*
X10307250Y1207431D01*
G37*
G36*
X9996683Y1984527D02*
G01*
X9986337Y2002878D01*
X10267621Y2196841D01*
X9996683Y1984527D01*
G37*
G36*
X10307250Y1207431D02*
G01*
X10067703Y1396564D01*
X10078001Y1413106D01*
X10307250Y1207431D01*
G37*
G36*
X10006242Y1965054D02*
G01*
X9996683Y1984527D01*
X10295090Y2160408D01*
X10006242Y1965054D01*
G37*
G36*
X10338307Y1241775D02*
G01*
X10307250Y1207431D01*
X10078001Y1413106D01*
X10338307Y1241775D01*
G37*
G36*
X10015012Y1944461D02*
G01*
X10006242Y1965054D01*
X10320807Y2121337D01*
X10015012Y1944461D01*
G37*
G36*
X10338307Y1241775D02*
G01*
X10078001Y1413106D01*
X10087405Y1430662D01*
X10338307Y1241775D01*
G37*
G36*
X10022995Y1922746D02*
G01*
X10015012Y1944461D01*
X10344771Y2079630D01*
X10022995Y1922746D01*
G37*
G36*
X10456702Y1513291D02*
G01*
X10115566Y1528768D01*
X10117207Y1550261D01*
X10456702Y1513291D01*
G37*
G36*
X10030189Y1899909D02*
G01*
X10022995Y1922746D01*
X10366983Y2035287D01*
X10030189Y1899909D01*
G37*
G36*
X10461614Y1551742D02*
G01*
X10117207Y1550261D01*
X10117519Y1572378D01*
X10461614Y1551742D01*
G37*
G36*
X10105465Y1667084D02*
G01*
X10099126Y1692320D01*
X10453754Y1755284D01*
X10105465Y1667084D01*
G37*
G36*
X10464364Y1590946D02*
G01*
X10117519Y1572378D01*
X10116501Y1595119D01*
X10464364Y1590946D01*
G37*
G36*
X10110474Y1642472D02*
G01*
X10105465Y1667084D01*
X10459648Y1713071D01*
X10110474Y1642472D01*
G37*
G36*
X10116501Y1595119D02*
G01*
X10114152Y1618483D01*
X10464954Y1630902D01*
X10116501Y1595119D01*
G37*
G36*
X10114152Y1618483D02*
G01*
X10110474Y1642472D01*
X10463382Y1671610D01*
X10114152Y1618483D01*
G37*
D11*
G04 #@! TO.C,U1*
X7130200Y7120600D02*
X6830200Y7120600D01*
X6830200Y6820600D01*
X7130200Y7120600D01*
G04 #@! TD*
%LPC*%
D12*
G04 #@! TO.C,D1*
X7937500Y8331200D03*
G04 #@! TD*
D13*
G04 #@! TO.C,U1*
X7450200Y6520600D03*
D14*
X7950200Y6520600D03*
D13*
X8450200Y6520600D03*
X8450200Y5620600D03*
D14*
X7950200Y5620600D03*
D13*
X7450200Y5620600D03*
G04 #@! TD*
%LPD*%
M02*
