G04 #@! TF.GenerationSoftware,KiCad,Pcbnew,10.0.5*
G04 #@! TF.CreationDate,2026-09-09T16:43:17-04:00*
G04 #@! TF.ProjectId,PulseSensor-JST-Educational,50756c73-6553-4656-9e73-6f722d4a5354,rev?*
G04 #@! TF.SameCoordinates,Original*
G04 #@! TF.FileFunction,Copper,L2,Bot*
G04 #@! TF.FilePolarity,Positive*
%FSLAX46Y46*%
G04 Gerber Fmt 4.6, Leading zero omitted, Abs format (unit mm)*
G04 Created by KiCad (PCBNEW 10.0.5) date 2026-09-09 16:43:17*
%MOMM*%
%LPD*%
G01*
G04 APERTURE LIST*
G04 Aperture macros list*
%AMRoundRect*
0 Rectangle with rounded corners*
0 $1 Rounding radius*
0 $2 $3 $4 $5 $6 $7 $8 $9 X,Y pos of 4 corners*
0 Add a 4 corners polygon primitive as box body*
4,1,4,$2,$3,$4,$5,$6,$7,$8,$9,$2,$3,0*
0 Add four circle primitives for the rounded corners*
1,1,$1+$1,$2,$3*
1,1,$1+$1,$4,$5*
1,1,$1+$1,$6,$7*
1,1,$1+$1,$8,$9*
0 Add four rect primitives between the rounded corners*
20,1,$1+$1,$2,$3,$4,$5,0*
20,1,$1+$1,$4,$5,$6,$7,0*
20,1,$1+$1,$6,$7,$8,$9,0*
20,1,$1+$1,$8,$9,$2,$3,0*%
G04 Aperture macros list end*
G04 #@! TA.AperFunction,SMDPad,CuDef*
%ADD10RoundRect,0.080000X0.120000X0.120000X-0.120000X0.120000X-0.120000X-0.120000X0.120000X-0.120000X0*%
G04 #@! TD*
G04 #@! TA.AperFunction,SMDPad,CuDef*
%ADD11RoundRect,0.050000X0.050000X0.150000X-0.050000X0.150000X-0.050000X-0.150000X0.050000X-0.150000X0*%
G04 #@! TD*
G04 #@! TA.AperFunction,ViaPad*
%ADD12C,0.500000*%
G04 #@! TD*
G04 #@! TA.AperFunction,Conductor*
%ADD13C,0.200000*%
G04 #@! TD*
G04 #@! TA.AperFunction,Conductor*
%ADD14C,0.250000*%
G04 #@! TD*
G04 APERTURE END LIST*
D10*
G04 #@! TO.P,U1,1*
G04 #@! TO.N,/VDD_PROTECTED*
X7450200Y6520600D03*
D11*
G04 #@! TO.P,U1,2*
G04 #@! TO.N,unconnected-(U1-NC-Pad2)*
X7950200Y6520600D03*
D10*
G04 #@! TO.P,U1,3*
G04 #@! TO.N,unconnected-(U1-NC-Pad3)*
X8450200Y6520600D03*
G04 #@! TO.P,U1,4*
G04 #@! TO.N,/GND*
X8450200Y5620600D03*
D11*
G04 #@! TO.P,U1,5*
G04 #@! TO.N,unconnected-(U1-NC-Pad5)*
X7950200Y5620600D03*
D10*
G04 #@! TO.P,U1,6*
G04 #@! TO.N,/U1_IOUT*
X7450200Y5620600D03*
G04 #@! TD*
D12*
G04 #@! TO.N,/GND*
X12937500Y4837500D03*
X7937500Y13437500D03*
X4037500Y12437500D03*
X12537500Y10637500D03*
X1937500Y8837500D03*
X2037500Y5337500D03*
X6037500Y5737500D03*
G04 #@! TO.N,/SIGNAL*
X9737500Y6737500D03*
X9737500Y14137500D03*
X6237500Y13637500D03*
G04 #@! TO.N,/VDD_PROTECTED*
X6137500Y14437500D03*
X6137500Y6537500D03*
G04 #@! TO.N,/U1_IOUT*
X5037500Y4437500D03*
G04 #@! TO.N,/FILTER_STAGE_2*
X4637500Y9737500D03*
X6137500Y12837500D03*
X11437500Y11737500D03*
G04 #@! TO.N,/FILTER_STAGE_1*
X3137500Y8937500D03*
X3437500Y11937500D03*
G04 #@! TD*
G04 #@! TO.N,/SIGNAL*
D13*
X7637500Y14037500D02*
X7237500Y13637500D01*
X11737500Y12337500D02*
X11637500Y12337500D01*
X12037500Y11937500D02*
X12037500Y12037500D01*
X11637500Y12337500D02*
X11537500Y12437500D01*
X7237500Y13637500D02*
X6237500Y13637500D01*
X7837500Y14137500D02*
X7737500Y14037500D01*
X9737500Y9137500D02*
X12037500Y11437500D01*
X7737500Y14037500D02*
X7637500Y14037500D01*
X12037500Y11437500D02*
X12037500Y11537500D01*
X9737500Y6737500D02*
X9737500Y9137500D01*
X11437500Y12437500D02*
X9737500Y14137500D01*
X9737500Y14137500D02*
X7837500Y14137500D01*
X12137500Y11637500D02*
X12137500Y11837500D01*
X11537500Y12437500D02*
X11437500Y12437500D01*
X12037500Y11537500D02*
X12137500Y11637500D01*
X12137500Y11837500D02*
X12037500Y11937500D01*
X12037500Y12037500D02*
X11737500Y12337500D01*
G04 #@! TO.N,/VDD_PROTECTED*
D14*
X5537500Y13037500D02*
X5437500Y12937500D01*
X3937500Y9537500D02*
X5937500Y7537500D01*
X5637500Y13937500D02*
X5637500Y13837500D01*
X4237500Y11237500D02*
X4237500Y11137500D01*
X4437500Y11637500D02*
X4337500Y11537500D01*
X5637500Y13837500D02*
X5537500Y13737500D01*
X4237500Y11137500D02*
X4137500Y11037500D01*
X4437500Y11837500D02*
X4437500Y11637500D01*
X6137500Y6537500D02*
X7437500Y6537500D01*
X4037500Y9937500D02*
X3937500Y9837500D01*
X5437500Y12837500D02*
X4437500Y11837500D01*
X5937500Y6737500D02*
X6137500Y6537500D01*
X5437500Y12937500D02*
X5437500Y12837500D01*
X7450200Y6520600D02*
X7437500Y6537500D01*
X4337500Y11537500D02*
X4337500Y11337500D01*
X4337500Y11337500D02*
X4237500Y11237500D01*
X5937500Y7537500D02*
X5937500Y6737500D01*
X5537500Y13737500D02*
X5537500Y13037500D01*
X6137500Y14437500D02*
X5637500Y13937500D01*
X4137500Y11037500D02*
X4137500Y10137500D01*
X4137500Y10137500D02*
X4037500Y10037500D01*
X3937500Y9837500D02*
X3937500Y9537500D01*
X4037500Y10037500D02*
X4037500Y9937500D01*
G04 #@! TO.N,/U1_IOUT*
D13*
X6737500Y5337500D02*
X6837500Y5337500D01*
X7450200Y5620600D02*
X7437500Y5637500D01*
X5237500Y4637500D02*
X5337500Y4637500D01*
X6637500Y5237500D02*
X6737500Y5337500D01*
X5437500Y4737500D02*
X5537500Y4737500D01*
X5537500Y4737500D02*
X5637500Y4837500D01*
X5737500Y4837500D02*
X5837500Y4937500D01*
X5937500Y4937500D02*
X6037500Y5037500D01*
X5337500Y4637500D02*
X5437500Y4737500D01*
X7137500Y5537500D02*
X7337500Y5537500D01*
X6437500Y5137500D02*
X6537500Y5237500D01*
X7037500Y5437500D02*
X7137500Y5537500D01*
X5037500Y4437500D02*
X5237500Y4637500D01*
X6137500Y5037500D02*
X6237500Y5137500D01*
X6537500Y5237500D02*
X6637500Y5237500D01*
X6237500Y5137500D02*
X6437500Y5137500D01*
X6937500Y5437500D02*
X7037500Y5437500D01*
X6037500Y5037500D02*
X6137500Y5037500D01*
X5637500Y4837500D02*
X5737500Y4837500D01*
X6837500Y5337500D02*
X6937500Y5437500D01*
X7337500Y5537500D02*
X7437500Y5637500D01*
X5837500Y4937500D02*
X5937500Y4937500D01*
G04 #@! TO.N,/FILTER_STAGE_2*
X10937500Y12037500D02*
X11037500Y11937500D01*
X9737500Y12537500D02*
X9837500Y12537500D01*
X10737500Y12137500D02*
X10837500Y12037500D01*
X9537500Y12637500D02*
X9637500Y12637500D01*
X10437500Y12237500D02*
X10537500Y12237500D01*
X11037500Y11937500D02*
X11237500Y11937500D01*
X4637500Y9737500D02*
X4637500Y10837500D01*
X10237500Y12337500D02*
X10337500Y12337500D01*
X4837500Y11337500D02*
X4937500Y11437500D01*
X10637500Y12137500D02*
X10737500Y12137500D01*
X10837500Y12037500D02*
X10937500Y12037500D01*
X6137500Y12837500D02*
X7737500Y12837500D01*
X11237500Y11937500D02*
X11437500Y11737500D01*
X9937500Y12437500D02*
X10137500Y12437500D01*
X9437500Y12737500D02*
X9537500Y12637500D01*
X4737500Y10937500D02*
X4737500Y11037500D01*
X10537500Y12237500D02*
X10637500Y12137500D01*
X9637500Y12637500D02*
X9737500Y12537500D01*
X4737500Y11037500D02*
X4837500Y11137500D01*
X10337500Y12337500D02*
X10437500Y12237500D01*
X4637500Y10837500D02*
X4737500Y10937500D01*
X4937500Y11437500D02*
X4937500Y11637500D01*
X9837500Y12537500D02*
X9937500Y12437500D01*
X4837500Y11137500D02*
X4837500Y11337500D01*
X7737500Y12837500D02*
X7837500Y12737500D01*
X10137500Y12437500D02*
X10237500Y12337500D01*
X4937500Y11637500D02*
X6137500Y12837500D01*
X7837500Y12737500D02*
X9437500Y12737500D01*
G04 #@! TO.N,/FILTER_STAGE_1*
X3137500Y10737500D02*
X3237500Y10837500D01*
X3137500Y8937500D02*
X3137500Y10737500D01*
X3237500Y10837500D02*
X3237500Y11737500D01*
X3237500Y11737500D02*
X3437500Y11937500D01*
G04 #@! TD*
G04 #@! TA.AperFunction,Conductor*
G04 #@! TO.N,/GND*
G36*
X9422571Y13815327D02*
G01*
X9460887Y13777011D01*
X9460889Y13777010D01*
X9460890Y13777009D01*
X9548332Y13726524D01*
X9563614Y13717701D01*
X9563615Y13717701D01*
X9563617Y13717700D01*
X9564528Y13717456D01*
X9678188Y13687001D01*
X9678189Y13687000D01*
X9678191Y13687000D01*
X9732377Y13687000D01*
X9784703Y13665326D01*
X10902750Y12547279D01*
X10924424Y12494953D01*
X10902750Y12442627D01*
X10850424Y12420953D01*
X10831271Y12423475D01*
X10775599Y12438393D01*
X10742426Y12457545D01*
X10722011Y12477960D01*
X10688963Y12497040D01*
X10653490Y12517521D01*
X10653485Y12517523D01*
X10575599Y12538393D01*
X10542426Y12557545D01*
X10522011Y12577960D01*
X10488963Y12597040D01*
X10453490Y12617521D01*
X10453485Y12617523D01*
X10375599Y12638393D01*
X10342426Y12657545D01*
X10322011Y12677960D01*
X10313432Y12682913D01*
X10253490Y12717521D01*
X10253485Y12717523D01*
X10177064Y12738000D01*
X10177062Y12738000D01*
X10092623Y12738000D01*
X10040297Y12759674D01*
X10022012Y12777959D01*
X10022011Y12777960D01*
X9993106Y12794648D01*
X9984732Y12799483D01*
X9953490Y12817521D01*
X9953485Y12817523D01*
X9875599Y12838393D01*
X9842426Y12857545D01*
X9822011Y12877960D01*
X9763292Y12911861D01*
X9763292Y12911863D01*
X9763287Y12911864D01*
X9759485Y12914059D01*
X9753492Y12917520D01*
X9753485Y12917523D01*
X9675599Y12938393D01*
X9642426Y12957545D01*
X9622011Y12977960D01*
X9593108Y12994647D01*
X9553490Y13017521D01*
X9553485Y13017523D01*
X9477064Y13038000D01*
X9477062Y13038000D01*
X7992623Y13038000D01*
X7940297Y13059674D01*
X7922011Y13077960D01*
X7887361Y13097965D01*
X7853490Y13117521D01*
X7853485Y13117523D01*
X7777064Y13138000D01*
X7777062Y13138000D01*
X6549512Y13138000D01*
X6497186Y13159674D01*
X6475512Y13212000D01*
X6497186Y13264326D01*
X6512510Y13276085D01*
X6513497Y13276656D01*
X6514113Y13277011D01*
X6552429Y13315327D01*
X6604754Y13337000D01*
X7277064Y13337000D01*
X7277064Y13337001D01*
X7353489Y13357479D01*
X7422011Y13397040D01*
X7477960Y13452989D01*
X7742428Y13717458D01*
X7775599Y13736608D01*
X7853485Y13757478D01*
X7853484Y13757478D01*
X7853489Y13757479D01*
X7922011Y13797040D01*
X7940297Y13815326D01*
X7992623Y13837000D01*
X9370246Y13837000D01*
X9422571Y13815327D01*
G37*
G04 #@! TD.AperFunction*
G04 #@! TA.AperFunction,Conductor*
G36*
X8205586Y15369573D02*
G01*
X8729854Y15332076D01*
X8735066Y15331517D01*
X9255366Y15256709D01*
X9260526Y15255778D01*
X9774144Y15144047D01*
X9779262Y15142740D01*
X10283583Y14994658D01*
X10288557Y14993003D01*
X10781049Y14809313D01*
X10785894Y14807307D01*
X11264039Y14588945D01*
X11268752Y14586585D01*
X11730062Y14334691D01*
X11734587Y14332007D01*
X12176777Y14047828D01*
X12181087Y14044835D01*
X12512102Y13797041D01*
X12601875Y13729838D01*
X12605973Y13726536D01*
X13003221Y13382319D01*
X13007070Y13378735D01*
X13378734Y13007071D01*
X13382319Y13003221D01*
X13726532Y12605977D01*
X13729837Y12601876D01*
X13794627Y12515327D01*
X14044830Y12181094D01*
X14047831Y12176772D01*
X14317294Y11757480D01*
X14332000Y11734597D01*
X14334695Y11730054D01*
X14586581Y11268758D01*
X14588946Y11264035D01*
X14755469Y10899401D01*
X14807298Y10785913D01*
X14809317Y10781036D01*
X14863897Y10634703D01*
X14992995Y10288577D01*
X14994663Y10283565D01*
X15142739Y9779263D01*
X15144046Y9774145D01*
X15255773Y9260546D01*
X15256711Y9255347D01*
X15331513Y8735086D01*
X15332077Y8729834D01*
X15369572Y8205587D01*
X15369761Y8200308D01*
X15369761Y7674693D01*
X15369572Y7669414D01*
X15332077Y7145167D01*
X15331513Y7139915D01*
X15256711Y6619654D01*
X15255773Y6614455D01*
X15144046Y6100856D01*
X15142739Y6095738D01*
X14994663Y5591436D01*
X14992995Y5586424D01*
X14809319Y5093969D01*
X14807298Y5089088D01*
X14588946Y4610966D01*
X14586581Y4606243D01*
X14334695Y4144947D01*
X14332000Y4140404D01*
X14047837Y3698238D01*
X14044824Y3693898D01*
X13729837Y3273125D01*
X13726523Y3269012D01*
X13382334Y2871796D01*
X13378734Y2867930D01*
X13007070Y2496266D01*
X13003204Y2492666D01*
X12605988Y2148477D01*
X12601875Y2145163D01*
X12181102Y1830176D01*
X12176762Y1827163D01*
X11734596Y1543000D01*
X11730053Y1540305D01*
X11268757Y1288419D01*
X11264034Y1286054D01*
X10785912Y1067702D01*
X10781031Y1065681D01*
X10288576Y882005D01*
X10283564Y880337D01*
X9779262Y732261D01*
X9774144Y730954D01*
X9260545Y619227D01*
X9255346Y618289D01*
X8735085Y543487D01*
X8729833Y542923D01*
X8205587Y505428D01*
X8200308Y505239D01*
X7674692Y505239D01*
X7669413Y505428D01*
X7145166Y542923D01*
X7139914Y543487D01*
X6619653Y618289D01*
X6614454Y619227D01*
X6100855Y730954D01*
X6095737Y732261D01*
X5591435Y880337D01*
X5586423Y882005D01*
X5093968Y1065681D01*
X5089087Y1067702D01*
X4610965Y1286054D01*
X4606242Y1288419D01*
X4144946Y1540305D01*
X4140403Y1543000D01*
X3698228Y1827169D01*
X3693906Y1830170D01*
X3273124Y2145163D01*
X3269023Y2148468D01*
X2871779Y2492681D01*
X2867929Y2496266D01*
X2496265Y2867930D01*
X2492681Y2871779D01*
X2148464Y3269027D01*
X2145162Y3273125D01*
X2136861Y3284213D01*
X1830165Y3693913D01*
X1827172Y3698223D01*
X1542993Y4140413D01*
X1540304Y4144947D01*
X1531600Y4160887D01*
X1288415Y4606248D01*
X1286053Y4610966D01*
X1285861Y4611386D01*
X1067693Y5089106D01*
X1065687Y5093951D01*
X881997Y5586443D01*
X880342Y5591417D01*
X732260Y6095738D01*
X730953Y6100856D01*
X719071Y6155478D01*
X619222Y6614474D01*
X618291Y6619634D01*
X543483Y7139934D01*
X542924Y7145146D01*
X505428Y7669414D01*
X505239Y7674693D01*
X505239Y8200308D01*
X505428Y8205587D01*
X525555Y8487001D01*
X542924Y8729858D01*
X543483Y8735064D01*
X581117Y8996812D01*
X2687000Y8996812D01*
X2687000Y8878189D01*
X2717699Y8763618D01*
X2717701Y8763613D01*
X2777008Y8660891D01*
X2777009Y8660890D01*
X2777011Y8660887D01*
X2860887Y8577011D01*
X2963614Y8517701D01*
X2963615Y8517701D01*
X2963617Y8517700D01*
X3020902Y8502351D01*
X3078188Y8487001D01*
X3078189Y8487000D01*
X3078191Y8487000D01*
X3196811Y8487000D01*
X3196811Y8487001D01*
X3311386Y8517701D01*
X3414113Y8577011D01*
X3497989Y8660887D01*
X3557299Y8763614D01*
X3587999Y8878189D01*
X3588000Y8878189D01*
X3588000Y8996811D01*
X3587999Y8996812D01*
X3557300Y9111383D01*
X3557298Y9111388D01*
X3497991Y9214110D01*
X3497990Y9214111D01*
X3497989Y9214113D01*
X3459673Y9252429D01*
X3438000Y9304754D01*
X3438000Y9880353D01*
X3612000Y9880353D01*
X3612000Y9580353D01*
X3612000Y9494647D01*
X3618948Y9468718D01*
X3634183Y9411859D01*
X3634184Y9411857D01*
X3677032Y9337642D01*
X3677033Y9337641D01*
X3677035Y9337638D01*
X5590326Y7424347D01*
X5612000Y7372022D01*
X5612000Y6780353D01*
X5612000Y6694647D01*
X5633487Y6614455D01*
X5634183Y6611859D01*
X5634185Y6611855D01*
X5677085Y6537552D01*
X5687000Y6500551D01*
X5687000Y6478189D01*
X5717699Y6363618D01*
X5717701Y6363613D01*
X5777008Y6260891D01*
X5777009Y6260890D01*
X5777011Y6260887D01*
X5860887Y6177011D01*
X5860889Y6177010D01*
X5860890Y6177009D01*
X5927944Y6138295D01*
X5963614Y6117701D01*
X5963615Y6117701D01*
X5963617Y6117700D01*
X5985961Y6111713D01*
X6078188Y6087001D01*
X6078189Y6087000D01*
X6078191Y6087000D01*
X6196811Y6087000D01*
X6196811Y6087001D01*
X6311386Y6117701D01*
X6414113Y6177011D01*
X6427428Y6190327D01*
X6479753Y6212000D01*
X7091461Y6212000D01*
X7143787Y6190326D01*
X7168933Y6165180D01*
X7204871Y6149312D01*
X7229822Y6138295D01*
X7268935Y6097332D01*
X7267627Y6040710D01*
X7229822Y6002905D01*
X7168932Y5976020D01*
X7094779Y5901867D01*
X7076684Y5860886D01*
X7035721Y5821774D01*
X7028146Y5819299D01*
X7021510Y5817521D01*
X7021509Y5817521D01*
X6982978Y5795274D01*
X6952988Y5777960D01*
X6932572Y5757544D01*
X6899401Y5738393D01*
X6821513Y5717522D01*
X6821509Y5717521D01*
X6784407Y5696099D01*
X6752988Y5677960D01*
X6732572Y5657544D01*
X6699401Y5638393D01*
X6621513Y5617522D01*
X6621509Y5617521D01*
X6552988Y5577960D01*
X6532572Y5557544D01*
X6499401Y5538393D01*
X6421513Y5517522D01*
X6421509Y5517521D01*
X6371418Y5488600D01*
X6352988Y5477960D01*
X6334703Y5459674D01*
X6282377Y5438000D01*
X6197936Y5438000D01*
X6121514Y5417523D01*
X6121509Y5417521D01*
X6052988Y5377960D01*
X6032572Y5357544D01*
X5999401Y5338393D01*
X5921513Y5317522D01*
X5921509Y5317521D01*
X5852988Y5277960D01*
X5832572Y5257544D01*
X5799401Y5238393D01*
X5721513Y5217522D01*
X5721509Y5217521D01*
X5686037Y5197040D01*
X5652988Y5177960D01*
X5632572Y5157544D01*
X5599401Y5138393D01*
X5521513Y5117522D01*
X5521509Y5117521D01*
X5486037Y5097040D01*
X5452988Y5077960D01*
X5432572Y5057544D01*
X5399401Y5038393D01*
X5321513Y5017522D01*
X5321509Y5017521D01*
X5286037Y4997040D01*
X5252988Y4977960D01*
X5232572Y4957544D01*
X5199400Y4938393D01*
X5121516Y4917524D01*
X5121507Y4917520D01*
X5087550Y4897914D01*
X5050550Y4888000D01*
X4978189Y4888000D01*
X4863617Y4857301D01*
X4863612Y4857299D01*
X4760890Y4797992D01*
X4677008Y4714110D01*
X4617701Y4611388D01*
X4617699Y4611383D01*
X4587000Y4496812D01*
X4587000Y4378189D01*
X4617699Y4263618D01*
X4617701Y4263613D01*
X4677008Y4160891D01*
X4677009Y4160890D01*
X4677011Y4160887D01*
X4760887Y4077011D01*
X4863614Y4017701D01*
X4863615Y4017701D01*
X4863617Y4017700D01*
X4920902Y4002351D01*
X4978188Y3987001D01*
X4978189Y3987000D01*
X4978191Y3987000D01*
X5096811Y3987000D01*
X5096811Y3987001D01*
X5211386Y4017701D01*
X5314113Y4077011D01*
X5397989Y4160887D01*
X5457299Y4263614D01*
X5479817Y4347654D01*
X5514294Y4392585D01*
X5522011Y4397040D01*
X5542427Y4417457D01*
X5575599Y4436608D01*
X5653485Y4457478D01*
X5653484Y4457478D01*
X5653489Y4457479D01*
X5722011Y4497040D01*
X5742427Y4517457D01*
X5775599Y4536608D01*
X5853485Y4557478D01*
X5853484Y4557478D01*
X5853489Y4557479D01*
X5922011Y4597040D01*
X5942427Y4617457D01*
X5975599Y4636608D01*
X6053485Y4657478D01*
X6053484Y4657478D01*
X6053489Y4657479D01*
X6122011Y4697040D01*
X6142427Y4717457D01*
X6175599Y4736608D01*
X6253485Y4757478D01*
X6253484Y4757478D01*
X6253489Y4757479D01*
X6322011Y4797040D01*
X6340297Y4815326D01*
X6392623Y4837000D01*
X6477064Y4837000D01*
X6477064Y4837001D01*
X6553489Y4857479D01*
X6622011Y4897040D01*
X6642427Y4917457D01*
X6675599Y4936608D01*
X6753485Y4957478D01*
X6753484Y4957478D01*
X6753489Y4957479D01*
X6822011Y4997040D01*
X6842427Y5017457D01*
X6875599Y5036608D01*
X6953485Y5057478D01*
X6953484Y5057478D01*
X6953489Y5057479D01*
X7022011Y5097040D01*
X7042427Y5117457D01*
X7075599Y5136608D01*
X7153485Y5157478D01*
X7153484Y5157478D01*
X7153489Y5157479D01*
X7222011Y5197040D01*
X7224255Y5199285D01*
X7225735Y5199898D01*
X7225857Y5199991D01*
X7225881Y5199959D01*
X7276574Y5220966D01*
X7285100Y5220474D01*
X7288320Y5220100D01*
X7288329Y5220100D01*
X7612076Y5220100D01*
X7612080Y5220100D01*
X7635533Y5222821D01*
X7709494Y5255479D01*
X7766113Y5256786D01*
X7780491Y5249314D01*
X7802460Y5234634D01*
X7875526Y5220100D01*
X7875528Y5220100D01*
X8024872Y5220100D01*
X8024874Y5220100D01*
X8097940Y5234634D01*
X8180801Y5289999D01*
X8236166Y5372860D01*
X8250700Y5445926D01*
X8250700Y5795274D01*
X8236166Y5868340D01*
X8180801Y5951201D01*
X8180800Y5951202D01*
X8094190Y6009072D01*
X8062724Y6056164D01*
X8073773Y6111713D01*
X8094190Y6132130D01*
X8097936Y6134634D01*
X8097940Y6134634D01*
X8119907Y6149313D01*
X8175454Y6160361D01*
X8190903Y6155480D01*
X8264867Y6122821D01*
X8288320Y6120100D01*
X8288324Y6120100D01*
X8612076Y6120100D01*
X8612080Y6120100D01*
X8635533Y6122821D01*
X8731467Y6165180D01*
X8805620Y6239333D01*
X8847979Y6335267D01*
X8850700Y6358720D01*
X8850700Y6682480D01*
X8847979Y6705933D01*
X8805620Y6801867D01*
X8731467Y6876020D01*
X8635533Y6918379D01*
X8635534Y6918379D01*
X8630842Y6918924D01*
X8612080Y6921100D01*
X8368848Y6921100D01*
X8316522Y6942774D01*
X8294848Y6995100D01*
X8316522Y7047426D01*
X8345981Y7065478D01*
X8408546Y7085807D01*
X8448043Y7098640D01*
X8634572Y7193682D01*
X8803937Y7316733D01*
X8951967Y7464763D01*
X9075018Y7634128D01*
X9170060Y7820657D01*
X9234751Y8019758D01*
X9267500Y8226527D01*
X9267500Y8435873D01*
X9234751Y8642642D01*
X9234749Y8642647D01*
X9234748Y8642653D01*
X9170061Y8841740D01*
X9170060Y8841741D01*
X9170060Y8841743D01*
X9075018Y9028272D01*
X8966913Y9177065D01*
X8951970Y9197633D01*
X8951969Y9197634D01*
X8951967Y9197637D01*
X8803937Y9345667D01*
X8803934Y9345670D01*
X8803932Y9345671D01*
X8634574Y9468717D01*
X8572395Y9500399D01*
X8448043Y9563760D01*
X8448042Y9563761D01*
X8448039Y9563762D01*
X8448040Y9563762D01*
X8248952Y9628449D01*
X8248939Y9628452D01*
X8042174Y9661200D01*
X8042173Y9661200D01*
X7832827Y9661200D01*
X7832826Y9661200D01*
X7626060Y9628452D01*
X7626047Y9628449D01*
X7426960Y9563762D01*
X7240426Y9468717D01*
X7240425Y9468717D01*
X7071067Y9345671D01*
X6923029Y9197633D01*
X6799983Y9028275D01*
X6799983Y9028274D01*
X6704938Y8841740D01*
X6640251Y8642653D01*
X6640248Y8642640D01*
X6607500Y8435874D01*
X6607500Y8226527D01*
X6640248Y8019761D01*
X6640251Y8019748D01*
X6704938Y7820661D01*
X6704939Y7820658D01*
X6704940Y7820657D01*
X6786153Y7661268D01*
X6799983Y7634127D01*
X6799983Y7634126D01*
X6923029Y7464768D01*
X6923033Y7464763D01*
X7071063Y7316733D01*
X7240428Y7193682D01*
X7426957Y7098640D01*
X7426960Y7098639D01*
X7426959Y7098639D01*
X7529019Y7065478D01*
X7572086Y7028696D01*
X7576530Y6972233D01*
X7539748Y6929166D01*
X7506152Y6921100D01*
X7288320Y6921100D01*
X7269557Y6918924D01*
X7264866Y6918379D01*
X7168932Y6876020D01*
X7168831Y6875950D01*
X7168643Y6875892D01*
X7162660Y6873250D01*
X7162353Y6873945D01*
X7127011Y6863000D01*
X6479753Y6863000D01*
X6427428Y6884674D01*
X6414113Y6897989D01*
X6414110Y6897991D01*
X6414109Y6897992D01*
X6311385Y6957300D01*
X6308678Y6958421D01*
X6307633Y6959466D01*
X6307186Y6959724D01*
X6307255Y6959844D01*
X6268631Y6998472D01*
X6263000Y7026787D01*
X6263000Y7580353D01*
X6240818Y7663138D01*
X6240818Y7663139D01*
X6197967Y7737359D01*
X6197966Y7737360D01*
X6197965Y7737362D01*
X4749203Y9186124D01*
X4727529Y9238450D01*
X4749203Y9290776D01*
X4782373Y9309928D01*
X4811386Y9317701D01*
X4914113Y9377011D01*
X4997989Y9460887D01*
X5057299Y9563614D01*
X5087999Y9678189D01*
X5088000Y9678189D01*
X5088000Y9796811D01*
X5087999Y9796812D01*
X5057300Y9911383D01*
X5057298Y9911388D01*
X4997991Y10014110D01*
X4997990Y10014111D01*
X4997989Y10014113D01*
X4959673Y10052429D01*
X4938000Y10104754D01*
X4938000Y10682377D01*
X4959674Y10734703D01*
X4977960Y10752989D01*
X4995585Y10783517D01*
X5017521Y10821511D01*
X5038000Y10897938D01*
X5038000Y10897939D01*
X5038392Y10899401D01*
X5057543Y10932573D01*
X5077960Y10952989D01*
X5103911Y10997938D01*
X5117521Y11021511D01*
X5137999Y11097936D01*
X5138000Y11097936D01*
X5138000Y11182377D01*
X5159674Y11234703D01*
X5162333Y11237362D01*
X5177960Y11252989D01*
X5183816Y11263135D01*
X5183820Y11263137D01*
X5183819Y11263138D01*
X5206519Y11302456D01*
X5217521Y11321511D01*
X5237999Y11397936D01*
X5238000Y11397936D01*
X5238000Y11482377D01*
X5259674Y11534703D01*
X6090297Y12365326D01*
X6142623Y12387000D01*
X6196811Y12387000D01*
X6196811Y12387001D01*
X6311386Y12417701D01*
X6414113Y12477011D01*
X6452429Y12515327D01*
X6504754Y12537000D01*
X7582377Y12537000D01*
X7634703Y12515326D01*
X7652989Y12497040D01*
X7687684Y12477009D01*
X7721396Y12457545D01*
X7721511Y12457479D01*
X7721512Y12457479D01*
X7721514Y12457478D01*
X7759724Y12447240D01*
X7797935Y12437001D01*
X7797936Y12437000D01*
X7797938Y12437000D01*
X9282377Y12437000D01*
X9334703Y12415326D01*
X9352989Y12397040D01*
X9370379Y12387000D01*
X9407919Y12365326D01*
X9421511Y12357479D01*
X9421512Y12357479D01*
X9421514Y12357478D01*
X9499400Y12336608D01*
X9532573Y12317456D01*
X9552989Y12297040D01*
X9621511Y12257479D01*
X9621512Y12257479D01*
X9621514Y12257478D01*
X9699400Y12236608D01*
X9732573Y12217456D01*
X9752989Y12197040D01*
X9821511Y12157479D01*
X9821512Y12157479D01*
X9821514Y12157478D01*
X9859724Y12147240D01*
X9897935Y12137001D01*
X9897936Y12137000D01*
X9897938Y12137000D01*
X9977062Y12137000D01*
X9982377Y12137000D01*
X10034703Y12115326D01*
X10052989Y12097040D01*
X10103149Y12068080D01*
X10113730Y12061971D01*
X10121511Y12057479D01*
X10121512Y12057479D01*
X10121514Y12057478D01*
X10199400Y12036608D01*
X10232573Y12017456D01*
X10252989Y11997040D01*
X10303149Y11968080D01*
X10311707Y11963139D01*
X10321511Y11957479D01*
X10321512Y11957479D01*
X10321514Y11957478D01*
X10399400Y11936608D01*
X10432573Y11917456D01*
X10452989Y11897040D01*
X10521511Y11857479D01*
X10521512Y11857479D01*
X10521514Y11857478D01*
X10599400Y11836608D01*
X10632573Y11817456D01*
X10652989Y11797040D01*
X10687587Y11777065D01*
X10710886Y11763613D01*
X10721511Y11757479D01*
X10721512Y11757479D01*
X10721514Y11757478D01*
X10799400Y11736608D01*
X10832573Y11717456D01*
X10852989Y11697040D01*
X10903149Y11668080D01*
X10911707Y11663139D01*
X10921511Y11657479D01*
X10921512Y11657479D01*
X10921514Y11657478D01*
X10956777Y11648029D01*
X11001710Y11613551D01*
X11009102Y11595704D01*
X11017699Y11563618D01*
X11017701Y11563613D01*
X11077008Y11460891D01*
X11077009Y11460890D01*
X11077011Y11460887D01*
X11160887Y11377011D01*
X11160889Y11377010D01*
X11160890Y11377009D01*
X11263612Y11317702D01*
X11263614Y11317701D01*
X11263615Y11317701D01*
X11263617Y11317700D01*
X11320507Y11302456D01*
X11365440Y11267978D01*
X11372832Y11211825D01*
X11353680Y11178652D01*
X9552989Y9377960D01*
X9497040Y9322012D01*
X9457479Y9253491D01*
X9457477Y9253486D01*
X9437000Y9177065D01*
X9437000Y7104754D01*
X9415327Y7052429D01*
X9377008Y7014110D01*
X9317701Y6911388D01*
X9317699Y6911383D01*
X9287000Y6796812D01*
X9287000Y6678189D01*
X9317699Y6563618D01*
X9317701Y6563613D01*
X9377008Y6460891D01*
X9377009Y6460890D01*
X9377011Y6460887D01*
X9460887Y6377011D01*
X9460889Y6377010D01*
X9460890Y6377009D01*
X9533189Y6335267D01*
X9563614Y6317701D01*
X9563615Y6317701D01*
X9563617Y6317700D01*
X9620902Y6302351D01*
X9678188Y6287001D01*
X9678189Y6287000D01*
X9678191Y6287000D01*
X9796811Y6287000D01*
X9796811Y6287001D01*
X9911386Y6317701D01*
X10014113Y6377011D01*
X10097989Y6460887D01*
X10157299Y6563614D01*
X10187999Y6678189D01*
X10188000Y6678189D01*
X10188000Y6796811D01*
X10187999Y6796812D01*
X10157300Y6911383D01*
X10157298Y6911388D01*
X10097991Y7014110D01*
X10097990Y7014111D01*
X10097989Y7014113D01*
X10059673Y7052429D01*
X10038000Y7104754D01*
X10038000Y8982377D01*
X10059674Y9034703D01*
X11129725Y10104754D01*
X12277960Y11252989D01*
X12283816Y11263135D01*
X12283820Y11263137D01*
X12283819Y11263138D01*
X12306519Y11302456D01*
X12317521Y11321511D01*
X12338000Y11397938D01*
X12338000Y11397939D01*
X12338392Y11399401D01*
X12357543Y11432573D01*
X12377960Y11452989D01*
X12402011Y11494647D01*
X12417521Y11521511D01*
X12437999Y11597936D01*
X12438000Y11597936D01*
X12438000Y11877064D01*
X12437999Y11877065D01*
X12432646Y11897041D01*
X12417521Y11953489D01*
X12415217Y11957479D01*
X12392509Y11996811D01*
X12377960Y12022011D01*
X12357544Y12042427D01*
X12338392Y12075600D01*
X12317522Y12153486D01*
X12317520Y12153491D01*
X12292376Y12197041D01*
X12277960Y12222011D01*
X12222011Y12277960D01*
X11922011Y12577960D01*
X11888963Y12597040D01*
X11880587Y12601876D01*
X11853490Y12617521D01*
X11853485Y12617523D01*
X11775599Y12638393D01*
X11742426Y12657545D01*
X11722011Y12677960D01*
X11713432Y12682913D01*
X11653490Y12717521D01*
X11653485Y12717523D01*
X11575599Y12738393D01*
X11542426Y12757545D01*
X10209674Y14090297D01*
X10188000Y14142623D01*
X10188000Y14196811D01*
X10187999Y14196812D01*
X10157300Y14311383D01*
X10157298Y14311388D01*
X10097991Y14414110D01*
X10097990Y14414111D01*
X10097989Y14414113D01*
X10014113Y14497989D01*
X10014110Y14497991D01*
X10014109Y14497992D01*
X9911387Y14557299D01*
X9911382Y14557301D01*
X9796811Y14588000D01*
X9796809Y14588000D01*
X9678191Y14588000D01*
X9678189Y14588000D01*
X9563617Y14557301D01*
X9563612Y14557299D01*
X9460890Y14497992D01*
X9422571Y14459673D01*
X9370246Y14438000D01*
X7797936Y14438000D01*
X7721514Y14417523D01*
X7721509Y14417521D01*
X7681892Y14394647D01*
X7652988Y14377960D01*
X7632572Y14357544D01*
X7606783Y14340792D01*
X7599515Y14338000D01*
X7597938Y14338000D01*
X7521511Y14317521D01*
X7477458Y14292087D01*
X7472423Y14289181D01*
X7472420Y14289179D01*
X7452988Y14277960D01*
X7134703Y13959674D01*
X7082377Y13938000D01*
X6604754Y13938000D01*
X6552429Y13959673D01*
X6539775Y13972327D01*
X6514113Y13997989D01*
X6514110Y13997991D01*
X6514109Y13997992D01*
X6484136Y14015297D01*
X6449657Y14060231D01*
X6457050Y14116383D01*
X6468806Y14131705D01*
X6497989Y14160887D01*
X6557299Y14263614D01*
X6587999Y14378189D01*
X6588000Y14378189D01*
X6588000Y14496811D01*
X6587999Y14496812D01*
X6557300Y14611383D01*
X6557298Y14611388D01*
X6497991Y14714110D01*
X6497990Y14714111D01*
X6497989Y14714113D01*
X6414113Y14797989D01*
X6414110Y14797991D01*
X6414109Y14797992D01*
X6311387Y14857299D01*
X6311382Y14857301D01*
X6196811Y14888000D01*
X6196809Y14888000D01*
X6078191Y14888000D01*
X6078189Y14888000D01*
X5963617Y14857301D01*
X5963612Y14857299D01*
X5860890Y14797992D01*
X5777008Y14714110D01*
X5717701Y14611388D01*
X5717699Y14611383D01*
X5687000Y14496812D01*
X5687000Y14477979D01*
X5665326Y14425653D01*
X5377032Y14137359D01*
X5334184Y14063144D01*
X5334180Y14063135D01*
X5316718Y13997964D01*
X5314193Y13988541D01*
X5295042Y13955369D01*
X5277032Y13937359D01*
X5234182Y13863141D01*
X5234181Y13863137D01*
X5227177Y13837001D01*
X5227178Y13837000D01*
X5216472Y13797041D01*
X5212000Y13780352D01*
X5212000Y13202979D01*
X5190327Y13150655D01*
X5177035Y13137363D01*
X5177033Y13137360D01*
X5134180Y13063138D01*
X5134181Y13063137D01*
X5114193Y12988542D01*
X5095041Y12955369D01*
X4177032Y12037359D01*
X4134184Y11963144D01*
X4134181Y11963136D01*
X4128200Y11940818D01*
X4128201Y11940817D01*
X4116472Y11897041D01*
X4112000Y11880352D01*
X4112000Y11802979D01*
X4090327Y11750655D01*
X4077035Y11737363D01*
X4077033Y11737360D01*
X4034184Y11663144D01*
X4034181Y11663136D01*
X4028200Y11640818D01*
X4028201Y11640817D01*
X4012000Y11580352D01*
X4012000Y11502979D01*
X3990327Y11450655D01*
X3977035Y11437363D01*
X3977033Y11437360D01*
X3934182Y11363141D01*
X3934181Y11363137D01*
X3928200Y11340819D01*
X3928201Y11340818D01*
X3914194Y11288542D01*
X3895042Y11255369D01*
X3877032Y11237359D01*
X3834182Y11163141D01*
X3834181Y11163137D01*
X3827445Y11138001D01*
X3827446Y11138000D01*
X3812000Y11080352D01*
X3812000Y10302979D01*
X3790327Y10250655D01*
X3777035Y10237363D01*
X3777033Y10237360D01*
X3734184Y10163144D01*
X3734180Y10163135D01*
X3716718Y10097964D01*
X3714193Y10088541D01*
X3695042Y10055369D01*
X3677032Y10037359D01*
X3634181Y9963139D01*
X3634182Y9963138D01*
X3612000Y9880353D01*
X3438000Y9880353D01*
X3438000Y10582377D01*
X3459674Y10634703D01*
X3477960Y10652989D01*
X3480552Y10657479D01*
X3517521Y10721511D01*
X3537999Y10797936D01*
X3538000Y10797936D01*
X3538000Y11441256D01*
X3559674Y11493582D01*
X3592846Y11512734D01*
X3611386Y11517701D01*
X3714113Y11577011D01*
X3797989Y11660887D01*
X3857299Y11763614D01*
X3887999Y11878189D01*
X3888000Y11878189D01*
X3888000Y11996811D01*
X3887999Y11996812D01*
X3882467Y12017456D01*
X3857299Y12111386D01*
X3842510Y12137001D01*
X3797991Y12214110D01*
X3797990Y12214111D01*
X3797989Y12214113D01*
X3714113Y12297989D01*
X3714110Y12297991D01*
X3714109Y12297992D01*
X3611387Y12357299D01*
X3611382Y12357301D01*
X3496811Y12388000D01*
X3496809Y12388000D01*
X3378191Y12388000D01*
X3378189Y12388000D01*
X3263617Y12357301D01*
X3263612Y12357299D01*
X3160890Y12297992D01*
X3077008Y12214110D01*
X3017701Y12111388D01*
X3017699Y12111383D01*
X2987000Y11996812D01*
X2987000Y11924450D01*
X2977086Y11887451D01*
X2957478Y11853489D01*
X2937000Y11777065D01*
X2937000Y10992623D01*
X2915326Y10940297D01*
X2897040Y10922012D01*
X2857479Y10853491D01*
X2857477Y10853486D01*
X2837000Y10777065D01*
X2837000Y9304754D01*
X2815327Y9252429D01*
X2777008Y9214110D01*
X2717701Y9111388D01*
X2717699Y9111383D01*
X2687000Y8996812D01*
X581117Y8996812D01*
X618292Y9255371D01*
X619221Y9260522D01*
X730954Y9774153D01*
X732260Y9779263D01*
X771055Y9911386D01*
X880345Y10283593D01*
X881994Y10288549D01*
X1065691Y10781060D01*
X1067689Y10785885D01*
X1286060Y11264051D01*
X1288409Y11268742D01*
X1540316Y11730076D01*
X1542986Y11734576D01*
X1827181Y12176791D01*
X1830155Y12181076D01*
X2145172Y12601889D01*
X2148452Y12605961D01*
X2492693Y13003236D01*
X2496251Y13007057D01*
X2867943Y13378749D01*
X2871764Y13382307D01*
X3269039Y13726548D01*
X3273111Y13729828D01*
X3693924Y14044845D01*
X3698209Y14047819D01*
X4140424Y14332014D01*
X4144924Y14334684D01*
X4606258Y14586591D01*
X4610949Y14588940D01*
X5089115Y14807311D01*
X5093940Y14809309D01*
X5586451Y14993006D01*
X5591407Y14994655D01*
X6095744Y15142742D01*
X6100847Y15144046D01*
X6614478Y15255779D01*
X6619629Y15256708D01*
X7139936Y15331517D01*
X7145142Y15332076D01*
X7669413Y15369573D01*
X7674692Y15369761D01*
X8200308Y15369761D01*
X8205586Y15369573D01*
G37*
G04 #@! TD.AperFunction*
G04 #@! TD*
M02*
